<?xml version="1.0" encoding="utf-8" standalone="no"?>
<!DOCTYPE svg PUBLIC "-//W3C//DTD SVG 1.1//EN"
  "http://www.w3.org/Graphics/SVG/1.1/DTD/svg11.dtd">
<svg xmlns:xlink="http://www.w3.org/1999/xlink" width="576pt" height="288pt" viewBox="0 0 576 288" xmlns="http://www.w3.org/2000/svg" version="1.1">
 <metadata>
  <rdf:RDF xmlns:dc="http://purl.org/dc/elements/1.1/" xmlns:cc="http://creativecommons.org/ns#" xmlns:rdf="http://www.w3.org/1999/02/22-rdf-syntax-ns#">
   <cc:Work>
    <dc:type rdf:resource="http://purl.org/dc/dcmitype/StillImage"/>
    <dc:date>2023-01-31T15:06:01.477122</dc:date>
    <dc:format>image/svg+xml</dc:format>
    <dc:creator>
     <cc:Agent>
      <dc:title>Matplotlib v3.6.2, https://matplotlib.org/</dc:title>
     </cc:Agent>
    </dc:creator>
   </cc:Work>
  </rdf:RDF>
 </metadata>
 <defs>
  <style type="text/css">*{stroke-linejoin: round; stroke-linecap: butt}</style>
 </defs>
 <g id="figure_1">
  <g id="patch_1">
   <path d="M 0 288 
L 576 288 
L 576 0 
L 0 0 
z
" style="fill: #ffffff"/>
  </g>
  <g id="axes_1">
   <g id="patch_2">
    <path d="M 72 256.32 
L 274.909091 256.32 
L 274.909091 34.56 
L 72 34.56 
z
" style="fill: #ffffff"/>
   </g>
   <g id="PathCollection_1">
    <path d="M 81.792114 231.120151 
C 82.917275 231.120151 83.996504 230.67312 84.792114 229.87751 
C 85.587723 229.081901 86.034754 228.002672 86.034754 226.87751 
C 86.034754 225.752349 85.587723 224.67312 84.792114 223.87751 
C 83.996504 223.081901 82.917275 222.63487 81.792114 222.63487 
C 80.666952 222.63487 79.587723 223.081901 78.792114 223.87751 
C 77.996504 224.67312 77.549473 225.752349 77.549473 226.87751 
C 77.549473 228.002672 77.996504 229.081901 78.792114 229.87751 
C 79.587723 230.67312 80.666952 231.120151 81.792114 231.120151 
z
" clip-path="url(#p3ba44add33)" style="fill: #440154; stroke: #ffffff; stroke-width: 0.339411"/>
    <path d="M 114.685754 218.156924 
C 115.810916 218.156924 116.890145 217.709893 117.685754 216.914284 
C 118.481364 216.118674 118.928395 215.039445 118.928395 213.914284 
C 118.928395 212.789122 118.481364 211.709893 117.685754 210.914284 
C 116.890145 210.118674 115.810916 209.671643 114.685754 209.671643 
C 113.560593 209.671643 112.481364 210.118674 111.685754 210.914284 
C 110.890145 211.709893 110.443114 212.789122 110.443114 213.914284 
C 110.443114 215.039445 110.890145 216.118674 111.685754 216.914284 
C 112.481364 217.709893 113.560593 218.156924 114.685754 218.156924 
z
" clip-path="url(#p3ba44add33)" style="fill: #414487; stroke: #ffffff; stroke-width: 0.339411"/>
    <path d="M 144.816745 206.282445 
C 145.941906 206.282445 147.021136 205.835414 147.816745 205.039805 
C 148.612354 204.244195 149.059386 203.164966 149.059386 202.039805 
C 149.059386 200.914643 148.612354 199.835414 147.816745 199.039805 
C 147.021136 198.244195 145.941906 197.797164 144.816745 197.797164 
C 143.691584 197.797164 142.612354 198.244195 141.816745 199.039805 
C 141.021136 199.835414 140.574104 200.914643 140.574104 202.039805 
C 140.574104 203.164966 141.021136 204.244195 141.816745 205.039805 
C 142.612354 205.835414 143.691584 206.282445 144.816745 206.282445 
z
" clip-path="url(#p3ba44add33)" style="fill: #2a788e; stroke: #ffffff; stroke-width: 0.339411"/>
    <path d="M 174.947736 194.407966 
C 176.072897 194.407966 177.152126 193.960935 177.947736 193.165325 
C 178.743345 192.369716 179.190376 191.290487 179.190376 190.165325 
C 179.190376 189.040164 178.743345 187.960935 177.947736 187.165325 
C 177.152126 186.369716 176.072897 185.922685 174.947736 185.922685 
C 173.822574 185.922685 172.743345 186.369716 171.947736 187.165325 
C 171.152126 187.960935 170.705095 189.040164 170.705095 190.165325 
C 170.705095 191.290487 171.152126 192.369716 171.947736 193.165325 
C 172.743345 193.960935 173.822574 194.407966 174.947736 194.407966 
z
" clip-path="url(#p3ba44add33)" style="fill: #22a884; stroke: #ffffff; stroke-width: 0.339411"/>
    <path d="M 207.589801 181.543884 
C 208.714963 181.543884 209.794192 181.096853 210.589801 180.301243 
C 211.38541 179.505634 211.832442 178.426405 211.832442 177.301243 
C 211.832442 176.176082 211.38541 175.096853 210.589801 174.301243 
C 209.794192 173.505634 208.714963 173.058603 207.589801 173.058603 
C 206.46464 173.058603 205.38541 173.505634 204.589801 174.301243 
C 203.794192 175.096853 203.34716 176.176082 203.34716 177.301243 
C 203.34716 178.426405 203.794192 179.505634 204.589801 180.301243 
C 205.38541 181.096853 206.46464 181.543884 207.589801 181.543884 
z
" clip-path="url(#p3ba44add33)" style="fill: #7ad151; stroke: #ffffff; stroke-width: 0.339411"/>
    <path d="M 264.623595 159.067139 
C 265.748756 159.067139 266.827986 158.620107 267.623595 157.824498 
C 268.419204 157.028889 268.866236 155.94966 268.866236 154.824498 
C 268.866236 153.699337 268.419204 152.620107 267.623595 151.824498 
C 266.827986 151.028889 265.748756 150.581857 264.623595 150.581857 
C 263.498434 150.581857 262.419204 151.028889 261.623595 151.824498 
C 260.827986 152.620107 260.380954 153.699337 260.380954 154.824498 
C 260.380954 155.94966 260.827986 157.028889 261.623595 157.824498 
C 262.419204 158.620107 263.498434 159.067139 264.623595 159.067139 
z
" clip-path="url(#p3ba44add33)" style="fill: #fde725; stroke: #ffffff; stroke-width: 0.339411"/>
    <path d="M 81.792114 226.646628 
C 82.80632 226.646628 83.779124 226.243679 84.496277 225.526527 
C 85.21343 224.809374 85.616378 223.83657 85.616378 222.822363 
C 85.616378 221.808156 85.21343 220.835352 84.496277 220.1182 
C 83.779124 219.401047 82.80632 218.998099 81.792114 218.998099 
C 80.777907 218.998099 79.805103 219.401047 79.08795 220.1182 
C 78.370798 220.835352 77.967849 221.808156 77.967849 222.822363 
C 77.967849 223.83657 78.370798 224.809374 79.08795 225.526527 
C 79.805103 226.243679 80.777907 226.646628 81.792114 226.646628 
z
" clip-path="url(#p3ba44add33)" style="fill: #440154; stroke: #ffffff; stroke-width: 0.339411"/>
    <path d="M 114.685754 209.319136 
C 115.699961 209.319136 116.672765 208.916188 117.389918 208.199035 
C 118.10707 207.481883 118.510019 206.509078 118.510019 205.494872 
C 118.510019 204.480665 118.10707 203.507861 117.389918 202.790708 
C 116.672765 202.073556 115.699961 201.670607 114.685754 201.670607 
C 113.671547 201.670607 112.698743 202.073556 111.981591 202.790708 
C 111.264438 203.507861 110.86149 204.480665 110.86149 205.494872 
C 110.86149 206.509078 111.264438 207.481883 111.981591 208.199035 
C 112.698743 208.916188 113.671547 209.319136 114.685754 209.319136 
z
" clip-path="url(#p3ba44add33)" style="fill: #414487; stroke: #ffffff; stroke-width: 0.339411"/>
    <path d="M 144.816745 193.446935 
C 145.830952 193.446935 146.803756 193.043986 147.520908 192.326834 
C 148.238061 191.609681 148.64101 190.636877 148.64101 189.62267 
C 148.64101 188.608463 148.238061 187.635659 147.520908 186.918507 
C 146.803756 186.201354 145.830952 185.798406 144.816745 185.798406 
C 143.802538 185.798406 142.829734 186.201354 142.112582 186.918507 
C 141.395429 187.635659 140.99248 188.608463 140.99248 189.62267 
C 140.99248 190.636877 141.395429 191.609681 142.112582 192.326834 
C 142.829734 193.043986 143.802538 193.446935 144.816745 193.446935 
z
" clip-path="url(#p3ba44add33)" style="fill: #2a788e; stroke: #ffffff; stroke-width: 0.339411"/>
    <path d="M 174.947736 177.574733 
C 175.961943 177.574733 176.934747 177.171785 177.651899 176.454632 
C 178.369052 175.73748 178.772 174.764676 178.772 173.750469 
C 178.772 172.736262 178.369052 171.763458 177.651899 171.046305 
C 176.934747 170.329153 175.961943 169.926204 174.947736 169.926204 
C 173.933529 169.926204 172.960725 170.329153 172.243572 171.046305 
C 171.52642 171.763458 171.123471 172.736262 171.123471 173.750469 
C 171.123471 174.764676 171.52642 175.73748 172.243572 176.454632 
C 172.960725 177.171785 173.933529 177.574733 174.947736 177.574733 
z
" clip-path="url(#p3ba44add33)" style="fill: #22a884; stroke: #ffffff; stroke-width: 0.339411"/>
    <path d="M 207.589801 160.379765 
C 208.604008 160.379765 209.576812 159.976816 210.293965 159.259664 
C 211.011117 158.542511 211.414066 157.569707 211.414066 156.5555 
C 211.414066 155.541293 211.011117 154.568489 210.293965 153.851337 
C 209.576812 153.134184 208.604008 152.731236 207.589801 152.731236 
C 206.575594 152.731236 205.60279 153.134184 204.885638 153.851337 
C 204.168485 154.568489 203.765536 155.541293 203.765536 156.5555 
C 203.765536 157.569707 204.168485 158.542511 204.885638 159.259664 
C 205.60279 159.976816 206.575594 160.379765 207.589801 160.379765 
z
" clip-path="url(#p3ba44add33)" style="fill: #7ad151; stroke: #ffffff; stroke-width: 0.339411"/>
    <path d="M 264.623595 130.335885 
C 265.637802 130.335885 266.610606 129.932936 267.327758 129.215784 
C 268.044911 128.498631 268.44786 127.525827 268.44786 126.51162 
C 268.44786 125.497414 268.044911 124.52461 267.327758 123.807457 
C 266.610606 123.090304 265.637802 122.687356 264.623595 122.687356 
C 263.609388 122.687356 262.636584 123.090304 261.919432 123.807457 
C 261.202279 124.52461 260.79933 125.497414 260.79933 126.51162 
C 260.79933 127.525827 261.202279 128.498631 261.919432 129.215784 
C 262.636584 129.932936 263.609388 130.335885 264.623595 130.335885 
z
" clip-path="url(#p3ba44add33)" style="fill: #fde725; stroke: #ffffff; stroke-width: 0.339411"/>
    <path d="M 81.792114 221.596347 
C 82.681632 221.596347 83.534837 221.242937 84.163822 220.613953 
C 84.792806 219.984969 85.146216 219.131763 85.146216 218.242245 
C 85.146216 217.352726 84.792806 216.499521 84.163822 215.870536 
C 83.534837 215.241552 82.681632 214.888143 81.792114 214.888143 
C 80.902595 214.888143 80.04939 215.241552 79.420405 215.870536 
C 78.791421 216.499521 78.438012 217.352726 78.438012 218.242245 
C 78.438012 219.131763 78.791421 219.984969 79.420405 220.613953 
C 80.04939 221.242937 80.902595 221.596347 81.792114 221.596347 
z
" clip-path="url(#p3ba44add33)" style="fill: #440154; stroke: #ffffff; stroke-width: 0.339411"/>
    <path d="M 114.685754 200.833113 
C 115.575273 200.833113 116.428478 200.479703 117.057463 199.850719 
C 117.686447 199.221735 118.039856 198.368529 118.039856 197.479011 
C 118.039856 196.589493 117.686447 195.736287 117.057463 195.107303 
C 116.428478 194.478318 115.575273 194.124909 114.685754 194.124909 
C 113.796236 194.124909 112.94303 194.478318 112.314046 195.107303 
C 111.685062 195.736287 111.331652 196.589493 111.331652 197.479011 
C 111.331652 198.368529 111.685062 199.221735 112.314046 199.850719 
C 112.94303 200.479703 113.796236 200.833113 114.685754 200.833113 
z
" clip-path="url(#p3ba44add33)" style="fill: #414487; stroke: #ffffff; stroke-width: 0.339411"/>
    <path d="M 144.816745 181.813728 
C 145.706263 181.813728 146.559469 181.460319 147.188453 180.831334 
C 147.817438 180.20235 148.170847 179.349144 148.170847 178.459626 
C 148.170847 177.570108 147.817438 176.716902 147.188453 176.087918 
C 146.559469 175.458934 145.706263 175.105524 144.816745 175.105524 
C 143.927227 175.105524 143.074021 175.458934 142.445037 176.087918 
C 141.816052 176.716902 141.462643 177.570108 141.462643 178.459626 
C 141.462643 179.349144 141.816052 180.20235 142.445037 180.831334 
C 143.074021 181.460319 143.927227 181.813728 144.816745 181.813728 
z
" clip-path="url(#p3ba44add33)" style="fill: #2a788e; stroke: #ffffff; stroke-width: 0.339411"/>
    <path d="M 174.947736 162.794343 
C 175.837254 162.794343 176.69046 162.440934 177.319444 161.81195 
C 177.948428 161.182965 178.301838 160.32976 178.301838 159.440242 
C 178.301838 158.550723 177.948428 157.697518 177.319444 157.068533 
C 176.69046 156.439549 175.837254 156.08614 174.947736 156.08614 
C 174.058217 156.08614 173.205012 156.439549 172.576027 157.068533 
C 171.947043 157.697518 171.593634 158.550723 171.593634 159.440242 
C 171.593634 160.32976 171.947043 161.182965 172.576027 161.81195 
C 173.205012 162.440934 174.058217 162.794343 174.947736 162.794343 
z
" clip-path="url(#p3ba44add33)" style="fill: #22a884; stroke: #ffffff; stroke-width: 0.339411"/>
    <path d="M 207.589801 142.18991 
C 208.479319 142.18991 209.332525 141.836501 209.961509 141.207516 
C 210.590494 140.578532 210.943903 139.725326 210.943903 138.835808 
C 210.943903 137.94629 210.590494 137.093084 209.961509 136.4641 
C 209.332525 135.835115 208.479319 135.481706 207.589801 135.481706 
C 206.700283 135.481706 205.847077 135.835115 205.218093 136.4641 
C 204.589108 137.093084 204.235699 137.94629 204.235699 138.835808 
C 204.235699 139.725326 204.589108 140.578532 205.218093 141.207516 
C 205.847077 141.836501 206.700283 142.18991 207.589801 142.18991 
z
" clip-path="url(#p3ba44add33)" style="fill: #7ad151; stroke: #ffffff; stroke-width: 0.339411"/>
    <path d="M 264.623595 106.188848 
C 265.513113 106.188848 266.366319 105.835438 266.995303 105.206454 
C 267.624288 104.57747 267.977697 103.724264 267.977697 102.834746 
C 267.977697 101.945228 267.624288 101.092022 266.995303 100.463038 
C 266.366319 99.834053 265.513113 99.480644 264.623595 99.480644 
C 263.734077 99.480644 262.880871 99.834053 262.251887 100.463038 
C 261.622902 101.092022 261.269493 101.945228 261.269493 102.834746 
C 261.269493 103.724264 261.622902 104.57747 262.251887 105.206454 
C 262.880871 105.835438 263.734077 106.188848 264.623595 106.188848 
z
" clip-path="url(#p3ba44add33)" style="fill: #fde725; stroke: #ffffff; stroke-width: 0.339411"/>
    <path d="M 81.792114 217.495688 
C 82.536338 217.495688 83.250181 217.200005 83.776427 216.673759 
C 84.302673 216.147512 84.598357 215.433669 84.598357 214.689445 
C 84.598357 213.945221 84.302673 213.231378 83.776427 212.705132 
C 83.250181 212.178885 82.536338 211.883202 81.792114 211.883202 
C 81.047889 211.883202 80.334046 212.178885 79.8078 212.705132 
C 79.281554 213.231378 78.98587 213.945221 78.98587 214.689445 
C 78.98587 215.433669 79.281554 216.147512 79.8078 216.673759 
C 80.334046 217.200005 81.047889 217.495688 81.792114 217.495688 
z
" clip-path="url(#p3ba44add33)" style="fill: #440154; stroke: #ffffff; stroke-width: 0.339411"/>
    <path d="M 114.685754 193.529311 
C 115.429979 193.529311 116.143822 193.233627 116.670068 192.707381 
C 117.196314 192.181135 117.491997 191.467292 117.491997 190.723068 
C 117.491997 189.978843 117.196314 189.265 116.670068 188.738754 
C 116.143822 188.212508 115.429979 187.916825 114.685754 187.916825 
C 113.94153 187.916825 113.227687 188.212508 112.701441 188.738754 
C 112.175195 189.265 111.879511 189.978843 111.879511 190.723068 
C 111.879511 191.467292 112.175195 192.181135 112.701441 192.707381 
C 113.227687 193.233627 113.94153 193.529311 114.685754 193.529311 
z
" clip-path="url(#p3ba44add33)" style="fill: #414487; stroke: #ffffff; stroke-width: 0.339411"/>
    <path d="M 144.816745 171.575806 
C 145.560969 171.575806 146.274812 171.280123 146.801059 170.753876 
C 147.327305 170.22763 147.622988 169.513787 147.622988 168.769563 
C 147.622988 168.025339 147.327305 167.311496 146.801059 166.78525 
C 146.274812 166.259003 145.560969 165.96332 144.816745 165.96332 
C 144.072521 165.96332 143.358678 166.259003 142.832432 166.78525 
C 142.306185 167.311496 142.010502 168.025339 142.010502 168.769563 
C 142.010502 169.513787 142.306185 170.22763 142.832432 170.753876 
C 143.358678 171.280123 144.072521 171.575806 144.816745 171.575806 
z
" clip-path="url(#p3ba44add33)" style="fill: #2a788e; stroke: #ffffff; stroke-width: 0.339411"/>
    <path d="M 174.947736 149.622301 
C 175.69196 149.622301 176.405803 149.326618 176.932049 148.800372 
C 177.458295 148.274126 177.753979 147.560283 177.753979 146.816058 
C 177.753979 146.071834 177.458295 145.357991 176.932049 144.831745 
C 176.405803 144.305499 175.69196 144.009815 174.947736 144.009815 
C 174.203511 144.009815 173.489668 144.305499 172.963422 144.831745 
C 172.437176 145.357991 172.141493 146.071834 172.141493 146.816058 
C 172.141493 147.560283 172.437176 148.274126 172.963422 148.800372 
C 173.489668 149.326618 174.203511 149.622301 174.947736 149.622301 
z
" clip-path="url(#p3ba44add33)" style="fill: #22a884; stroke: #ffffff; stroke-width: 0.339411"/>
    <path d="M 207.589801 125.839222 
C 208.334025 125.839222 209.047868 125.543539 209.574115 125.017293 
C 210.100361 124.491047 210.396044 123.777204 210.396044 123.032979 
C 210.396044 122.288755 210.100361 121.574912 209.574115 121.048666 
C 209.047868 120.52242 208.334025 120.226736 207.589801 120.226736 
C 206.845577 120.226736 206.131734 120.52242 205.605488 121.048666 
C 205.079241 121.574912 204.783558 122.288755 204.783558 123.032979 
C 204.783558 123.777204 205.079241 124.491047 205.605488 125.017293 
C 206.131734 125.543539 206.845577 125.839222 207.589801 125.839222 
z
" clip-path="url(#p3ba44add33)" style="fill: #7ad151; stroke: #ffffff; stroke-width: 0.339411"/>
    <path d="M 264.623595 84.284277 
C 265.367819 84.284277 266.081662 83.988594 266.607909 83.462348 
C 267.134155 82.936102 267.429838 82.222259 267.429838 81.478034 
C 267.429838 80.73381 267.134155 80.019967 266.607909 79.493721 
C 266.081662 78.967475 265.367819 78.671791 264.623595 78.671791 
C 263.879371 78.671791 263.165528 78.967475 262.639282 79.493721 
C 262.113035 80.019967 261.817352 80.73381 261.817352 81.478034 
C 261.817352 82.222259 262.113035 82.936102 262.639282 83.462348 
C 263.165528 83.988594 263.879371 84.284277 264.623595 84.284277 
z
" clip-path="url(#p3ba44add33)" style="fill: #fde725; stroke: #ffffff; stroke-width: 0.339411"/>
    <path d="M 81.792114 210.846098 
C 82.354694 210.846098 82.894309 210.622582 83.292114 210.224777 
C 83.689918 209.826973 83.913434 209.287358 83.913434 208.724777 
C 83.913434 208.162197 83.689918 207.622582 83.292114 207.224777 
C 82.894309 206.826973 82.354694 206.603457 81.792114 206.603457 
C 81.229533 206.603457 80.689918 206.826973 80.292114 207.224777 
C 79.894309 207.622582 79.670793 208.162197 79.670793 208.724777 
C 79.670793 209.287358 79.894309 209.826973 80.292114 210.224777 
C 80.689918 210.622582 81.229533 210.846098 81.792114 210.846098 
z
" clip-path="url(#p3ba44add33)" style="fill: #440154; stroke: #ffffff; stroke-width: 0.339411"/>
    <path d="M 114.685754 181.679469 
C 115.248335 181.679469 115.78795 181.455953 116.185754 181.058148 
C 116.583559 180.660344 116.807075 180.120729 116.807075 179.558148 
C 116.807075 178.995568 116.583559 178.455953 116.185754 178.058148 
C 115.78795 177.660344 115.248335 177.436828 114.685754 177.436828 
C 114.123174 177.436828 113.583559 177.660344 113.185754 178.058148 
C 112.78795 178.455953 112.564434 178.995568 112.564434 179.558148 
C 112.564434 180.120729 112.78795 180.660344 113.185754 181.058148 
C 113.583559 181.455953 114.123174 181.679469 114.685754 181.679469 
z
" clip-path="url(#p3ba44add33)" style="fill: #414487; stroke: #ffffff; stroke-width: 0.339411"/>
    <path d="M 144.816745 154.962468 
C 145.379326 154.962468 145.91894 154.738952 146.316745 154.341147 
C 146.71455 153.943343 146.938065 153.403728 146.938065 152.841147 
C 146.938065 152.278567 146.71455 151.738952 146.316745 151.341147 
C 145.91894 150.943343 145.379326 150.719827 144.816745 150.719827 
C 144.254164 150.719827 143.71455 150.943343 143.316745 151.341147 
C 142.91894 151.738952 142.695425 152.278567 142.695425 152.841147 
C 142.695425 153.403728 142.91894 153.943343 143.316745 154.341147 
C 143.71455 154.738952 144.254164 154.962468 144.816745 154.962468 
z
" clip-path="url(#p3ba44add33)" style="fill: #2a788e; stroke: #ffffff; stroke-width: 0.339411"/>
    <path d="M 174.947736 128.245467 
C 175.510316 128.245467 176.049931 128.021951 176.447736 127.624147 
C 176.84554 127.226342 177.069056 126.686727 177.069056 126.124147 
C 177.069056 125.561566 176.84554 125.021951 176.447736 124.624147 
C 176.049931 124.226342 175.510316 124.002826 174.947736 124.002826 
C 174.385155 124.002826 173.84554 124.226342 173.447736 124.624147 
C 173.049931 125.021951 172.826415 125.561566 172.826415 126.124147 
C 172.826415 126.686727 173.049931 127.226342 173.447736 127.624147 
C 173.84554 128.021951 174.385155 128.245467 174.947736 128.245467 
z
" clip-path="url(#p3ba44add33)" style="fill: #22a884; stroke: #ffffff; stroke-width: 0.339411"/>
    <path d="M 207.589801 99.301908 
C 208.152382 99.301908 208.691996 99.078393 209.089801 98.680588 
C 209.487606 98.282783 209.711121 97.743169 209.711121 97.180588 
C 209.711121 96.618007 209.487606 96.078393 209.089801 95.680588 
C 208.691996 95.282783 208.152382 95.059268 207.589801 95.059268 
C 207.02722 95.059268 206.487606 95.282783 206.089801 95.680588 
C 205.691996 96.078393 205.468481 96.618007 205.468481 97.180588 
C 205.468481 97.743169 205.691996 98.282783 206.089801 98.680588 
C 206.487606 99.078393 207.02722 99.301908 207.589801 99.301908 
z
" clip-path="url(#p3ba44add33)" style="fill: #7ad151; stroke: #ffffff; stroke-width: 0.339411"/>
    <path d="M 264.623595 48.730324 
C 265.186176 48.730324 265.72579 48.506809 266.123595 48.109004 
C 266.5214 47.711199 266.744915 47.171585 266.744915 46.609004 
C 266.744915 46.046423 266.5214 45.506809 266.123595 45.109004 
C 265.72579 44.711199 265.186176 44.487684 264.623595 44.487684 
C 264.061014 44.487684 263.5214 44.711199 263.123595 45.109004 
C 262.72579 45.506809 262.502275 46.046423 262.502275 46.609004 
C 262.502275 47.171585 262.72579 47.711199 263.123595 48.109004 
C 263.5214 48.506809 264.061014 48.730324 264.623595 48.730324 
z
" clip-path="url(#p3ba44add33)" style="fill: #fde725; stroke: #ffffff; stroke-width: 0.339411"/>
   </g>
   <g id="PathCollection_2"/>
   <g id="PathCollection_3"/>
   <g id="PathCollection_4"/>
   <g id="PathCollection_5"/>
   <g id="PathCollection_6"/>
   <g id="PathCollection_7"/>
   <g id="PathCollection_8"/>
   <g id="PathCollection_9"/>
   <g id="PathCollection_10"/>
   <g id="PathCollection_11"/>
   <g id="PathCollection_12"/>
   <g id="matplotlib.axis_1">
    <g id="xtick_1">
     <g id="line2d_1">
      <defs>
       <path id="m5f4f8b9179" d="M 0 0 
L 0 3.5 
" style="stroke: #000000; stroke-width: 0.8"/>
      </defs>
      <g>
       <use xlink:href="#m5f4f8b9179" x="72" y="256.32" style="stroke: #000000; stroke-width: 0.8"/>
      </g>
     </g>
     <g id="text_1">
      <!-- 0 -->
      <g transform="translate(68.81875 270.918437) scale(0.1 -0.1)">
       <defs>
        <path id="DejaVuSans-30" d="M 2034 4250 
Q 1547 4250 1301 3770 
Q 1056 3291 1056 2328 
Q 1056 1369 1301 889 
Q 1547 409 2034 409 
Q 2525 409 2770 889 
Q 3016 1369 3016 2328 
Q 3016 3291 2770 3770 
Q 2525 4250 2034 4250 
z
M 2034 4750 
Q 2819 4750 3233 4129 
Q 3647 3509 3647 2328 
Q 3647 1150 3233 529 
Q 2819 -91 2034 -91 
Q 1250 -91 836 529 
Q 422 1150 422 2328 
Q 422 3509 836 4129 
Q 1250 4750 2034 4750 
z
" transform="scale(0.015625)"/>
       </defs>
       <use xlink:href="#DejaVuSans-30"/>
      </g>
     </g>
    </g>
    <g id="xtick_2">
     <g id="line2d_2">
      <g>
       <use xlink:href="#m5f4f8b9179" x="105.818182" y="256.32" style="stroke: #000000; stroke-width: 0.8"/>
      </g>
     </g>
     <g id="text_2">
      <!-- 250 -->
      <g transform="translate(96.274432 270.918437) scale(0.1 -0.1)">
       <defs>
        <path id="DejaVuSans-32" d="M 1228 531 
L 3431 531 
L 3431 0 
L 469 0 
L 469 531 
Q 828 903 1448 1529 
Q 2069 2156 2228 2338 
Q 2531 2678 2651 2914 
Q 2772 3150 2772 3378 
Q 2772 3750 2511 3984 
Q 2250 4219 1831 4219 
Q 1534 4219 1204 4116 
Q 875 4013 500 3803 
L 500 4441 
Q 881 4594 1212 4672 
Q 1544 4750 1819 4750 
Q 2544 4750 2975 4387 
Q 3406 4025 3406 3419 
Q 3406 3131 3298 2873 
Q 3191 2616 2906 2266 
Q 2828 2175 2409 1742 
Q 1991 1309 1228 531 
z
" transform="scale(0.015625)"/>
        <path id="DejaVuSans-35" d="M 691 4666 
L 3169 4666 
L 3169 4134 
L 1269 4134 
L 1269 2991 
Q 1406 3038 1543 3061 
Q 1681 3084 1819 3084 
Q 2600 3084 3056 2656 
Q 3513 2228 3513 1497 
Q 3513 744 3044 326 
Q 2575 -91 1722 -91 
Q 1428 -91 1123 -41 
Q 819 9 494 109 
L 494 744 
Q 775 591 1075 516 
Q 1375 441 1709 441 
Q 2250 441 2565 725 
Q 2881 1009 2881 1497 
Q 2881 1984 2565 2268 
Q 2250 2553 1709 2553 
Q 1456 2553 1204 2497 
Q 953 2441 691 2322 
L 691 4666 
z
" transform="scale(0.015625)"/>
       </defs>
       <use xlink:href="#DejaVuSans-32"/>
       <use xlink:href="#DejaVuSans-35" x="63.623047"/>
       <use xlink:href="#DejaVuSans-30" x="127.246094"/>
      </g>
     </g>
    </g>
    <g id="xtick_3">
     <g id="line2d_3">
      <g>
       <use xlink:href="#m5f4f8b9179" x="139.636364" y="256.32" style="stroke: #000000; stroke-width: 0.8"/>
      </g>
     </g>
     <g id="text_3">
      <!-- 500 -->
      <g transform="translate(130.092614 270.918437) scale(0.1 -0.1)">
       <use xlink:href="#DejaVuSans-35"/>
       <use xlink:href="#DejaVuSans-30" x="63.623047"/>
       <use xlink:href="#DejaVuSans-30" x="127.246094"/>
      </g>
     </g>
    </g>
    <g id="xtick_4">
     <g id="line2d_4">
      <g>
       <use xlink:href="#m5f4f8b9179" x="173.454545" y="256.32" style="stroke: #000000; stroke-width: 0.8"/>
      </g>
     </g>
     <g id="text_4">
      <!-- 750 -->
      <g transform="translate(163.910795 270.918437) scale(0.1 -0.1)">
       <defs>
        <path id="DejaVuSans-37" d="M 525 4666 
L 3525 4666 
L 3525 4397 
L 1831 0 
L 1172 0 
L 2766 4134 
L 525 4134 
L 525 4666 
z
" transform="scale(0.015625)"/>
       </defs>
       <use xlink:href="#DejaVuSans-37"/>
       <use xlink:href="#DejaVuSans-35" x="63.623047"/>
       <use xlink:href="#DejaVuSans-30" x="127.246094"/>
      </g>
     </g>
    </g>
    <g id="xtick_5">
     <g id="line2d_5">
      <g>
       <use xlink:href="#m5f4f8b9179" x="207.272727" y="256.32" style="stroke: #000000; stroke-width: 0.8"/>
      </g>
     </g>
     <g id="text_5">
      <!-- 1000 -->
      <g transform="translate(194.547727 270.918437) scale(0.1 -0.1)">
       <defs>
        <path id="DejaVuSans-31" d="M 794 531 
L 1825 531 
L 1825 4091 
L 703 3866 
L 703 4441 
L 1819 4666 
L 2450 4666 
L 2450 531 
L 3481 531 
L 3481 0 
L 794 0 
L 794 531 
z
" transform="scale(0.015625)"/>
       </defs>
       <use xlink:href="#DejaVuSans-31"/>
       <use xlink:href="#DejaVuSans-30" x="63.623047"/>
       <use xlink:href="#DejaVuSans-30" x="127.246094"/>
       <use xlink:href="#DejaVuSans-30" x="190.869141"/>
      </g>
     </g>
    </g>
    <g id="xtick_6">
     <g id="line2d_6">
      <g>
       <use xlink:href="#m5f4f8b9179" x="241.090909" y="256.32" style="stroke: #000000; stroke-width: 0.8"/>
      </g>
     </g>
     <g id="text_6">
      <!-- 1250 -->
      <g transform="translate(228.365909 270.918437) scale(0.1 -0.1)">
       <use xlink:href="#DejaVuSans-31"/>
       <use xlink:href="#DejaVuSans-32" x="63.623047"/>
       <use xlink:href="#DejaVuSans-35" x="127.246094"/>
       <use xlink:href="#DejaVuSans-30" x="190.869141"/>
      </g>
     </g>
    </g>
    <g id="xtick_7">
     <g id="line2d_7">
      <g>
       <use xlink:href="#m5f4f8b9179" x="274.909091" y="256.32" style="stroke: #000000; stroke-width: 0.8"/>
      </g>
     </g>
     <g id="text_7">
      <!-- 1500 -->
      <g transform="translate(262.184091 270.918437) scale(0.1 -0.1)">
       <use xlink:href="#DejaVuSans-31"/>
       <use xlink:href="#DejaVuSans-35" x="63.623047"/>
       <use xlink:href="#DejaVuSans-30" x="127.246094"/>
       <use xlink:href="#DejaVuSans-30" x="190.869141"/>
      </g>
     </g>
    </g>
    <g id="text_8">
     <!-- Additional CO2 emissions from 2020 (GtCO2) -->
     <g transform="translate(60.330327 284.596563) scale(0.1 -0.1)">
      <defs>
       <path id="DejaVuSans-41" d="M 2188 4044 
L 1331 1722 
L 3047 1722 
L 2188 4044 
z
M 1831 4666 
L 2547 4666 
L 4325 0 
L 3669 0 
L 3244 1197 
L 1141 1197 
L 716 0 
L 50 0 
L 1831 4666 
z
" transform="scale(0.015625)"/>
       <path id="DejaVuSans-64" d="M 2906 2969 
L 2906 4863 
L 3481 4863 
L 3481 0 
L 2906 0 
L 2906 525 
Q 2725 213 2448 61 
Q 2172 -91 1784 -91 
Q 1150 -91 751 415 
Q 353 922 353 1747 
Q 353 2572 751 3078 
Q 1150 3584 1784 3584 
Q 2172 3584 2448 3432 
Q 2725 3281 2906 2969 
z
M 947 1747 
Q 947 1113 1208 752 
Q 1469 391 1925 391 
Q 2381 391 2643 752 
Q 2906 1113 2906 1747 
Q 2906 2381 2643 2742 
Q 2381 3103 1925 3103 
Q 1469 3103 1208 2742 
Q 947 2381 947 1747 
z
" transform="scale(0.015625)"/>
       <path id="DejaVuSans-69" d="M 603 3500 
L 1178 3500 
L 1178 0 
L 603 0 
L 603 3500 
z
M 603 4863 
L 1178 4863 
L 1178 4134 
L 603 4134 
L 603 4863 
z
" transform="scale(0.015625)"/>
       <path id="DejaVuSans-74" d="M 1172 4494 
L 1172 3500 
L 2356 3500 
L 2356 3053 
L 1172 3053 
L 1172 1153 
Q 1172 725 1289 603 
Q 1406 481 1766 481 
L 2356 481 
L 2356 0 
L 1766 0 
Q 1100 0 847 248 
Q 594 497 594 1153 
L 594 3053 
L 172 3053 
L 172 3500 
L 594 3500 
L 594 4494 
L 1172 4494 
z
" transform="scale(0.015625)"/>
       <path id="DejaVuSans-6f" d="M 1959 3097 
Q 1497 3097 1228 2736 
Q 959 2375 959 1747 
Q 959 1119 1226 758 
Q 1494 397 1959 397 
Q 2419 397 2687 759 
Q 2956 1122 2956 1747 
Q 2956 2369 2687 2733 
Q 2419 3097 1959 3097 
z
M 1959 3584 
Q 2709 3584 3137 3096 
Q 3566 2609 3566 1747 
Q 3566 888 3137 398 
Q 2709 -91 1959 -91 
Q 1206 -91 779 398 
Q 353 888 353 1747 
Q 353 2609 779 3096 
Q 1206 3584 1959 3584 
z
" transform="scale(0.015625)"/>
       <path id="DejaVuSans-6e" d="M 3513 2113 
L 3513 0 
L 2938 0 
L 2938 2094 
Q 2938 2591 2744 2837 
Q 2550 3084 2163 3084 
Q 1697 3084 1428 2787 
Q 1159 2491 1159 1978 
L 1159 0 
L 581 0 
L 581 3500 
L 1159 3500 
L 1159 2956 
Q 1366 3272 1645 3428 
Q 1925 3584 2291 3584 
Q 2894 3584 3203 3211 
Q 3513 2838 3513 2113 
z
" transform="scale(0.015625)"/>
       <path id="DejaVuSans-61" d="M 2194 1759 
Q 1497 1759 1228 1600 
Q 959 1441 959 1056 
Q 959 750 1161 570 
Q 1363 391 1709 391 
Q 2188 391 2477 730 
Q 2766 1069 2766 1631 
L 2766 1759 
L 2194 1759 
z
M 3341 1997 
L 3341 0 
L 2766 0 
L 2766 531 
Q 2569 213 2275 61 
Q 1981 -91 1556 -91 
Q 1019 -91 701 211 
Q 384 513 384 1019 
Q 384 1609 779 1909 
Q 1175 2209 1959 2209 
L 2766 2209 
L 2766 2266 
Q 2766 2663 2505 2880 
Q 2244 3097 1772 3097 
Q 1472 3097 1187 3025 
Q 903 2953 641 2809 
L 641 3341 
Q 956 3463 1253 3523 
Q 1550 3584 1831 3584 
Q 2591 3584 2966 3190 
Q 3341 2797 3341 1997 
z
" transform="scale(0.015625)"/>
       <path id="DejaVuSans-6c" d="M 603 4863 
L 1178 4863 
L 1178 0 
L 603 0 
L 603 4863 
z
" transform="scale(0.015625)"/>
       <path id="DejaVuSans-20" transform="scale(0.015625)"/>
       <path id="DejaVuSans-43" d="M 4122 4306 
L 4122 3641 
Q 3803 3938 3442 4084 
Q 3081 4231 2675 4231 
Q 1875 4231 1450 3742 
Q 1025 3253 1025 2328 
Q 1025 1406 1450 917 
Q 1875 428 2675 428 
Q 3081 428 3442 575 
Q 3803 722 4122 1019 
L 4122 359 
Q 3791 134 3420 21 
Q 3050 -91 2638 -91 
Q 1578 -91 968 557 
Q 359 1206 359 2328 
Q 359 3453 968 4101 
Q 1578 4750 2638 4750 
Q 3056 4750 3426 4639 
Q 3797 4528 4122 4306 
z
" transform="scale(0.015625)"/>
       <path id="DejaVuSans-4f" d="M 2522 4238 
Q 1834 4238 1429 3725 
Q 1025 3213 1025 2328 
Q 1025 1447 1429 934 
Q 1834 422 2522 422 
Q 3209 422 3611 934 
Q 4013 1447 4013 2328 
Q 4013 3213 3611 3725 
Q 3209 4238 2522 4238 
z
M 2522 4750 
Q 3503 4750 4090 4092 
Q 4678 3434 4678 2328 
Q 4678 1225 4090 567 
Q 3503 -91 2522 -91 
Q 1538 -91 948 565 
Q 359 1222 359 2328 
Q 359 3434 948 4092 
Q 1538 4750 2522 4750 
z
" transform="scale(0.015625)"/>
       <path id="DejaVuSans-65" d="M 3597 1894 
L 3597 1613 
L 953 1613 
Q 991 1019 1311 708 
Q 1631 397 2203 397 
Q 2534 397 2845 478 
Q 3156 559 3463 722 
L 3463 178 
Q 3153 47 2828 -22 
Q 2503 -91 2169 -91 
Q 1331 -91 842 396 
Q 353 884 353 1716 
Q 353 2575 817 3079 
Q 1281 3584 2069 3584 
Q 2775 3584 3186 3129 
Q 3597 2675 3597 1894 
z
M 3022 2063 
Q 3016 2534 2758 2815 
Q 2500 3097 2075 3097 
Q 1594 3097 1305 2825 
Q 1016 2553 972 2059 
L 3022 2063 
z
" transform="scale(0.015625)"/>
       <path id="DejaVuSans-6d" d="M 3328 2828 
Q 3544 3216 3844 3400 
Q 4144 3584 4550 3584 
Q 5097 3584 5394 3201 
Q 5691 2819 5691 2113 
L 5691 0 
L 5113 0 
L 5113 2094 
Q 5113 2597 4934 2840 
Q 4756 3084 4391 3084 
Q 3944 3084 3684 2787 
Q 3425 2491 3425 1978 
L 3425 0 
L 2847 0 
L 2847 2094 
Q 2847 2600 2669 2842 
Q 2491 3084 2119 3084 
Q 1678 3084 1418 2786 
Q 1159 2488 1159 1978 
L 1159 0 
L 581 0 
L 581 3500 
L 1159 3500 
L 1159 2956 
Q 1356 3278 1631 3431 
Q 1906 3584 2284 3584 
Q 2666 3584 2933 3390 
Q 3200 3197 3328 2828 
z
" transform="scale(0.015625)"/>
       <path id="DejaVuSans-73" d="M 2834 3397 
L 2834 2853 
Q 2591 2978 2328 3040 
Q 2066 3103 1784 3103 
Q 1356 3103 1142 2972 
Q 928 2841 928 2578 
Q 928 2378 1081 2264 
Q 1234 2150 1697 2047 
L 1894 2003 
Q 2506 1872 2764 1633 
Q 3022 1394 3022 966 
Q 3022 478 2636 193 
Q 2250 -91 1575 -91 
Q 1294 -91 989 -36 
Q 684 19 347 128 
L 347 722 
Q 666 556 975 473 
Q 1284 391 1588 391 
Q 1994 391 2212 530 
Q 2431 669 2431 922 
Q 2431 1156 2273 1281 
Q 2116 1406 1581 1522 
L 1381 1569 
Q 847 1681 609 1914 
Q 372 2147 372 2553 
Q 372 3047 722 3315 
Q 1072 3584 1716 3584 
Q 2034 3584 2315 3537 
Q 2597 3491 2834 3397 
z
" transform="scale(0.015625)"/>
       <path id="DejaVuSans-66" d="M 2375 4863 
L 2375 4384 
L 1825 4384 
Q 1516 4384 1395 4259 
Q 1275 4134 1275 3809 
L 1275 3500 
L 2222 3500 
L 2222 3053 
L 1275 3053 
L 1275 0 
L 697 0 
L 697 3053 
L 147 3053 
L 147 3500 
L 697 3500 
L 697 3744 
Q 697 4328 969 4595 
Q 1241 4863 1831 4863 
L 2375 4863 
z
" transform="scale(0.015625)"/>
       <path id="DejaVuSans-72" d="M 2631 2963 
Q 2534 3019 2420 3045 
Q 2306 3072 2169 3072 
Q 1681 3072 1420 2755 
Q 1159 2438 1159 1844 
L 1159 0 
L 581 0 
L 581 3500 
L 1159 3500 
L 1159 2956 
Q 1341 3275 1631 3429 
Q 1922 3584 2338 3584 
Q 2397 3584 2469 3576 
Q 2541 3569 2628 3553 
L 2631 2963 
z
" transform="scale(0.015625)"/>
       <path id="DejaVuSans-28" d="M 1984 4856 
Q 1566 4138 1362 3434 
Q 1159 2731 1159 2009 
Q 1159 1288 1364 580 
Q 1569 -128 1984 -844 
L 1484 -844 
Q 1016 -109 783 600 
Q 550 1309 550 2009 
Q 550 2706 781 3412 
Q 1013 4119 1484 4856 
L 1984 4856 
z
" transform="scale(0.015625)"/>
       <path id="DejaVuSans-47" d="M 3809 666 
L 3809 1919 
L 2778 1919 
L 2778 2438 
L 4434 2438 
L 4434 434 
Q 4069 175 3628 42 
Q 3188 -91 2688 -91 
Q 1594 -91 976 548 
Q 359 1188 359 2328 
Q 359 3472 976 4111 
Q 1594 4750 2688 4750 
Q 3144 4750 3555 4637 
Q 3966 4525 4313 4306 
L 4313 3634 
Q 3963 3931 3569 4081 
Q 3175 4231 2741 4231 
Q 1884 4231 1454 3753 
Q 1025 3275 1025 2328 
Q 1025 1384 1454 906 
Q 1884 428 2741 428 
Q 3075 428 3337 486 
Q 3600 544 3809 666 
z
" transform="scale(0.015625)"/>
       <path id="DejaVuSans-29" d="M 513 4856 
L 1013 4856 
Q 1481 4119 1714 3412 
Q 1947 2706 1947 2009 
Q 1947 1309 1714 600 
Q 1481 -109 1013 -844 
L 513 -844 
Q 928 -128 1133 580 
Q 1338 1288 1338 2009 
Q 1338 2731 1133 3434 
Q 928 4138 513 4856 
z
" transform="scale(0.015625)"/>
      </defs>
      <use xlink:href="#DejaVuSans-41"/>
      <use xlink:href="#DejaVuSans-64" x="66.658203"/>
      <use xlink:href="#DejaVuSans-64" x="130.134766"/>
      <use xlink:href="#DejaVuSans-69" x="193.611328"/>
      <use xlink:href="#DejaVuSans-74" x="221.394531"/>
      <use xlink:href="#DejaVuSans-69" x="260.603516"/>
      <use xlink:href="#DejaVuSans-6f" x="288.386719"/>
      <use xlink:href="#DejaVuSans-6e" x="349.568359"/>
      <use xlink:href="#DejaVuSans-61" x="412.947266"/>
      <use xlink:href="#DejaVuSans-6c" x="474.226562"/>
      <use xlink:href="#DejaVuSans-20" x="502.009766"/>
      <use xlink:href="#DejaVuSans-43" x="533.796875"/>
      <use xlink:href="#DejaVuSans-4f" x="603.621094"/>
      <use xlink:href="#DejaVuSans-32" x="682.332031"/>
      <use xlink:href="#DejaVuSans-20" x="745.955078"/>
      <use xlink:href="#DejaVuSans-65" x="777.742188"/>
      <use xlink:href="#DejaVuSans-6d" x="839.265625"/>
      <use xlink:href="#DejaVuSans-69" x="936.677734"/>
      <use xlink:href="#DejaVuSans-73" x="964.460938"/>
      <use xlink:href="#DejaVuSans-73" x="1016.560547"/>
      <use xlink:href="#DejaVuSans-69" x="1068.660156"/>
      <use xlink:href="#DejaVuSans-6f" x="1096.443359"/>
      <use xlink:href="#DejaVuSans-6e" x="1157.625"/>
      <use xlink:href="#DejaVuSans-73" x="1221.003906"/>
      <use xlink:href="#DejaVuSans-20" x="1273.103516"/>
      <use xlink:href="#DejaVuSans-66" x="1304.890625"/>
      <use xlink:href="#DejaVuSans-72" x="1340.095703"/>
      <use xlink:href="#DejaVuSans-6f" x="1378.958984"/>
      <use xlink:href="#DejaVuSans-6d" x="1440.140625"/>
      <use xlink:href="#DejaVuSans-20" x="1537.552734"/>
      <use xlink:href="#DejaVuSans-32" x="1569.339844"/>
      <use xlink:href="#DejaVuSans-30" x="1632.962891"/>
      <use xlink:href="#DejaVuSans-32" x="1696.585938"/>
      <use xlink:href="#DejaVuSans-30" x="1760.208984"/>
      <use xlink:href="#DejaVuSans-20" x="1823.832031"/>
      <use xlink:href="#DejaVuSans-28" x="1855.619141"/>
      <use xlink:href="#DejaVuSans-47" x="1894.632812"/>
      <use xlink:href="#DejaVuSans-74" x="1972.123047"/>
      <use xlink:href="#DejaVuSans-43" x="2011.332031"/>
      <use xlink:href="#DejaVuSans-4f" x="2081.15625"/>
      <use xlink:href="#DejaVuSans-32" x="2159.867188"/>
      <use xlink:href="#DejaVuSans-29" x="2223.490234"/>
     </g>
    </g>
   </g>
   <g id="matplotlib.axis_2">
    <g id="ytick_1">
     <g id="line2d_8">
      <defs>
       <path id="med31a588b4" d="M 0 0 
L -3.5 0 
" style="stroke: #000000; stroke-width: 0.8"/>
      </defs>
      <g>
       <use xlink:href="#med31a588b4" x="72" y="256.32" style="stroke: #000000; stroke-width: 0.8"/>
      </g>
     </g>
     <g id="text_9">
      <!-- 1.0 -->
      <g transform="translate(49.096875 260.119219) scale(0.1 -0.1)">
       <defs>
        <path id="DejaVuSans-2e" d="M 684 794 
L 1344 794 
L 1344 0 
L 684 0 
L 684 794 
z
" transform="scale(0.015625)"/>
       </defs>
       <use xlink:href="#DejaVuSans-31"/>
       <use xlink:href="#DejaVuSans-2e" x="63.623047"/>
       <use xlink:href="#DejaVuSans-30" x="95.410156"/>
      </g>
     </g>
    </g>
    <g id="ytick_2">
     <g id="line2d_9">
      <g>
       <use xlink:href="#med31a588b4" x="72" y="226.752" style="stroke: #000000; stroke-width: 0.8"/>
      </g>
     </g>
     <g id="text_10">
      <!-- 1.2 -->
      <g transform="translate(49.096875 230.551219) scale(0.1 -0.1)">
       <use xlink:href="#DejaVuSans-31"/>
       <use xlink:href="#DejaVuSans-2e" x="63.623047"/>
       <use xlink:href="#DejaVuSans-32" x="95.410156"/>
      </g>
     </g>
    </g>
    <g id="ytick_3">
     <g id="line2d_10">
      <g>
       <use xlink:href="#med31a588b4" x="72" y="197.184" style="stroke: #000000; stroke-width: 0.8"/>
      </g>
     </g>
     <g id="text_11">
      <!-- 1.4 -->
      <g transform="translate(49.096875 200.983219) scale(0.1 -0.1)">
       <defs>
        <path id="DejaVuSans-34" d="M 2419 4116 
L 825 1625 
L 2419 1625 
L 2419 4116 
z
M 2253 4666 
L 3047 4666 
L 3047 1625 
L 3713 1625 
L 3713 1100 
L 3047 1100 
L 3047 0 
L 2419 0 
L 2419 1100 
L 313 1100 
L 313 1709 
L 2253 4666 
z
" transform="scale(0.015625)"/>
       </defs>
       <use xlink:href="#DejaVuSans-31"/>
       <use xlink:href="#DejaVuSans-2e" x="63.623047"/>
       <use xlink:href="#DejaVuSans-34" x="95.410156"/>
      </g>
     </g>
    </g>
    <g id="ytick_4">
     <g id="line2d_11">
      <g>
       <use xlink:href="#med31a588b4" x="72" y="167.616" style="stroke: #000000; stroke-width: 0.8"/>
      </g>
     </g>
     <g id="text_12">
      <!-- 1.6 -->
      <g transform="translate(49.096875 171.415219) scale(0.1 -0.1)">
       <defs>
        <path id="DejaVuSans-36" d="M 2113 2584 
Q 1688 2584 1439 2293 
Q 1191 2003 1191 1497 
Q 1191 994 1439 701 
Q 1688 409 2113 409 
Q 2538 409 2786 701 
Q 3034 994 3034 1497 
Q 3034 2003 2786 2293 
Q 2538 2584 2113 2584 
z
M 3366 4563 
L 3366 3988 
Q 3128 4100 2886 4159 
Q 2644 4219 2406 4219 
Q 1781 4219 1451 3797 
Q 1122 3375 1075 2522 
Q 1259 2794 1537 2939 
Q 1816 3084 2150 3084 
Q 2853 3084 3261 2657 
Q 3669 2231 3669 1497 
Q 3669 778 3244 343 
Q 2819 -91 2113 -91 
Q 1303 -91 875 529 
Q 447 1150 447 2328 
Q 447 3434 972 4092 
Q 1497 4750 2381 4750 
Q 2619 4750 2861 4703 
Q 3103 4656 3366 4563 
z
" transform="scale(0.015625)"/>
       </defs>
       <use xlink:href="#DejaVuSans-31"/>
       <use xlink:href="#DejaVuSans-2e" x="63.623047"/>
       <use xlink:href="#DejaVuSans-36" x="95.410156"/>
      </g>
     </g>
    </g>
    <g id="ytick_5">
     <g id="line2d_12">
      <g>
       <use xlink:href="#med31a588b4" x="72" y="138.048" style="stroke: #000000; stroke-width: 0.8"/>
      </g>
     </g>
     <g id="text_13">
      <!-- 1.8 -->
      <g transform="translate(49.096875 141.847219) scale(0.1 -0.1)">
       <defs>
        <path id="DejaVuSans-38" d="M 2034 2216 
Q 1584 2216 1326 1975 
Q 1069 1734 1069 1313 
Q 1069 891 1326 650 
Q 1584 409 2034 409 
Q 2484 409 2743 651 
Q 3003 894 3003 1313 
Q 3003 1734 2745 1975 
Q 2488 2216 2034 2216 
z
M 1403 2484 
Q 997 2584 770 2862 
Q 544 3141 544 3541 
Q 544 4100 942 4425 
Q 1341 4750 2034 4750 
Q 2731 4750 3128 4425 
Q 3525 4100 3525 3541 
Q 3525 3141 3298 2862 
Q 3072 2584 2669 2484 
Q 3125 2378 3379 2068 
Q 3634 1759 3634 1313 
Q 3634 634 3220 271 
Q 2806 -91 2034 -91 
Q 1263 -91 848 271 
Q 434 634 434 1313 
Q 434 1759 690 2068 
Q 947 2378 1403 2484 
z
M 1172 3481 
Q 1172 3119 1398 2916 
Q 1625 2713 2034 2713 
Q 2441 2713 2670 2916 
Q 2900 3119 2900 3481 
Q 2900 3844 2670 4047 
Q 2441 4250 2034 4250 
Q 1625 4250 1398 4047 
Q 1172 3844 1172 3481 
z
" transform="scale(0.015625)"/>
       </defs>
       <use xlink:href="#DejaVuSans-31"/>
       <use xlink:href="#DejaVuSans-2e" x="63.623047"/>
       <use xlink:href="#DejaVuSans-38" x="95.410156"/>
      </g>
     </g>
    </g>
    <g id="ytick_6">
     <g id="line2d_13">
      <g>
       <use xlink:href="#med31a588b4" x="72" y="108.48" style="stroke: #000000; stroke-width: 0.8"/>
      </g>
     </g>
     <g id="text_14">
      <!-- 2.0 -->
      <g transform="translate(49.096875 112.279219) scale(0.1 -0.1)">
       <use xlink:href="#DejaVuSans-32"/>
       <use xlink:href="#DejaVuSans-2e" x="63.623047"/>
       <use xlink:href="#DejaVuSans-30" x="95.410156"/>
      </g>
     </g>
    </g>
    <g id="ytick_7">
     <g id="line2d_14">
      <g>
       <use xlink:href="#med31a588b4" x="72" y="78.912" style="stroke: #000000; stroke-width: 0.8"/>
      </g>
     </g>
     <g id="text_15">
      <!-- 2.2 -->
      <g transform="translate(49.096875 82.711219) scale(0.1 -0.1)">
       <use xlink:href="#DejaVuSans-32"/>
       <use xlink:href="#DejaVuSans-2e" x="63.623047"/>
       <use xlink:href="#DejaVuSans-32" x="95.410156"/>
      </g>
     </g>
    </g>
    <g id="ytick_8">
     <g id="line2d_15">
      <g>
       <use xlink:href="#med31a588b4" x="72" y="49.344" style="stroke: #000000; stroke-width: 0.8"/>
      </g>
     </g>
     <g id="text_16">
      <!-- 2.4 -->
      <g transform="translate(49.096875 53.143219) scale(0.1 -0.1)">
       <use xlink:href="#DejaVuSans-32"/>
       <use xlink:href="#DejaVuSans-2e" x="63.623047"/>
       <use xlink:href="#DejaVuSans-34" x="95.410156"/>
      </g>
     </g>
    </g>
    <g id="text_17">
     <!-- Temperature $(\Delta ^{\circ}$C) exceeded -->
     <g transform="translate(42.996875 218.84) rotate(-90) scale(0.1 -0.1)">
      <defs>
       <path id="DejaVuSans-54" d="M -19 4666 
L 3928 4666 
L 3928 4134 
L 2272 4134 
L 2272 0 
L 1638 0 
L 1638 4134 
L -19 4134 
L -19 4666 
z
" transform="scale(0.015625)"/>
       <path id="DejaVuSans-70" d="M 1159 525 
L 1159 -1331 
L 581 -1331 
L 581 3500 
L 1159 3500 
L 1159 2969 
Q 1341 3281 1617 3432 
Q 1894 3584 2278 3584 
Q 2916 3584 3314 3078 
Q 3713 2572 3713 1747 
Q 3713 922 3314 415 
Q 2916 -91 2278 -91 
Q 1894 -91 1617 61 
Q 1341 213 1159 525 
z
M 3116 1747 
Q 3116 2381 2855 2742 
Q 2594 3103 2138 3103 
Q 1681 3103 1420 2742 
Q 1159 2381 1159 1747 
Q 1159 1113 1420 752 
Q 1681 391 2138 391 
Q 2594 391 2855 752 
Q 3116 1113 3116 1747 
z
" transform="scale(0.015625)"/>
       <path id="DejaVuSans-75" d="M 544 1381 
L 544 3500 
L 1119 3500 
L 1119 1403 
Q 1119 906 1312 657 
Q 1506 409 1894 409 
Q 2359 409 2629 706 
Q 2900 1003 2900 1516 
L 2900 3500 
L 3475 3500 
L 3475 0 
L 2900 0 
L 2900 538 
Q 2691 219 2414 64 
Q 2138 -91 1772 -91 
Q 1169 -91 856 284 
Q 544 659 544 1381 
z
M 1991 3584 
L 1991 3584 
z
" transform="scale(0.015625)"/>
       <path id="DejaVuSans-394" d="M 2188 4044 
L 906 525 
L 3472 525 
L 2188 4044 
z
M 50 0 
L 1831 4666 
L 2547 4666 
L 4325 0 
L 50 0 
z
" transform="scale(0.015625)"/>
       <path id="DejaVuSans-2218" d="M 2000 2619 
Q 1750 2619 1578 2445 
Q 1406 2272 1406 2022 
Q 1406 1775 1578 1605 
Q 1750 1435 2000 1435 
Q 2250 1435 2422 1605 
Q 2594 1775 2594 2022 
Q 2594 2269 2420 2444 
Q 2247 2619 2000 2619 
z
M 2000 3022 
Q 2200 3022 2384 2945 
Q 2569 2869 2703 2725 
Q 2847 2585 2919 2406 
Q 2991 2228 2991 2022 
Q 2991 1610 2702 1324 
Q 2413 1038 1994 1038 
Q 1572 1038 1290 1319 
Q 1009 1600 1009 2022 
Q 1009 2441 1296 2731 
Q 1584 3022 2000 3022 
z
" transform="scale(0.015625)"/>
       <path id="DejaVuSans-78" d="M 3513 3500 
L 2247 1797 
L 3578 0 
L 2900 0 
L 1881 1375 
L 863 0 
L 184 0 
L 1544 1831 
L 300 3500 
L 978 3500 
L 1906 2253 
L 2834 3500 
L 3513 3500 
z
" transform="scale(0.015625)"/>
       <path id="DejaVuSans-63" d="M 3122 3366 
L 3122 2828 
Q 2878 2963 2633 3030 
Q 2388 3097 2138 3097 
Q 1578 3097 1268 2742 
Q 959 2388 959 1747 
Q 959 1106 1268 751 
Q 1578 397 2138 397 
Q 2388 397 2633 464 
Q 2878 531 3122 666 
L 3122 134 
Q 2881 22 2623 -34 
Q 2366 -91 2075 -91 
Q 1284 -91 818 406 
Q 353 903 353 1747 
Q 353 2603 823 3093 
Q 1294 3584 2113 3584 
Q 2378 3584 2631 3529 
Q 2884 3475 3122 3366 
z
" transform="scale(0.015625)"/>
      </defs>
      <use xlink:href="#DejaVuSans-54" transform="translate(0 0.015625)"/>
      <use xlink:href="#DejaVuSans-65" transform="translate(61.083984 0.015625)"/>
      <use xlink:href="#DejaVuSans-6d" transform="translate(122.607422 0.015625)"/>
      <use xlink:href="#DejaVuSans-70" transform="translate(220.019531 0.015625)"/>
      <use xlink:href="#DejaVuSans-65" transform="translate(283.496094 0.015625)"/>
      <use xlink:href="#DejaVuSans-72" transform="translate(345.019531 0.015625)"/>
      <use xlink:href="#DejaVuSans-61" transform="translate(386.132812 0.015625)"/>
      <use xlink:href="#DejaVuSans-74" transform="translate(447.412109 0.015625)"/>
      <use xlink:href="#DejaVuSans-75" transform="translate(486.621094 0.015625)"/>
      <use xlink:href="#DejaVuSans-72" transform="translate(550 0.015625)"/>
      <use xlink:href="#DejaVuSans-65" transform="translate(591.113281 0.015625)"/>
      <use xlink:href="#DejaVuSans-20" transform="translate(652.636719 0.015625)"/>
      <use xlink:href="#DejaVuSans-28" transform="translate(684.423828 0.015625)"/>
      <use xlink:href="#DejaVuSans-394" transform="translate(723.4375 0.015625)"/>
      <use xlink:href="#DejaVuSans-2218" transform="translate(792.802734 38.296875) scale(0.7)"/>
      <use xlink:href="#DejaVuSans-43" transform="translate(839.355469 0.015625)"/>
      <use xlink:href="#DejaVuSans-29" transform="translate(909.179688 0.015625)"/>
      <use xlink:href="#DejaVuSans-20" transform="translate(948.193359 0.015625)"/>
      <use xlink:href="#DejaVuSans-65" transform="translate(979.980469 0.015625)"/>
      <use xlink:href="#DejaVuSans-78" transform="translate(1041.503906 0.015625)"/>
      <use xlink:href="#DejaVuSans-63" transform="translate(1100.683594 0.015625)"/>
      <use xlink:href="#DejaVuSans-65" transform="translate(1155.664062 0.015625)"/>
      <use xlink:href="#DejaVuSans-65" transform="translate(1217.1875 0.015625)"/>
      <use xlink:href="#DejaVuSans-64" transform="translate(1278.710938 0.015625)"/>
      <use xlink:href="#DejaVuSans-65" transform="translate(1342.1875 0.015625)"/>
      <use xlink:href="#DejaVuSans-64" transform="translate(1403.710938 0.015625)"/>
     </g>
    </g>
   </g>
   <g id="patch_3">
    <path d="M 72 256.32 
L 72 49.344 
" style="fill: none; stroke: #000000; stroke-width: 0.8; stroke-linejoin: miter; stroke-linecap: square"/>
   </g>
   <g id="patch_4">
    <path d="M 72 256.32 
L 274.909091 256.32 
" style="fill: none; stroke: #000000; stroke-width: 0.8; stroke-linejoin: miter; stroke-linecap: square"/>
   </g>
   <g id="legend_1">
    <g id="patch_5">
     <path d="M 332.636364 242.347812 
L 406.970739 242.347812 
Q 408.970739 242.347812 408.970739 240.347812 
L 408.970739 50.532188 
Q 408.970739 48.532188 406.970739 48.532188 
L 332.636364 48.532188 
Q 330.636364 48.532188 330.636364 50.532188 
L 330.636364 240.347812 
Q 330.636364 242.347812 332.636364 242.347812 
z
" style="fill: #ffffff; opacity: 0.8; stroke: #cccccc; stroke-linejoin: miter"/>
    </g>
    <g id="text_18">
     <!-- scenario -->
     <g transform="translate(362.636364 60.130625) scale(0.1 -0.1)">
      <use xlink:href="#DejaVuSans-73"/>
      <use xlink:href="#DejaVuSans-63" x="52.099609"/>
      <use xlink:href="#DejaVuSans-65" x="107.080078"/>
      <use xlink:href="#DejaVuSans-6e" x="168.603516"/>
      <use xlink:href="#DejaVuSans-61" x="231.982422"/>
      <use xlink:href="#DejaVuSans-72" x="293.261719"/>
      <use xlink:href="#DejaVuSans-69" x="334.375"/>
      <use xlink:href="#DejaVuSans-6f" x="362.158203"/>
     </g>
    </g>
    <g id="PathCollection_13">
     <defs>
      <path id="m9022b16c7d" d="M 0 3 
C 0.795609 3 1.55874 2.683901 2.12132 2.12132 
C 2.683901 1.55874 3 0.795609 3 0 
C 3 -0.795609 2.683901 -1.55874 2.12132 -2.12132 
C 1.55874 -2.683901 0.795609 -3 0 -3 
C -0.795609 -3 -1.55874 -2.683901 -2.12132 -2.12132 
C -2.683901 -1.55874 -3 -0.795609 -3 0 
C -3 0.795609 -2.683901 1.55874 -2.12132 2.12132 
C -1.55874 2.683901 -0.795609 3 0 3 
z
" style="stroke: #440154"/>
     </defs>
     <g>
      <use xlink:href="#m9022b16c7d" x="344.636364" y="72.18375" style="fill: #440154; stroke: #440154"/>
     </g>
    </g>
    <g id="text_19">
     <!-- 0 -->
     <g transform="translate(362.636364 74.80875) scale(0.1 -0.1)">
      <use xlink:href="#DejaVuSans-30"/>
     </g>
    </g>
    <g id="PathCollection_14">
     <defs>
      <path id="m294f38de01" d="M 0 3 
C 0.795609 3 1.55874 2.683901 2.12132 2.12132 
C 2.683901 1.55874 3 0.795609 3 0 
C 3 -0.795609 2.683901 -1.55874 2.12132 -2.12132 
C 1.55874 -2.683901 0.795609 -3 0 -3 
C -0.795609 -3 -1.55874 -2.683901 -2.12132 -2.12132 
C -2.683901 -1.55874 -3 -0.795609 -3 0 
C -3 0.795609 -2.683901 1.55874 -2.12132 2.12132 
C -1.55874 2.683901 -0.795609 3 0 3 
z
" style="stroke: #414487"/>
     </defs>
     <g>
      <use xlink:href="#m294f38de01" x="344.636364" y="86.861875" style="fill: #414487; stroke: #414487"/>
     </g>
    </g>
    <g id="text_20">
     <!-- 1 -->
     <g transform="translate(362.636364 89.486875) scale(0.1 -0.1)">
      <use xlink:href="#DejaVuSans-31"/>
     </g>
    </g>
    <g id="PathCollection_15">
     <defs>
      <path id="mac9152daad" d="M 0 3 
C 0.795609 3 1.55874 2.683901 2.12132 2.12132 
C 2.683901 1.55874 3 0.795609 3 0 
C 3 -0.795609 2.683901 -1.55874 2.12132 -2.12132 
C 1.55874 -2.683901 0.795609 -3 0 -3 
C -0.795609 -3 -1.55874 -2.683901 -2.12132 -2.12132 
C -2.683901 -1.55874 -3 -0.795609 -3 0 
C -3 0.795609 -2.683901 1.55874 -2.12132 2.12132 
C -1.55874 2.683901 -0.795609 3 0 3 
z
" style="stroke: #2a788e"/>
     </defs>
     <g>
      <use xlink:href="#mac9152daad" x="344.636364" y="101.54" style="fill: #2a788e; stroke: #2a788e"/>
     </g>
    </g>
    <g id="text_21">
     <!-- 2 -->
     <g transform="translate(362.636364 104.165) scale(0.1 -0.1)">
      <use xlink:href="#DejaVuSans-32"/>
     </g>
    </g>
    <g id="PathCollection_16">
     <defs>
      <path id="m6cc296c5fa" d="M 0 3 
C 0.795609 3 1.55874 2.683901 2.12132 2.12132 
C 2.683901 1.55874 3 0.795609 3 0 
C 3 -0.795609 2.683901 -1.55874 2.12132 -2.12132 
C 1.55874 -2.683901 0.795609 -3 0 -3 
C -0.795609 -3 -1.55874 -2.683901 -2.12132 -2.12132 
C -2.683901 -1.55874 -3 -0.795609 -3 0 
C -3 0.795609 -2.683901 1.55874 -2.12132 2.12132 
C -1.55874 2.683901 -0.795609 3 0 3 
z
" style="stroke: #22a884"/>
     </defs>
     <g>
      <use xlink:href="#m6cc296c5fa" x="344.636364" y="116.218125" style="fill: #22a884; stroke: #22a884"/>
     </g>
    </g>
    <g id="text_22">
     <!-- 3 -->
     <g transform="translate(362.636364 118.843125) scale(0.1 -0.1)">
      <defs>
       <path id="DejaVuSans-33" d="M 2597 2516 
Q 3050 2419 3304 2112 
Q 3559 1806 3559 1356 
Q 3559 666 3084 287 
Q 2609 -91 1734 -91 
Q 1441 -91 1130 -33 
Q 819 25 488 141 
L 488 750 
Q 750 597 1062 519 
Q 1375 441 1716 441 
Q 2309 441 2620 675 
Q 2931 909 2931 1356 
Q 2931 1769 2642 2001 
Q 2353 2234 1838 2234 
L 1294 2234 
L 1294 2753 
L 1863 2753 
Q 2328 2753 2575 2939 
Q 2822 3125 2822 3475 
Q 2822 3834 2567 4026 
Q 2313 4219 1838 4219 
Q 1578 4219 1281 4162 
Q 984 4106 628 3988 
L 628 4550 
Q 988 4650 1302 4700 
Q 1616 4750 1894 4750 
Q 2613 4750 3031 4423 
Q 3450 4097 3450 3541 
Q 3450 3153 3228 2886 
Q 3006 2619 2597 2516 
z
" transform="scale(0.015625)"/>
      </defs>
      <use xlink:href="#DejaVuSans-33"/>
     </g>
    </g>
    <g id="PathCollection_17">
     <defs>
      <path id="m7060885981" d="M 0 3 
C 0.795609 3 1.55874 2.683901 2.12132 2.12132 
C 2.683901 1.55874 3 0.795609 3 0 
C 3 -0.795609 2.683901 -1.55874 2.12132 -2.12132 
C 1.55874 -2.683901 0.795609 -3 0 -3 
C -0.795609 -3 -1.55874 -2.683901 -2.12132 -2.12132 
C -2.683901 -1.55874 -3 -0.795609 -3 0 
C -3 0.795609 -2.683901 1.55874 -2.12132 2.12132 
C -1.55874 2.683901 -0.795609 3 0 3 
z
" style="stroke: #7ad151"/>
     </defs>
     <g>
      <use xlink:href="#m7060885981" x="344.636364" y="130.89625" style="fill: #7ad151; stroke: #7ad151"/>
     </g>
    </g>
    <g id="text_23">
     <!-- 4 -->
     <g transform="translate(362.636364 133.52125) scale(0.1 -0.1)">
      <use xlink:href="#DejaVuSans-34"/>
     </g>
    </g>
    <g id="PathCollection_18">
     <defs>
      <path id="m552b784259" d="M 0 3 
C 0.795609 3 1.55874 2.683901 2.12132 2.12132 
C 2.683901 1.55874 3 0.795609 3 0 
C 3 -0.795609 2.683901 -1.55874 2.12132 -2.12132 
C 1.55874 -2.683901 0.795609 -3 0 -3 
C -0.795609 -3 -1.55874 -2.683901 -2.12132 -2.12132 
C -2.683901 -1.55874 -3 -0.795609 -3 0 
C -3 0.795609 -2.683901 1.55874 -2.12132 2.12132 
C -1.55874 2.683901 -0.795609 3 0 3 
z
" style="stroke: #fde725"/>
     </defs>
     <g>
      <use xlink:href="#m552b784259" x="344.636364" y="145.574375" style="fill: #fde725; stroke: #fde725"/>
     </g>
    </g>
    <g id="text_24">
     <!-- 5 -->
     <g transform="translate(362.636364 148.199375) scale(0.1 -0.1)">
      <use xlink:href="#DejaVuSans-35"/>
     </g>
    </g>
    <g id="text_25">
     <!-- prct -->
     <g transform="translate(362.636364 162.8775) scale(0.1 -0.1)">
      <use xlink:href="#DejaVuSans-70"/>
      <use xlink:href="#DejaVuSans-72" x="63.476562"/>
      <use xlink:href="#DejaVuSans-63" x="102.339844"/>
      <use xlink:href="#DejaVuSans-74" x="157.320312"/>
     </g>
    </g>
    <g id="PathCollection_19">
     <defs>
      <path id="m1114cc95d6" d="M 0 4.242641 
C 1.125161 4.242641 2.204391 3.795609 3 3 
C 3.795609 2.204391 4.242641 1.125161 4.242641 0 
C 4.242641 -1.125161 3.795609 -2.204391 3 -3 
C 2.204391 -3.795609 1.125161 -4.242641 0 -4.242641 
C -1.125161 -4.242641 -2.204391 -3.795609 -3 -3 
C -3.795609 -2.204391 -4.242641 -1.125161 -4.242641 0 
C -4.242641 1.125161 -3.795609 2.204391 -3 3 
C -2.204391 3.795609 -1.125161 4.242641 0 4.242641 
z
" style="stroke: #333333"/>
     </defs>
     <g>
      <use xlink:href="#m1114cc95d6" x="344.636364" y="174.930625" style="fill: #333333; stroke: #333333"/>
     </g>
    </g>
    <g id="text_26">
     <!-- 17 -->
     <g transform="translate(362.636364 177.555625) scale(0.1 -0.1)">
      <use xlink:href="#DejaVuSans-31"/>
      <use xlink:href="#DejaVuSans-37" x="63.623047"/>
     </g>
    </g>
    <g id="PathCollection_20">
     <defs>
      <path id="mf7664fcf80" d="M 0 3.824265 
C 1.014207 3.824265 1.987011 3.421316 2.704163 2.704163 
C 3.421316 1.987011 3.824265 1.014207 3.824265 0 
C 3.824265 -1.014207 3.421316 -1.987011 2.704163 -2.704163 
C 1.987011 -3.421316 1.014207 -3.824265 0 -3.824265 
C -1.014207 -3.824265 -1.987011 -3.421316 -2.704163 -2.704163 
C -3.421316 -1.987011 -3.824265 -1.014207 -3.824265 0 
C -3.824265 1.014207 -3.421316 1.987011 -2.704163 2.704163 
C -1.987011 3.421316 -1.014207 3.824265 0 3.824265 
z
" style="stroke: #333333"/>
     </defs>
     <g>
      <use xlink:href="#mf7664fcf80" x="344.636364" y="189.60875" style="fill: #333333; stroke: #333333"/>
     </g>
    </g>
    <g id="text_27">
     <!-- 33 -->
     <g transform="translate(362.636364 192.23375) scale(0.1 -0.1)">
      <use xlink:href="#DejaVuSans-33"/>
      <use xlink:href="#DejaVuSans-33" x="63.623047"/>
     </g>
    </g>
    <g id="PathCollection_21">
     <defs>
      <path id="m9c0e099d37" d="M 0 3.354102 
C 0.889518 3.354102 1.742724 3.000693 2.371708 2.371708 
C 3.000693 1.742724 3.354102 0.889518 3.354102 0 
C 3.354102 -0.889518 3.000693 -1.742724 2.371708 -2.371708 
C 1.742724 -3.000693 0.889518 -3.354102 0 -3.354102 
C -0.889518 -3.354102 -1.742724 -3.000693 -2.371708 -2.371708 
C -3.000693 -1.742724 -3.354102 -0.889518 -3.354102 0 
C -3.354102 0.889518 -3.000693 1.742724 -2.371708 2.371708 
C -1.742724 3.000693 -0.889518 3.354102 0 3.354102 
z
" style="stroke: #333333"/>
     </defs>
     <g>
      <use xlink:href="#m9c0e099d37" x="344.636364" y="204.286875" style="fill: #333333; stroke: #333333"/>
     </g>
    </g>
    <g id="text_28">
     <!-- 50 -->
     <g transform="translate(362.636364 206.911875) scale(0.1 -0.1)">
      <use xlink:href="#DejaVuSans-35"/>
      <use xlink:href="#DejaVuSans-30" x="63.623047"/>
     </g>
    </g>
    <g id="PathCollection_22">
     <defs>
      <path id="m2b353d3ef0" d="M 0 2.806243 
C 0.744224 2.806243 1.458067 2.51056 1.984313 1.984313 
C 2.51056 1.458067 2.806243 0.744224 2.806243 0 
C 2.806243 -0.744224 2.51056 -1.458067 1.984313 -1.984313 
C 1.458067 -2.51056 0.744224 -2.806243 0 -2.806243 
C -0.744224 -2.806243 -1.458067 -2.51056 -1.984313 -1.984313 
C -2.51056 -1.458067 -2.806243 -0.744224 -2.806243 0 
C -2.806243 0.744224 -2.51056 1.458067 -1.984313 1.984313 
C -1.458067 2.51056 -0.744224 2.806243 0 2.806243 
z
" style="stroke: #333333"/>
     </defs>
     <g>
      <use xlink:href="#m2b353d3ef0" x="344.636364" y="218.965" style="fill: #333333; stroke: #333333"/>
     </g>
    </g>
    <g id="text_29">
     <!-- 67 -->
     <g transform="translate(362.636364 221.59) scale(0.1 -0.1)">
      <use xlink:href="#DejaVuSans-36"/>
      <use xlink:href="#DejaVuSans-37" x="63.623047"/>
     </g>
    </g>
    <g id="PathCollection_23">
     <defs>
      <path id="m5b1f8ce2a2" d="M 0 2.12132 
C 0.562581 2.12132 1.102195 1.897805 1.5 1.5 
C 1.897805 1.102195 2.12132 0.562581 2.12132 0 
C 2.12132 -0.562581 1.897805 -1.102195 1.5 -1.5 
C 1.102195 -1.897805 0.562581 -2.12132 0 -2.12132 
C -0.562581 -2.12132 -1.102195 -1.897805 -1.5 -1.5 
C -1.897805 -1.102195 -2.12132 -0.562581 -2.12132 0 
C -2.12132 0.562581 -1.897805 1.102195 -1.5 1.5 
C -1.102195 1.897805 -0.562581 2.12132 0 2.12132 
z
" style="stroke: #333333"/>
     </defs>
     <g>
      <use xlink:href="#m5b1f8ce2a2" x="344.636364" y="233.643125" style="fill: #333333; stroke: #333333"/>
     </g>
    </g>
    <g id="text_30">
     <!-- 83 -->
     <g transform="translate(362.636364 236.268125) scale(0.1 -0.1)">
      <use xlink:href="#DejaVuSans-38"/>
      <use xlink:href="#DejaVuSans-33" x="63.623047"/>
     </g>
    </g>
   </g>
  </g>
  <g id="axes_2"/>
  <g id="text_31">
   <!-- Carbon budgets -->
   <g transform="translate(240.077812 14.878125) scale(0.12 -0.12)">
    <defs>
     <path id="DejaVuSans-62" d="M 3116 1747 
Q 3116 2381 2855 2742 
Q 2594 3103 2138 3103 
Q 1681 3103 1420 2742 
Q 1159 2381 1159 1747 
Q 1159 1113 1420 752 
Q 1681 391 2138 391 
Q 2594 391 2855 752 
Q 3116 1113 3116 1747 
z
M 1159 2969 
Q 1341 3281 1617 3432 
Q 1894 3584 2278 3584 
Q 2916 3584 3314 3078 
Q 3713 2572 3713 1747 
Q 3713 922 3314 415 
Q 2916 -91 2278 -91 
Q 1894 -91 1617 61 
Q 1341 213 1159 525 
L 1159 0 
L 581 0 
L 581 4863 
L 1159 4863 
L 1159 2969 
z
" transform="scale(0.015625)"/>
     <path id="DejaVuSans-67" d="M 2906 1791 
Q 2906 2416 2648 2759 
Q 2391 3103 1925 3103 
Q 1463 3103 1205 2759 
Q 947 2416 947 1791 
Q 947 1169 1205 825 
Q 1463 481 1925 481 
Q 2391 481 2648 825 
Q 2906 1169 2906 1791 
z
M 3481 434 
Q 3481 -459 3084 -895 
Q 2688 -1331 1869 -1331 
Q 1566 -1331 1297 -1286 
Q 1028 -1241 775 -1147 
L 775 -588 
Q 1028 -725 1275 -790 
Q 1522 -856 1778 -856 
Q 2344 -856 2625 -561 
Q 2906 -266 2906 331 
L 2906 616 
Q 2728 306 2450 153 
Q 2172 0 1784 0 
Q 1141 0 747 490 
Q 353 981 353 1791 
Q 353 2603 747 3093 
Q 1141 3584 1784 3584 
Q 2172 3584 2450 3431 
Q 2728 3278 2906 2969 
L 2906 3500 
L 3481 3500 
L 3481 434 
z
" transform="scale(0.015625)"/>
    </defs>
    <use xlink:href="#DejaVuSans-43"/>
    <use xlink:href="#DejaVuSans-61" x="69.824219"/>
    <use xlink:href="#DejaVuSans-72" x="131.103516"/>
    <use xlink:href="#DejaVuSans-62" x="172.216797"/>
    <use xlink:href="#DejaVuSans-6f" x="235.693359"/>
    <use xlink:href="#DejaVuSans-6e" x="296.875"/>
    <use xlink:href="#DejaVuSans-20" x="360.253906"/>
    <use xlink:href="#DejaVuSans-62" x="392.041016"/>
    <use xlink:href="#DejaVuSans-75" x="455.517578"/>
    <use xlink:href="#DejaVuSans-64" x="518.896484"/>
    <use xlink:href="#DejaVuSans-67" x="582.373047"/>
    <use xlink:href="#DejaVuSans-65" x="645.849609"/>
    <use xlink:href="#DejaVuSans-74" x="707.373047"/>
    <use xlink:href="#DejaVuSans-73" x="746.582031"/>
   </g>
  </g>
 </g>
 <defs>
  <clipPath id="p3ba44add33">
   <rect x="72" y="34.56" width="202.909091" height="221.76"/>
  </clipPath>
 </defs>
</svg>
