<?xml version="1.0" encoding="utf-8" standalone="no"?>
<!DOCTYPE svg PUBLIC "-//W3C//DTD SVG 1.1//EN"
  "http://www.w3.org/Graphics/SVG/1.1/DTD/svg11.dtd">
<svg xmlns:xlink="http://www.w3.org/1999/xlink" width="576pt" height="288pt" viewBox="0 0 576 288" xmlns="http://www.w3.org/2000/svg" version="1.1">
 <metadata>
  <rdf:RDF xmlns:dc="http://purl.org/dc/elements/1.1/" xmlns:cc="http://creativecommons.org/ns#" xmlns:rdf="http://www.w3.org/1999/02/22-rdf-syntax-ns#">
   <cc:Work>
    <dc:type rdf:resource="http://purl.org/dc/dcmitype/StillImage"/>
    <dc:date>2023-01-31T16:55:42.327963</dc:date>
    <dc:format>image/svg+xml</dc:format>
    <dc:creator>
     <cc:Agent>
      <dc:title>Matplotlib v3.6.2, https://matplotlib.org/</dc:title>
     </cc:Agent>
    </dc:creator>
   </cc:Work>
  </rdf:RDF>
 </metadata>
 <defs>
  <style type="text/css">*{stroke-linejoin: round; stroke-linecap: butt}</style>
 </defs>
 <g id="figure_1">
  <g id="patch_1">
   <path d="M 0 288 
L 576 288 
L 576 0 
L 0 0 
z
" style="fill: #ffffff"/>
  </g>
  <g id="axes_1">
   <g id="patch_2">
    <path d="M 72 256.32 
L 274.909091 256.32 
L 274.909091 34.56 
L 72 34.56 
z
" style="fill: #ffffff"/>
   </g>
   <g id="matplotlib.axis_1">
    <g id="xtick_1">
     <g id="line2d_1">
      <defs>
       <path id="m977492f46b" d="M 0 0 
L 0 2.5 
" style="stroke: #262626"/>
      </defs>
      <g>
       <use xlink:href="#m977492f46b" x="72" y="256.32" style="fill: #262626; stroke: #262626"/>
      </g>
     </g>
     <g id="text_1">
      <!-- 0 -->
      <g style="fill: #262626" transform="translate(70.053672 267.330469) scale(0.07 -0.07)">
       <defs>
        <path id="ArialMT-30" d="M 266 2259 
Q 266 3072 433 3567 
Q 600 4063 929 4331 
Q 1259 4600 1759 4600 
Q 2128 4600 2406 4451 
Q 2684 4303 2865 4023 
Q 3047 3744 3150 3342 
Q 3253 2941 3253 2259 
Q 3253 1453 3087 958 
Q 2922 463 2592 192 
Q 2263 -78 1759 -78 
Q 1097 -78 719 397 
Q 266 969 266 2259 
z
M 844 2259 
Q 844 1131 1108 757 
Q 1372 384 1759 384 
Q 2147 384 2411 759 
Q 2675 1134 2675 2259 
Q 2675 3391 2411 3762 
Q 2147 4134 1753 4134 
Q 1366 4134 1134 3806 
Q 844 3388 844 2259 
z
" transform="scale(0.015625)"/>
       </defs>
       <use xlink:href="#ArialMT-30"/>
      </g>
     </g>
    </g>
    <g id="xtick_2">
     <g id="line2d_2">
      <g>
       <use xlink:href="#m977492f46b" x="99.054545" y="256.32" style="fill: #262626; stroke: #262626"/>
      </g>
     </g>
     <g id="text_2">
      <!-- 200 -->
      <g style="fill: #262626" transform="translate(93.215561 267.330469) scale(0.07 -0.07)">
       <defs>
        <path id="ArialMT-32" d="M 3222 541 
L 3222 0 
L 194 0 
Q 188 203 259 391 
Q 375 700 629 1000 
Q 884 1300 1366 1694 
Q 2113 2306 2375 2664 
Q 2638 3022 2638 3341 
Q 2638 3675 2398 3904 
Q 2159 4134 1775 4134 
Q 1369 4134 1125 3890 
Q 881 3647 878 3216 
L 300 3275 
Q 359 3922 746 4261 
Q 1134 4600 1788 4600 
Q 2447 4600 2831 4234 
Q 3216 3869 3216 3328 
Q 3216 3053 3103 2787 
Q 2991 2522 2730 2228 
Q 2469 1934 1863 1422 
Q 1356 997 1212 845 
Q 1069 694 975 541 
L 3222 541 
z
" transform="scale(0.015625)"/>
       </defs>
       <use xlink:href="#ArialMT-32"/>
       <use xlink:href="#ArialMT-30" x="55.615234"/>
       <use xlink:href="#ArialMT-30" x="111.230469"/>
      </g>
     </g>
    </g>
    <g id="xtick_3">
     <g id="line2d_3">
      <g>
       <use xlink:href="#m977492f46b" x="126.109091" y="256.32" style="fill: #262626; stroke: #262626"/>
      </g>
     </g>
     <g id="text_3">
      <!-- 400 -->
      <g style="fill: #262626" transform="translate(120.270107 267.330469) scale(0.07 -0.07)">
       <defs>
        <path id="ArialMT-34" d="M 2069 0 
L 2069 1097 
L 81 1097 
L 81 1613 
L 2172 4581 
L 2631 4581 
L 2631 1613 
L 3250 1613 
L 3250 1097 
L 2631 1097 
L 2631 0 
L 2069 0 
z
M 2069 1613 
L 2069 3678 
L 634 1613 
L 2069 1613 
z
" transform="scale(0.015625)"/>
       </defs>
       <use xlink:href="#ArialMT-34"/>
       <use xlink:href="#ArialMT-30" x="55.615234"/>
       <use xlink:href="#ArialMT-30" x="111.230469"/>
      </g>
     </g>
    </g>
    <g id="xtick_4">
     <g id="line2d_4">
      <g>
       <use xlink:href="#m977492f46b" x="153.163636" y="256.32" style="fill: #262626; stroke: #262626"/>
      </g>
     </g>
     <g id="text_4">
      <!-- 600 -->
      <g style="fill: #262626" transform="translate(147.324652 267.330469) scale(0.07 -0.07)">
       <defs>
        <path id="ArialMT-36" d="M 3184 3459 
L 2625 3416 
Q 2550 3747 2413 3897 
Q 2184 4138 1850 4138 
Q 1581 4138 1378 3988 
Q 1113 3794 959 3422 
Q 806 3050 800 2363 
Q 1003 2672 1297 2822 
Q 1591 2972 1913 2972 
Q 2475 2972 2870 2558 
Q 3266 2144 3266 1488 
Q 3266 1056 3080 686 
Q 2894 316 2569 119 
Q 2244 -78 1831 -78 
Q 1128 -78 684 439 
Q 241 956 241 2144 
Q 241 3472 731 4075 
Q 1159 4600 1884 4600 
Q 2425 4600 2770 4297 
Q 3116 3994 3184 3459 
z
M 888 1484 
Q 888 1194 1011 928 
Q 1134 663 1356 523 
Q 1578 384 1822 384 
Q 2178 384 2434 671 
Q 2691 959 2691 1453 
Q 2691 1928 2437 2201 
Q 2184 2475 1800 2475 
Q 1419 2475 1153 2201 
Q 888 1928 888 1484 
z
" transform="scale(0.015625)"/>
       </defs>
       <use xlink:href="#ArialMT-36"/>
       <use xlink:href="#ArialMT-30" x="55.615234"/>
       <use xlink:href="#ArialMT-30" x="111.230469"/>
      </g>
     </g>
    </g>
    <g id="xtick_5">
     <g id="line2d_5">
      <g>
       <use xlink:href="#m977492f46b" x="180.218182" y="256.32" style="fill: #262626; stroke: #262626"/>
      </g>
     </g>
     <g id="text_5">
      <!-- 800 -->
      <g style="fill: #262626" transform="translate(174.379197 267.330469) scale(0.07 -0.07)">
       <defs>
        <path id="ArialMT-38" d="M 1131 2484 
Q 781 2613 612 2850 
Q 444 3088 444 3419 
Q 444 3919 803 4259 
Q 1163 4600 1759 4600 
Q 2359 4600 2725 4251 
Q 3091 3903 3091 3403 
Q 3091 3084 2923 2848 
Q 2756 2613 2416 2484 
Q 2838 2347 3058 2040 
Q 3278 1734 3278 1309 
Q 3278 722 2862 322 
Q 2447 -78 1769 -78 
Q 1091 -78 675 323 
Q 259 725 259 1325 
Q 259 1772 486 2073 
Q 713 2375 1131 2484 
z
M 1019 3438 
Q 1019 3113 1228 2906 
Q 1438 2700 1772 2700 
Q 2097 2700 2305 2904 
Q 2513 3109 2513 3406 
Q 2513 3716 2298 3927 
Q 2084 4138 1766 4138 
Q 1444 4138 1231 3931 
Q 1019 3725 1019 3438 
z
M 838 1322 
Q 838 1081 952 856 
Q 1066 631 1291 507 
Q 1516 384 1775 384 
Q 2178 384 2440 643 
Q 2703 903 2703 1303 
Q 2703 1709 2433 1975 
Q 2163 2241 1756 2241 
Q 1359 2241 1098 1978 
Q 838 1716 838 1322 
z
" transform="scale(0.015625)"/>
       </defs>
       <use xlink:href="#ArialMT-38"/>
       <use xlink:href="#ArialMT-30" x="55.615234"/>
       <use xlink:href="#ArialMT-30" x="111.230469"/>
      </g>
     </g>
    </g>
    <g id="xtick_6">
     <g id="line2d_6">
      <g>
       <use xlink:href="#m977492f46b" x="207.272727" y="256.32" style="fill: #262626; stroke: #262626"/>
      </g>
     </g>
     <g id="text_6">
      <!-- 1000 -->
      <g style="fill: #262626" transform="translate(199.487415 267.330469) scale(0.07 -0.07)">
       <defs>
        <path id="ArialMT-31" d="M 2384 0 
L 1822 0 
L 1822 3584 
Q 1619 3391 1289 3197 
Q 959 3003 697 2906 
L 697 3450 
Q 1169 3672 1522 3987 
Q 1875 4303 2022 4600 
L 2384 4600 
L 2384 0 
z
" transform="scale(0.015625)"/>
       </defs>
       <use xlink:href="#ArialMT-31"/>
       <use xlink:href="#ArialMT-30" x="55.615234"/>
       <use xlink:href="#ArialMT-30" x="111.230469"/>
       <use xlink:href="#ArialMT-30" x="166.845703"/>
      </g>
     </g>
    </g>
    <g id="xtick_7">
     <g id="line2d_7">
      <g>
       <use xlink:href="#m977492f46b" x="234.327273" y="256.32" style="fill: #262626; stroke: #262626"/>
      </g>
     </g>
     <g id="text_7">
      <!-- 1200 -->
      <g style="fill: #262626" transform="translate(226.54196 267.330469) scale(0.07 -0.07)">
       <use xlink:href="#ArialMT-31"/>
       <use xlink:href="#ArialMT-32" x="55.615234"/>
       <use xlink:href="#ArialMT-30" x="111.230469"/>
       <use xlink:href="#ArialMT-30" x="166.845703"/>
      </g>
     </g>
    </g>
    <g id="xtick_8">
     <g id="line2d_8">
      <g>
       <use xlink:href="#m977492f46b" x="261.381818" y="256.32" style="fill: #262626; stroke: #262626"/>
      </g>
     </g>
     <g id="text_8">
      <!-- 1400 -->
      <g style="fill: #262626" transform="translate(253.596506 267.330469) scale(0.07 -0.07)">
       <use xlink:href="#ArialMT-31"/>
       <use xlink:href="#ArialMT-34" x="55.615234"/>
       <use xlink:href="#ArialMT-30" x="111.230469"/>
       <use xlink:href="#ArialMT-30" x="166.845703"/>
      </g>
     </g>
    </g>
    <g id="text_9">
     <!-- Additional CO2 emissions from 2020 (GtCO2) -->
     <g style="fill: #262626" transform="translate(82.174155 279.279063) scale(0.09 -0.09)">
      <defs>
       <path id="ArialMT-41" d="M -9 0 
L 1750 4581 
L 2403 4581 
L 4278 0 
L 3588 0 
L 3053 1388 
L 1138 1388 
L 634 0 
L -9 0 
z
M 1313 1881 
L 2866 1881 
L 2388 3150 
Q 2169 3728 2063 4100 
Q 1975 3659 1816 3225 
L 1313 1881 
z
" transform="scale(0.015625)"/>
       <path id="ArialMT-64" d="M 2575 0 
L 2575 419 
Q 2259 -75 1647 -75 
Q 1250 -75 917 144 
Q 584 363 401 755 
Q 219 1147 219 1656 
Q 219 2153 384 2558 
Q 550 2963 881 3178 
Q 1213 3394 1622 3394 
Q 1922 3394 2156 3267 
Q 2391 3141 2538 2938 
L 2538 4581 
L 3097 4581 
L 3097 0 
L 2575 0 
z
M 797 1656 
Q 797 1019 1065 703 
Q 1334 388 1700 388 
Q 2069 388 2326 689 
Q 2584 991 2584 1609 
Q 2584 2291 2321 2609 
Q 2059 2928 1675 2928 
Q 1300 2928 1048 2622 
Q 797 2316 797 1656 
z
" transform="scale(0.015625)"/>
       <path id="ArialMT-69" d="M 425 3934 
L 425 4581 
L 988 4581 
L 988 3934 
L 425 3934 
z
M 425 0 
L 425 3319 
L 988 3319 
L 988 0 
L 425 0 
z
" transform="scale(0.015625)"/>
       <path id="ArialMT-74" d="M 1650 503 
L 1731 6 
Q 1494 -44 1306 -44 
Q 1000 -44 831 53 
Q 663 150 594 308 
Q 525 466 525 972 
L 525 2881 
L 113 2881 
L 113 3319 
L 525 3319 
L 525 4141 
L 1084 4478 
L 1084 3319 
L 1650 3319 
L 1650 2881 
L 1084 2881 
L 1084 941 
Q 1084 700 1114 631 
Q 1144 563 1211 522 
Q 1278 481 1403 481 
Q 1497 481 1650 503 
z
" transform="scale(0.015625)"/>
       <path id="ArialMT-6f" d="M 213 1659 
Q 213 2581 725 3025 
Q 1153 3394 1769 3394 
Q 2453 3394 2887 2945 
Q 3322 2497 3322 1706 
Q 3322 1066 3130 698 
Q 2938 331 2570 128 
Q 2203 -75 1769 -75 
Q 1072 -75 642 372 
Q 213 819 213 1659 
z
M 791 1659 
Q 791 1022 1069 705 
Q 1347 388 1769 388 
Q 2188 388 2466 706 
Q 2744 1025 2744 1678 
Q 2744 2294 2464 2611 
Q 2184 2928 1769 2928 
Q 1347 2928 1069 2612 
Q 791 2297 791 1659 
z
" transform="scale(0.015625)"/>
       <path id="ArialMT-6e" d="M 422 0 
L 422 3319 
L 928 3319 
L 928 2847 
Q 1294 3394 1984 3394 
Q 2284 3394 2536 3286 
Q 2788 3178 2913 3003 
Q 3038 2828 3088 2588 
Q 3119 2431 3119 2041 
L 3119 0 
L 2556 0 
L 2556 2019 
Q 2556 2363 2490 2533 
Q 2425 2703 2258 2804 
Q 2091 2906 1866 2906 
Q 1506 2906 1245 2678 
Q 984 2450 984 1813 
L 984 0 
L 422 0 
z
" transform="scale(0.015625)"/>
       <path id="ArialMT-61" d="M 2588 409 
Q 2275 144 1986 34 
Q 1697 -75 1366 -75 
Q 819 -75 525 192 
Q 231 459 231 875 
Q 231 1119 342 1320 
Q 453 1522 633 1644 
Q 813 1766 1038 1828 
Q 1203 1872 1538 1913 
Q 2219 1994 2541 2106 
Q 2544 2222 2544 2253 
Q 2544 2597 2384 2738 
Q 2169 2928 1744 2928 
Q 1347 2928 1158 2789 
Q 969 2650 878 2297 
L 328 2372 
Q 403 2725 575 2942 
Q 747 3159 1072 3276 
Q 1397 3394 1825 3394 
Q 2250 3394 2515 3294 
Q 2781 3194 2906 3042 
Q 3031 2891 3081 2659 
Q 3109 2516 3109 2141 
L 3109 1391 
Q 3109 606 3145 398 
Q 3181 191 3288 0 
L 2700 0 
Q 2613 175 2588 409 
z
M 2541 1666 
Q 2234 1541 1622 1453 
Q 1275 1403 1131 1340 
Q 988 1278 909 1158 
Q 831 1038 831 891 
Q 831 666 1001 516 
Q 1172 366 1500 366 
Q 1825 366 2078 508 
Q 2331 650 2450 897 
Q 2541 1088 2541 1459 
L 2541 1666 
z
" transform="scale(0.015625)"/>
       <path id="ArialMT-6c" d="M 409 0 
L 409 4581 
L 972 4581 
L 972 0 
L 409 0 
z
" transform="scale(0.015625)"/>
       <path id="ArialMT-20" transform="scale(0.015625)"/>
       <path id="ArialMT-43" d="M 3763 1606 
L 4369 1453 
Q 4178 706 3683 314 
Q 3188 -78 2472 -78 
Q 1731 -78 1267 223 
Q 803 525 561 1097 
Q 319 1669 319 2325 
Q 319 3041 592 3573 
Q 866 4106 1370 4382 
Q 1875 4659 2481 4659 
Q 3169 4659 3637 4309 
Q 4106 3959 4291 3325 
L 3694 3184 
Q 3534 3684 3231 3912 
Q 2928 4141 2469 4141 
Q 1941 4141 1586 3887 
Q 1231 3634 1087 3207 
Q 944 2781 944 2328 
Q 944 1744 1114 1308 
Q 1284 872 1643 656 
Q 2003 441 2422 441 
Q 2931 441 3284 734 
Q 3638 1028 3763 1606 
z
" transform="scale(0.015625)"/>
       <path id="ArialMT-4f" d="M 309 2231 
Q 309 3372 921 4017 
Q 1534 4663 2503 4663 
Q 3138 4663 3647 4359 
Q 4156 4056 4423 3514 
Q 4691 2972 4691 2284 
Q 4691 1588 4409 1038 
Q 4128 488 3612 205 
Q 3097 -78 2500 -78 
Q 1853 -78 1343 234 
Q 834 547 571 1087 
Q 309 1628 309 2231 
z
M 934 2222 
Q 934 1394 1379 917 
Q 1825 441 2497 441 
Q 3181 441 3623 922 
Q 4066 1403 4066 2288 
Q 4066 2847 3877 3264 
Q 3688 3681 3323 3911 
Q 2959 4141 2506 4141 
Q 1863 4141 1398 3698 
Q 934 3256 934 2222 
z
" transform="scale(0.015625)"/>
       <path id="ArialMT-65" d="M 2694 1069 
L 3275 997 
Q 3138 488 2766 206 
Q 2394 -75 1816 -75 
Q 1088 -75 661 373 
Q 234 822 234 1631 
Q 234 2469 665 2931 
Q 1097 3394 1784 3394 
Q 2450 3394 2872 2941 
Q 3294 2488 3294 1666 
Q 3294 1616 3291 1516 
L 816 1516 
Q 847 969 1125 678 
Q 1403 388 1819 388 
Q 2128 388 2347 550 
Q 2566 713 2694 1069 
z
M 847 1978 
L 2700 1978 
Q 2663 2397 2488 2606 
Q 2219 2931 1791 2931 
Q 1403 2931 1139 2672 
Q 875 2413 847 1978 
z
" transform="scale(0.015625)"/>
       <path id="ArialMT-6d" d="M 422 0 
L 422 3319 
L 925 3319 
L 925 2853 
Q 1081 3097 1340 3245 
Q 1600 3394 1931 3394 
Q 2300 3394 2536 3241 
Q 2772 3088 2869 2813 
Q 3263 3394 3894 3394 
Q 4388 3394 4653 3120 
Q 4919 2847 4919 2278 
L 4919 0 
L 4359 0 
L 4359 2091 
Q 4359 2428 4304 2576 
Q 4250 2725 4106 2815 
Q 3963 2906 3769 2906 
Q 3419 2906 3187 2673 
Q 2956 2441 2956 1928 
L 2956 0 
L 2394 0 
L 2394 2156 
Q 2394 2531 2256 2718 
Q 2119 2906 1806 2906 
Q 1569 2906 1367 2781 
Q 1166 2656 1075 2415 
Q 984 2175 984 1722 
L 984 0 
L 422 0 
z
" transform="scale(0.015625)"/>
       <path id="ArialMT-73" d="M 197 991 
L 753 1078 
Q 800 744 1014 566 
Q 1228 388 1613 388 
Q 2000 388 2187 545 
Q 2375 703 2375 916 
Q 2375 1106 2209 1216 
Q 2094 1291 1634 1406 
Q 1016 1563 777 1677 
Q 538 1791 414 1992 
Q 291 2194 291 2438 
Q 291 2659 392 2848 
Q 494 3038 669 3163 
Q 800 3259 1026 3326 
Q 1253 3394 1513 3394 
Q 1903 3394 2198 3281 
Q 2494 3169 2634 2976 
Q 2775 2784 2828 2463 
L 2278 2388 
Q 2241 2644 2061 2787 
Q 1881 2931 1553 2931 
Q 1166 2931 1000 2803 
Q 834 2675 834 2503 
Q 834 2394 903 2306 
Q 972 2216 1119 2156 
Q 1203 2125 1616 2013 
Q 2213 1853 2448 1751 
Q 2684 1650 2818 1456 
Q 2953 1263 2953 975 
Q 2953 694 2789 445 
Q 2625 197 2315 61 
Q 2006 -75 1616 -75 
Q 969 -75 630 194 
Q 291 463 197 991 
z
" transform="scale(0.015625)"/>
       <path id="ArialMT-66" d="M 556 0 
L 556 2881 
L 59 2881 
L 59 3319 
L 556 3319 
L 556 3672 
Q 556 4006 616 4169 
Q 697 4388 901 4523 
Q 1106 4659 1475 4659 
Q 1713 4659 2000 4603 
L 1916 4113 
Q 1741 4144 1584 4144 
Q 1328 4144 1222 4034 
Q 1116 3925 1116 3625 
L 1116 3319 
L 1763 3319 
L 1763 2881 
L 1116 2881 
L 1116 0 
L 556 0 
z
" transform="scale(0.015625)"/>
       <path id="ArialMT-72" d="M 416 0 
L 416 3319 
L 922 3319 
L 922 2816 
Q 1116 3169 1280 3281 
Q 1444 3394 1641 3394 
Q 1925 3394 2219 3213 
L 2025 2691 
Q 1819 2813 1613 2813 
Q 1428 2813 1281 2702 
Q 1134 2591 1072 2394 
Q 978 2094 978 1738 
L 978 0 
L 416 0 
z
" transform="scale(0.015625)"/>
       <path id="ArialMT-28" d="M 1497 -1347 
Q 1031 -759 709 28 
Q 388 816 388 1659 
Q 388 2403 628 3084 
Q 909 3875 1497 4659 
L 1900 4659 
Q 1522 4009 1400 3731 
Q 1209 3300 1100 2831 
Q 966 2247 966 1656 
Q 966 153 1900 -1347 
L 1497 -1347 
z
" transform="scale(0.015625)"/>
       <path id="ArialMT-47" d="M 2638 1797 
L 2638 2334 
L 4578 2338 
L 4578 638 
Q 4131 281 3656 101 
Q 3181 -78 2681 -78 
Q 2006 -78 1454 211 
Q 903 500 622 1047 
Q 341 1594 341 2269 
Q 341 2938 620 3517 
Q 900 4097 1425 4378 
Q 1950 4659 2634 4659 
Q 3131 4659 3532 4498 
Q 3934 4338 4162 4050 
Q 4391 3763 4509 3300 
L 3963 3150 
Q 3859 3500 3706 3700 
Q 3553 3900 3268 4020 
Q 2984 4141 2638 4141 
Q 2222 4141 1919 4014 
Q 1616 3888 1430 3681 
Q 1244 3475 1141 3228 
Q 966 2803 966 2306 
Q 966 1694 1177 1281 
Q 1388 869 1791 669 
Q 2194 469 2647 469 
Q 3041 469 3416 620 
Q 3791 772 3984 944 
L 3984 1797 
L 2638 1797 
z
" transform="scale(0.015625)"/>
       <path id="ArialMT-29" d="M 791 -1347 
L 388 -1347 
Q 1322 153 1322 1656 
Q 1322 2244 1188 2822 
Q 1081 3291 891 3722 
Q 769 4003 388 4659 
L 791 4659 
Q 1378 3875 1659 3084 
Q 1900 2403 1900 1659 
Q 1900 816 1576 28 
Q 1253 -759 791 -1347 
z
" transform="scale(0.015625)"/>
      </defs>
      <use xlink:href="#ArialMT-41"/>
      <use xlink:href="#ArialMT-64" x="66.699219"/>
      <use xlink:href="#ArialMT-64" x="122.314453"/>
      <use xlink:href="#ArialMT-69" x="177.929688"/>
      <use xlink:href="#ArialMT-74" x="200.146484"/>
      <use xlink:href="#ArialMT-69" x="227.929688"/>
      <use xlink:href="#ArialMT-6f" x="250.146484"/>
      <use xlink:href="#ArialMT-6e" x="305.761719"/>
      <use xlink:href="#ArialMT-61" x="361.376953"/>
      <use xlink:href="#ArialMT-6c" x="416.992188"/>
      <use xlink:href="#ArialMT-20" x="439.208984"/>
      <use xlink:href="#ArialMT-43" x="466.992188"/>
      <use xlink:href="#ArialMT-4f" x="539.208984"/>
      <use xlink:href="#ArialMT-32" x="616.992188"/>
      <use xlink:href="#ArialMT-20" x="672.607422"/>
      <use xlink:href="#ArialMT-65" x="700.390625"/>
      <use xlink:href="#ArialMT-6d" x="756.005859"/>
      <use xlink:href="#ArialMT-69" x="839.306641"/>
      <use xlink:href="#ArialMT-73" x="861.523438"/>
      <use xlink:href="#ArialMT-73" x="911.523438"/>
      <use xlink:href="#ArialMT-69" x="961.523438"/>
      <use xlink:href="#ArialMT-6f" x="983.740234"/>
      <use xlink:href="#ArialMT-6e" x="1039.355469"/>
      <use xlink:href="#ArialMT-73" x="1094.970703"/>
      <use xlink:href="#ArialMT-20" x="1144.970703"/>
      <use xlink:href="#ArialMT-66" x="1172.753906"/>
      <use xlink:href="#ArialMT-72" x="1200.537109"/>
      <use xlink:href="#ArialMT-6f" x="1233.837891"/>
      <use xlink:href="#ArialMT-6d" x="1289.453125"/>
      <use xlink:href="#ArialMT-20" x="1372.753906"/>
      <use xlink:href="#ArialMT-32" x="1400.537109"/>
      <use xlink:href="#ArialMT-30" x="1456.152344"/>
      <use xlink:href="#ArialMT-32" x="1511.767578"/>
      <use xlink:href="#ArialMT-30" x="1567.382812"/>
      <use xlink:href="#ArialMT-20" x="1622.998047"/>
      <use xlink:href="#ArialMT-28" x="1650.78125"/>
      <use xlink:href="#ArialMT-47" x="1684.082031"/>
      <use xlink:href="#ArialMT-74" x="1761.865234"/>
      <use xlink:href="#ArialMT-43" x="1789.648438"/>
      <use xlink:href="#ArialMT-4f" x="1861.865234"/>
      <use xlink:href="#ArialMT-32" x="1939.648438"/>
      <use xlink:href="#ArialMT-29" x="1995.263672"/>
     </g>
    </g>
   </g>
   <g id="matplotlib.axis_2">
    <g id="ytick_1">
     <g id="line2d_9">
      <defs>
       <path id="m1b0af878f0" d="M 0 0 
L -2.5 0 
" style="stroke: #262626"/>
      </defs>
      <g>
       <use xlink:href="#m1b0af878f0" x="72" y="256.32" style="fill: #262626; stroke: #262626"/>
      </g>
     </g>
     <g id="text_10">
      <!-- 1.0 -->
      <g style="fill: #262626" transform="translate(56.27 258.825234) scale(0.07 -0.07)">
       <defs>
        <path id="ArialMT-2e" d="M 581 0 
L 581 641 
L 1222 641 
L 1222 0 
L 581 0 
z
" transform="scale(0.015625)"/>
       </defs>
       <use xlink:href="#ArialMT-31"/>
       <use xlink:href="#ArialMT-2e" x="55.615234"/>
       <use xlink:href="#ArialMT-30" x="83.398438"/>
      </g>
     </g>
    </g>
    <g id="ytick_2">
     <g id="line2d_10">
      <g>
       <use xlink:href="#m1b0af878f0" x="72" y="226.752" style="fill: #262626; stroke: #262626"/>
      </g>
     </g>
     <g id="text_11">
      <!-- 1.2 -->
      <g style="fill: #262626" transform="translate(56.27 229.257234) scale(0.07 -0.07)">
       <use xlink:href="#ArialMT-31"/>
       <use xlink:href="#ArialMT-2e" x="55.615234"/>
       <use xlink:href="#ArialMT-32" x="83.398438"/>
      </g>
     </g>
    </g>
    <g id="ytick_3">
     <g id="line2d_11">
      <g>
       <use xlink:href="#m1b0af878f0" x="72" y="197.184" style="fill: #262626; stroke: #262626"/>
      </g>
     </g>
     <g id="text_12">
      <!-- 1.4 -->
      <g style="fill: #262626" transform="translate(56.27 199.689234) scale(0.07 -0.07)">
       <use xlink:href="#ArialMT-31"/>
       <use xlink:href="#ArialMT-2e" x="55.615234"/>
       <use xlink:href="#ArialMT-34" x="83.398438"/>
      </g>
     </g>
    </g>
    <g id="ytick_4">
     <g id="line2d_12">
      <g>
       <use xlink:href="#m1b0af878f0" x="72" y="167.616" style="fill: #262626; stroke: #262626"/>
      </g>
     </g>
     <g id="text_13">
      <!-- 1.6 -->
      <g style="fill: #262626" transform="translate(56.27 170.121234) scale(0.07 -0.07)">
       <use xlink:href="#ArialMT-31"/>
       <use xlink:href="#ArialMT-2e" x="55.615234"/>
       <use xlink:href="#ArialMT-36" x="83.398438"/>
      </g>
     </g>
    </g>
    <g id="ytick_5">
     <g id="line2d_13">
      <g>
       <use xlink:href="#m1b0af878f0" x="72" y="138.048" style="fill: #262626; stroke: #262626"/>
      </g>
     </g>
     <g id="text_14">
      <!-- 1.8 -->
      <g style="fill: #262626" transform="translate(56.27 140.553234) scale(0.07 -0.07)">
       <use xlink:href="#ArialMT-31"/>
       <use xlink:href="#ArialMT-2e" x="55.615234"/>
       <use xlink:href="#ArialMT-38" x="83.398438"/>
      </g>
     </g>
    </g>
    <g id="ytick_6">
     <g id="line2d_14">
      <g>
       <use xlink:href="#m1b0af878f0" x="72" y="108.48" style="fill: #262626; stroke: #262626"/>
      </g>
     </g>
     <g id="text_15">
      <!-- 2.0 -->
      <g style="fill: #262626" transform="translate(56.27 110.985234) scale(0.07 -0.07)">
       <use xlink:href="#ArialMT-32"/>
       <use xlink:href="#ArialMT-2e" x="55.615234"/>
       <use xlink:href="#ArialMT-30" x="83.398438"/>
      </g>
     </g>
    </g>
    <g id="ytick_7">
     <g id="line2d_15">
      <g>
       <use xlink:href="#m1b0af878f0" x="72" y="78.912" style="fill: #262626; stroke: #262626"/>
      </g>
     </g>
     <g id="text_16">
      <!-- 2.2 -->
      <g style="fill: #262626" transform="translate(56.27 81.417234) scale(0.07 -0.07)">
       <use xlink:href="#ArialMT-32"/>
       <use xlink:href="#ArialMT-2e" x="55.615234"/>
       <use xlink:href="#ArialMT-32" x="83.398438"/>
      </g>
     </g>
    </g>
    <g id="ytick_8">
     <g id="line2d_16">
      <g>
       <use xlink:href="#m1b0af878f0" x="72" y="49.344" style="fill: #262626; stroke: #262626"/>
      </g>
     </g>
     <g id="text_17">
      <!-- 2.4 -->
      <g style="fill: #262626" transform="translate(56.27 51.849234) scale(0.07 -0.07)">
       <use xlink:href="#ArialMT-32"/>
       <use xlink:href="#ArialMT-2e" x="55.615234"/>
       <use xlink:href="#ArialMT-34" x="83.398438"/>
      </g>
     </g>
    </g>
    <g id="text_18">
     <!-- Temperature $(\Delta ^{\circ}$C) exceeded -->
     <g style="fill: #262626" transform="translate(50.29 204.975) rotate(-90) scale(0.09 -0.09)">
      <defs>
       <path id="ArialMT-54" d="M 1659 0 
L 1659 4041 
L 150 4041 
L 150 4581 
L 3781 4581 
L 3781 4041 
L 2266 4041 
L 2266 0 
L 1659 0 
z
" transform="scale(0.015625)"/>
       <path id="ArialMT-70" d="M 422 -1272 
L 422 3319 
L 934 3319 
L 934 2888 
Q 1116 3141 1344 3267 
Q 1572 3394 1897 3394 
Q 2322 3394 2647 3175 
Q 2972 2956 3137 2557 
Q 3303 2159 3303 1684 
Q 3303 1175 3120 767 
Q 2938 359 2589 142 
Q 2241 -75 1856 -75 
Q 1575 -75 1351 44 
Q 1128 163 984 344 
L 984 -1272 
L 422 -1272 
z
M 931 1641 
Q 931 1000 1190 694 
Q 1450 388 1819 388 
Q 2194 388 2461 705 
Q 2728 1022 2728 1688 
Q 2728 2322 2467 2637 
Q 2206 2953 1844 2953 
Q 1484 2953 1207 2617 
Q 931 2281 931 1641 
z
" transform="scale(0.015625)"/>
       <path id="ArialMT-75" d="M 2597 0 
L 2597 488 
Q 2209 -75 1544 -75 
Q 1250 -75 995 37 
Q 741 150 617 320 
Q 494 491 444 738 
Q 409 903 409 1263 
L 409 3319 
L 972 3319 
L 972 1478 
Q 972 1038 1006 884 
Q 1059 663 1231 536 
Q 1403 409 1656 409 
Q 1909 409 2131 539 
Q 2353 669 2445 892 
Q 2538 1116 2538 1541 
L 2538 3319 
L 3100 3319 
L 3100 0 
L 2597 0 
z
" transform="scale(0.015625)"/>
       <path id="DejaVuSans-28" d="M 1984 4856 
Q 1566 4138 1362 3434 
Q 1159 2731 1159 2009 
Q 1159 1288 1364 580 
Q 1569 -128 1984 -844 
L 1484 -844 
Q 1016 -109 783 600 
Q 550 1309 550 2009 
Q 550 2706 781 3412 
Q 1013 4119 1484 4856 
L 1984 4856 
z
" transform="scale(0.015625)"/>
       <path id="DejaVuSans-394" d="M 2188 4044 
L 906 525 
L 3472 525 
L 2188 4044 
z
M 50 0 
L 1831 4666 
L 2547 4666 
L 4325 0 
L 50 0 
z
" transform="scale(0.015625)"/>
       <path id="DejaVuSans-2218" d="M 2000 2619 
Q 1750 2619 1578 2445 
Q 1406 2272 1406 2022 
Q 1406 1775 1578 1605 
Q 1750 1435 2000 1435 
Q 2250 1435 2422 1605 
Q 2594 1775 2594 2022 
Q 2594 2269 2420 2444 
Q 2247 2619 2000 2619 
z
M 2000 3022 
Q 2200 3022 2384 2945 
Q 2569 2869 2703 2725 
Q 2847 2585 2919 2406 
Q 2991 2228 2991 2022 
Q 2991 1610 2702 1324 
Q 2413 1038 1994 1038 
Q 1572 1038 1290 1319 
Q 1009 1600 1009 2022 
Q 1009 2441 1296 2731 
Q 1584 3022 2000 3022 
z
" transform="scale(0.015625)"/>
       <path id="ArialMT-78" d="M 47 0 
L 1259 1725 
L 138 3319 
L 841 3319 
L 1350 2541 
Q 1494 2319 1581 2169 
Q 1719 2375 1834 2534 
L 2394 3319 
L 3066 3319 
L 1919 1756 
L 3153 0 
L 2463 0 
L 1781 1031 
L 1600 1309 
L 728 0 
L 47 0 
z
" transform="scale(0.015625)"/>
       <path id="ArialMT-63" d="M 2588 1216 
L 3141 1144 
Q 3050 572 2676 248 
Q 2303 -75 1759 -75 
Q 1078 -75 664 370 
Q 250 816 250 1647 
Q 250 2184 428 2587 
Q 606 2991 970 3192 
Q 1334 3394 1763 3394 
Q 2303 3394 2647 3120 
Q 2991 2847 3088 2344 
L 2541 2259 
Q 2463 2594 2264 2762 
Q 2066 2931 1784 2931 
Q 1359 2931 1093 2626 
Q 828 2322 828 1663 
Q 828 994 1084 691 
Q 1341 388 1753 388 
Q 2084 388 2306 591 
Q 2528 794 2588 1216 
z
" transform="scale(0.015625)"/>
      </defs>
      <use xlink:href="#ArialMT-54" transform="translate(0 0.125)"/>
      <use xlink:href="#ArialMT-65" transform="translate(61.083984 0.125)"/>
      <use xlink:href="#ArialMT-6d" transform="translate(116.699219 0.125)"/>
      <use xlink:href="#ArialMT-70" transform="translate(200 0.125)"/>
      <use xlink:href="#ArialMT-65" transform="translate(255.615234 0.125)"/>
      <use xlink:href="#ArialMT-72" transform="translate(311.230469 0.125)"/>
      <use xlink:href="#ArialMT-61" transform="translate(344.53125 0.125)"/>
      <use xlink:href="#ArialMT-74" transform="translate(400.146484 0.125)"/>
      <use xlink:href="#ArialMT-75" transform="translate(427.929688 0.125)"/>
      <use xlink:href="#ArialMT-72" transform="translate(483.544922 0.125)"/>
      <use xlink:href="#ArialMT-65" transform="translate(516.845703 0.125)"/>
      <use xlink:href="#ArialMT-20" transform="translate(572.460938 0.125)"/>
      <use xlink:href="#DejaVuSans-28" transform="translate(600.244141 0.125)"/>
      <use xlink:href="#DejaVuSans-394" transform="translate(639.257812 0.125)"/>
      <use xlink:href="#DejaVuSans-2218" transform="translate(708.623047 38.40625) scale(0.7)"/>
      <use xlink:href="#ArialMT-43" transform="translate(755.175781 0.125)"/>
      <use xlink:href="#ArialMT-29" transform="translate(827.392578 0.125)"/>
      <use xlink:href="#ArialMT-20" transform="translate(860.693359 0.125)"/>
      <use xlink:href="#ArialMT-65" transform="translate(888.476562 0.125)"/>
      <use xlink:href="#ArialMT-78" transform="translate(944.091797 0.125)"/>
      <use xlink:href="#ArialMT-63" transform="translate(994.091797 0.125)"/>
      <use xlink:href="#ArialMT-65" transform="translate(1044.091797 0.125)"/>
      <use xlink:href="#ArialMT-65" transform="translate(1099.707031 0.125)"/>
      <use xlink:href="#ArialMT-64" transform="translate(1155.322266 0.125)"/>
      <use xlink:href="#ArialMT-65" transform="translate(1210.9375 0.125)"/>
      <use xlink:href="#ArialMT-64" transform="translate(1266.552734 0.125)"/>
     </g>
    </g>
   </g>
   <g id="PathCollection_1">
    <path d="M 81.792114 230.271623 
C 82.692243 230.271623 83.555626 229.913998 84.192114 229.27751 
C 84.828601 228.641023 85.186226 227.777639 85.186226 226.87751 
C 85.186226 225.977381 84.828601 225.113998 84.192114 224.47751 
C 83.555626 223.841023 82.692243 223.483398 81.792114 223.483398 
C 80.891984 223.483398 80.028601 223.841023 79.392114 224.47751 
C 78.755626 225.113998 78.398001 225.977381 78.398001 226.87751 
C 78.398001 227.777639 78.755626 228.641023 79.392114 229.27751 
C 80.028601 229.913998 80.891984 230.271623 81.792114 230.271623 
z
" clip-path="url(#p4d3a161c89)" style="fill: #4c72b0; stroke: #ffffff; stroke-width: 0.271529"/>
    <path d="M 114.685754 217.308396 
C 115.585884 217.308396 116.449267 216.950771 117.085754 216.314284 
C 117.722242 215.677796 118.079867 214.814413 118.079867 213.914284 
C 118.079867 213.014155 117.722242 212.150771 117.085754 211.514284 
C 116.449267 210.877796 115.585884 210.520171 114.685754 210.520171 
C 113.785625 210.520171 112.922242 210.877796 112.285754 211.514284 
C 111.649267 212.150771 111.291642 213.014155 111.291642 213.914284 
C 111.291642 214.814413 111.649267 215.677796 112.285754 216.314284 
C 112.922242 216.950771 113.785625 217.308396 114.685754 217.308396 
z
" clip-path="url(#p4d3a161c89)" style="fill: #4c72b0; stroke: #ffffff; stroke-width: 0.271529"/>
    <path d="M 144.816745 205.433917 
C 145.716874 205.433917 146.580258 205.076292 147.216745 204.439805 
C 147.853232 203.803317 148.210858 202.939934 148.210858 202.039805 
C 148.210858 201.139675 147.853232 200.276292 147.216745 199.639805 
C 146.580258 199.003317 145.716874 198.645692 144.816745 198.645692 
C 143.916616 198.645692 143.053232 199.003317 142.416745 199.639805 
C 141.780258 200.276292 141.422632 201.139675 141.422632 202.039805 
C 141.422632 202.939934 141.780258 203.803317 142.416745 204.439805 
C 143.053232 205.076292 143.916616 205.433917 144.816745 205.433917 
z
" clip-path="url(#p4d3a161c89)" style="fill: #4c72b0; stroke: #ffffff; stroke-width: 0.271529"/>
    <path d="M 174.947736 193.559438 
C 175.847865 193.559438 176.711248 193.201813 177.347736 192.565325 
C 177.984223 191.928838 178.341848 191.065454 178.341848 190.165325 
C 178.341848 189.265196 177.984223 188.401813 177.347736 187.765325 
C 176.711248 187.128838 175.847865 186.771213 174.947736 186.771213 
C 174.047607 186.771213 173.184223 187.128838 172.547736 187.765325 
C 171.911248 188.401813 171.553623 189.265196 171.553623 190.165325 
C 171.553623 191.065454 171.911248 191.928838 172.547736 192.565325 
C 173.184223 193.201813 174.047607 193.559438 174.947736 193.559438 
z
" clip-path="url(#p4d3a161c89)" style="fill: #4c72b0; stroke: #ffffff; stroke-width: 0.271529"/>
    <path d="M 207.589801 180.695356 
C 208.48993 180.695356 209.353314 180.337731 209.989801 179.701243 
C 210.626289 179.064756 210.983914 178.201373 210.983914 177.301243 
C 210.983914 176.401114 210.626289 175.537731 209.989801 174.901243 
C 209.353314 174.264756 208.48993 173.907131 207.589801 173.907131 
C 206.689672 173.907131 205.826289 174.264756 205.189801 174.901243 
C 204.553314 175.537731 204.195689 176.401114 204.195689 177.301243 
C 204.195689 178.201373 204.553314 179.064756 205.189801 179.701243 
C 205.826289 180.337731 206.689672 180.695356 207.589801 180.695356 
z
" clip-path="url(#p4d3a161c89)" style="fill: #4c72b0; stroke: #ffffff; stroke-width: 0.271529"/>
    <path d="M 264.623595 158.218611 
C 265.523724 158.218611 266.387108 157.860986 267.023595 157.224498 
C 267.660082 156.588011 268.017708 155.724627 268.017708 154.824498 
C 268.017708 153.924369 267.660082 153.060986 267.023595 152.424498 
C 266.387108 151.788011 265.523724 151.430386 264.623595 151.430386 
C 263.723466 151.430386 262.860082 151.788011 262.223595 152.424498 
C 261.587108 153.060986 261.229482 153.924369 261.229482 154.824498 
C 261.229482 155.724627 261.587108 156.588011 262.223595 157.224498 
C 262.860082 157.860986 263.723466 158.218611 264.623595 158.218611 
z
" clip-path="url(#p4d3a161c89)" style="fill: #4c72b0; stroke: #ffffff; stroke-width: 0.271529"/>
    <path d="M 81.792114 225.881775 
C 82.603479 225.881775 83.381722 225.559416 83.955444 224.985694 
C 84.529166 224.411972 84.851525 223.633729 84.851525 222.822363 
C 84.851525 222.010998 84.529166 221.232755 83.955444 220.659033 
C 83.381722 220.085311 82.603479 219.762952 81.792114 219.762952 
C 80.980748 219.762952 80.202505 220.085311 79.628783 220.659033 
C 79.055061 221.232755 78.732702 222.010998 78.732702 222.822363 
C 78.732702 223.633729 79.055061 224.411972 79.628783 224.985694 
C 80.202505 225.559416 80.980748 225.881775 81.792114 225.881775 
z
" clip-path="url(#p4d3a161c89)" style="fill: #4c72b0; stroke: #ffffff; stroke-width: 0.271529"/>
    <path d="M 114.685754 208.554283 
C 115.49712 208.554283 116.275363 208.231924 116.849085 207.658202 
C 117.422807 207.08448 117.745166 206.306237 117.745166 205.494872 
C 117.745166 204.683506 117.422807 203.905263 116.849085 203.331541 
C 116.275363 202.757819 115.49712 202.43546 114.685754 202.43546 
C 113.874389 202.43546 113.096146 202.757819 112.522424 203.331541 
C 111.948702 203.905263 111.626343 204.683506 111.626343 205.494872 
C 111.626343 206.306237 111.948702 207.08448 112.522424 207.658202 
C 113.096146 208.231924 113.874389 208.554283 114.685754 208.554283 
z
" clip-path="url(#p4d3a161c89)" style="fill: #4c72b0; stroke: #ffffff; stroke-width: 0.271529"/>
    <path d="M 144.816745 192.682082 
C 145.62811 192.682082 146.406354 192.359723 146.980076 191.786001 
C 147.553798 191.212279 147.876157 190.434036 147.876157 189.62267 
C 147.876157 188.811305 147.553798 188.033061 146.980076 187.459339 
C 146.406354 186.885617 145.62811 186.563258 144.816745 186.563258 
C 144.00538 186.563258 143.227136 186.885617 142.653414 187.459339 
C 142.079692 188.033061 141.757333 188.811305 141.757333 189.62267 
C 141.757333 190.434036 142.079692 191.212279 142.653414 191.786001 
C 143.227136 192.359723 144.00538 192.682082 144.816745 192.682082 
z
" clip-path="url(#p4d3a161c89)" style="fill: #4c72b0; stroke: #ffffff; stroke-width: 0.271529"/>
    <path d="M 174.947736 176.809881 
C 175.759101 176.809881 176.537344 176.487522 177.111066 175.9138 
C 177.684788 175.340078 178.007147 174.561834 178.007147 173.750469 
C 178.007147 172.939103 177.684788 172.16086 177.111066 171.587138 
C 176.537344 171.013416 175.759101 170.691057 174.947736 170.691057 
C 174.13637 170.691057 173.358127 171.013416 172.784405 171.587138 
C 172.210683 172.16086 171.888324 172.939103 171.888324 173.750469 
C 171.888324 174.561834 172.210683 175.340078 172.784405 175.9138 
C 173.358127 176.487522 174.13637 176.809881 174.947736 176.809881 
z
" clip-path="url(#p4d3a161c89)" style="fill: #4c72b0; stroke: #ffffff; stroke-width: 0.271529"/>
    <path d="M 207.589801 159.614912 
C 208.401167 159.614912 209.17941 159.292553 209.753132 158.718831 
C 210.326854 158.145109 210.649213 157.366866 210.649213 156.5555 
C 210.649213 155.744135 210.326854 154.965892 209.753132 154.39217 
C 209.17941 153.818448 208.401167 153.496089 207.589801 153.496089 
C 206.778436 153.496089 206.000192 153.818448 205.42647 154.39217 
C 204.852748 154.965892 204.530389 155.744135 204.530389 156.5555 
C 204.530389 157.366866 204.852748 158.145109 205.42647 158.718831 
C 206.000192 159.292553 206.778436 159.614912 207.589801 159.614912 
z
" clip-path="url(#p4d3a161c89)" style="fill: #4c72b0; stroke: #ffffff; stroke-width: 0.271529"/>
    <path d="M 264.623595 129.571032 
C 265.434961 129.571032 266.213204 129.248673 266.786926 128.674951 
C 267.360648 128.101229 267.683007 127.322986 267.683007 126.51162 
C 267.683007 125.700255 267.360648 124.922012 266.786926 124.34829 
C 266.213204 123.774568 265.434961 123.452209 264.623595 123.452209 
C 263.81223 123.452209 263.033986 123.774568 262.460264 124.34829 
C 261.886542 124.922012 261.564183 125.700255 261.564183 126.51162 
C 261.564183 127.322986 261.886542 128.101229 262.460264 128.674951 
C 263.033986 129.248673 263.81223 129.571032 264.623595 129.571032 
z
" clip-path="url(#p4d3a161c89)" style="fill: #4c72b0; stroke: #ffffff; stroke-width: 0.271529"/>
    <path d="M 81.792114 220.925526 
C 82.503728 220.925526 83.186293 220.642799 83.68948 220.139611 
C 84.192668 219.636424 84.475395 218.953859 84.475395 218.242245 
C 84.475395 217.53063 84.192668 216.848066 83.68948 216.344878 
C 83.186293 215.841691 82.503728 215.558963 81.792114 215.558963 
C 81.080499 215.558963 80.397934 215.841691 79.894747 216.344878 
C 79.391559 216.848066 79.108832 217.53063 79.108832 218.242245 
C 79.108832 218.953859 79.391559 219.636424 79.894747 220.139611 
C 80.397934 220.642799 81.080499 220.925526 81.792114 220.925526 
z
" clip-path="url(#p4d3a161c89)" style="fill: #4c72b0; stroke: #ffffff; stroke-width: 0.271529"/>
    <path d="M 114.685754 200.162292 
C 115.397369 200.162292 116.079933 199.879565 116.583121 199.376377 
C 117.086308 198.87319 117.369036 198.190625 117.369036 197.479011 
C 117.369036 196.767396 117.086308 196.084832 116.583121 195.581644 
C 116.079933 195.078457 115.397369 194.795729 114.685754 194.795729 
C 113.97414 194.795729 113.291575 195.078457 112.788388 195.581644 
C 112.2852 196.084832 112.002473 196.767396 112.002473 197.479011 
C 112.002473 198.190625 112.2852 198.87319 112.788388 199.376377 
C 113.291575 199.879565 113.97414 200.162292 114.685754 200.162292 
z
" clip-path="url(#p4d3a161c89)" style="fill: #4c72b0; stroke: #ffffff; stroke-width: 0.271529"/>
    <path d="M 144.816745 181.142908 
C 145.52836 181.142908 146.210924 180.86018 146.714112 180.356993 
C 147.217299 179.853805 147.500027 179.171241 147.500027 178.459626 
C 147.500027 177.748012 147.217299 177.065447 146.714112 176.56226 
C 146.210924 176.059072 145.52836 175.776345 144.816745 175.776345 
C 144.10513 175.776345 143.422566 176.059072 142.919378 176.56226 
C 142.416191 177.065447 142.133463 177.748012 142.133463 178.459626 
C 142.133463 179.171241 142.416191 179.853805 142.919378 180.356993 
C 143.422566 180.86018 144.10513 181.142908 144.816745 181.142908 
z
" clip-path="url(#p4d3a161c89)" style="fill: #4c72b0; stroke: #ffffff; stroke-width: 0.271529"/>
    <path d="M 174.947736 162.123523 
C 175.65935 162.123523 176.341915 161.840796 176.845102 161.337608 
C 177.34829 160.834421 177.631017 160.151856 177.631017 159.440242 
C 177.631017 158.728627 177.34829 158.046062 176.845102 157.542875 
C 176.341915 157.039687 175.65935 156.75696 174.947736 156.75696 
C 174.236121 156.75696 173.553557 157.039687 173.050369 157.542875 
C 172.547182 158.046062 172.264454 158.728627 172.264454 159.440242 
C 172.264454 160.151856 172.547182 160.834421 173.050369 161.337608 
C 173.553557 161.840796 174.236121 162.123523 174.947736 162.123523 
z
" clip-path="url(#p4d3a161c89)" style="fill: #4c72b0; stroke: #ffffff; stroke-width: 0.271529"/>
    <path d="M 207.589801 141.519089 
C 208.301416 141.519089 208.98398 141.236362 209.487168 140.733174 
C 209.990355 140.229987 210.273083 139.547422 210.273083 138.835808 
C 210.273083 138.124193 209.990355 137.441629 209.487168 136.938441 
C 208.98398 136.435254 208.301416 136.152526 207.589801 136.152526 
C 206.878186 136.152526 206.195622 136.435254 205.692434 136.938441 
C 205.189247 137.441629 204.906519 138.124193 204.906519 138.835808 
C 204.906519 139.547422 205.189247 140.229987 205.692434 140.733174 
C 206.195622 141.236362 206.878186 141.519089 207.589801 141.519089 
z
" clip-path="url(#p4d3a161c89)" style="fill: #4c72b0; stroke: #ffffff; stroke-width: 0.271529"/>
    <path d="M 264.623595 105.518027 
C 265.33521 105.518027 266.017774 105.2353 266.520962 104.732112 
C 267.024149 104.228925 267.306877 103.54636 267.306877 102.834746 
C 267.306877 102.123131 267.024149 101.440567 266.520962 100.937379 
C 266.017774 100.434192 265.33521 100.151464 264.623595 100.151464 
C 263.91198 100.151464 263.229416 100.434192 262.726228 100.937379 
C 262.223041 101.440567 261.940313 102.123131 261.940313 102.834746 
C 261.940313 103.54636 262.223041 104.228925 262.726228 104.732112 
C 263.229416 105.2353 263.91198 105.518027 264.623595 105.518027 
z
" clip-path="url(#p4d3a161c89)" style="fill: #4c72b0; stroke: #ffffff; stroke-width: 0.271529"/>
    <path d="M 81.792114 216.934439 
C 82.387493 216.934439 82.958567 216.697893 83.379564 216.276896 
C 83.800561 215.855899 84.037108 215.284825 84.037108 214.689445 
C 84.037108 214.094066 83.800561 213.522991 83.379564 213.101994 
C 82.958567 212.680997 82.387493 212.444451 81.792114 212.444451 
C 81.196734 212.444451 80.62566 212.680997 80.204663 213.101994 
C 79.783666 213.522991 79.547119 214.094066 79.547119 214.689445 
C 79.547119 215.284825 79.783666 215.855899 80.204663 216.276896 
C 80.62566 216.697893 81.196734 216.934439 81.792114 216.934439 
z
" clip-path="url(#p4d3a161c89)" style="fill: #4c72b0; stroke: #ffffff; stroke-width: 0.271529"/>
    <path d="M 114.685754 192.968062 
C 115.281134 192.968062 115.852208 192.731515 116.273205 192.310518 
C 116.694202 191.889522 116.930749 191.318447 116.930749 190.723068 
C 116.930749 190.127688 116.694202 189.556614 116.273205 189.135617 
C 115.852208 188.71462 115.281134 188.478073 114.685754 188.478073 
C 114.090375 188.478073 113.5193 188.71462 113.098304 189.135617 
C 112.677307 189.556614 112.44076 190.127688 112.44076 190.723068 
C 112.44076 191.318447 112.677307 191.889522 113.098304 192.310518 
C 113.5193 192.731515 114.090375 192.968062 114.685754 192.968062 
z
" clip-path="url(#p4d3a161c89)" style="fill: #4c72b0; stroke: #ffffff; stroke-width: 0.271529"/>
    <path d="M 144.816745 171.014557 
C 145.412125 171.014557 145.983199 170.778011 146.404196 170.357014 
C 146.825193 169.936017 147.061739 169.364942 147.061739 168.769563 
C 147.061739 168.174184 146.825193 167.603109 146.404196 167.182112 
C 145.983199 166.761115 145.412125 166.524569 144.816745 166.524569 
C 144.221366 166.524569 143.650291 166.761115 143.229294 167.182112 
C 142.808297 167.603109 142.571751 168.174184 142.571751 168.769563 
C 142.571751 169.364942 142.808297 169.936017 143.229294 170.357014 
C 143.650291 170.778011 144.221366 171.014557 144.816745 171.014557 
z
" clip-path="url(#p4d3a161c89)" style="fill: #4c72b0; stroke: #ffffff; stroke-width: 0.271529"/>
    <path d="M 174.947736 149.061053 
C 175.543115 149.061053 176.11419 148.824506 176.535186 148.403509 
C 176.956183 147.982512 177.19273 147.411438 177.19273 146.816058 
C 177.19273 146.220679 176.956183 145.649604 176.535186 145.228608 
C 176.11419 144.807611 175.543115 144.571064 174.947736 144.571064 
C 174.352356 144.571064 173.781282 144.807611 173.360285 145.228608 
C 172.939288 145.649604 172.702741 146.220679 172.702741 146.816058 
C 172.702741 147.411438 172.939288 147.982512 173.360285 148.403509 
C 173.781282 148.824506 174.352356 149.061053 174.947736 149.061053 
z
" clip-path="url(#p4d3a161c89)" style="fill: #4c72b0; stroke: #ffffff; stroke-width: 0.271529"/>
    <path d="M 207.589801 125.277974 
C 208.185181 125.277974 208.756255 125.041427 209.177252 124.62043 
C 209.598249 124.199433 209.834795 123.628359 209.834795 123.032979 
C 209.834795 122.4376 209.598249 121.866525 209.177252 121.445529 
C 208.756255 121.024532 208.185181 120.787985 207.589801 120.787985 
C 206.994422 120.787985 206.423347 121.024532 206.00235 121.445529 
C 205.581353 121.866525 205.344807 122.4376 205.344807 123.032979 
C 205.344807 123.628359 205.581353 124.199433 206.00235 124.62043 
C 206.423347 125.041427 206.994422 125.277974 207.589801 125.277974 
z
" clip-path="url(#p4d3a161c89)" style="fill: #4c72b0; stroke: #ffffff; stroke-width: 0.271529"/>
    <path d="M 264.623595 83.723029 
C 265.218975 83.723029 265.790049 83.486482 266.211046 83.065485 
C 266.632043 82.644488 266.868589 82.073414 266.868589 81.478034 
C 266.868589 80.882655 266.632043 80.31158 266.211046 79.890584 
C 265.790049 79.469587 265.218975 79.23304 264.623595 79.23304 
C 264.028216 79.23304 263.457141 79.469587 263.036144 79.890584 
C 262.615147 80.31158 262.378601 80.882655 262.378601 81.478034 
C 262.378601 82.073414 262.615147 82.644488 263.036144 83.065485 
C 263.457141 83.486482 264.028216 83.723029 264.623595 83.723029 
z
" clip-path="url(#p4d3a161c89)" style="fill: #4c72b0; stroke: #ffffff; stroke-width: 0.271529"/>
    <path d="M 81.792114 210.421834 
C 82.242178 210.421834 82.67387 210.243021 82.992114 209.924777 
C 83.310357 209.606534 83.48917 209.174842 83.48917 208.724777 
C 83.48917 208.274713 83.310357 207.843021 82.992114 207.524777 
C 82.67387 207.206534 82.242178 207.027721 81.792114 207.027721 
C 81.342049 207.027721 80.910357 207.206534 80.592114 207.524777 
C 80.27387 207.843021 80.095057 208.274713 80.095057 208.724777 
C 80.095057 209.174842 80.27387 209.606534 80.592114 209.924777 
C 80.910357 210.243021 81.342049 210.421834 81.792114 210.421834 
z
" clip-path="url(#p4d3a161c89)" style="fill: #4c72b0; stroke: #ffffff; stroke-width: 0.271529"/>
    <path d="M 114.685754 181.255205 
C 115.135819 181.255205 115.567511 181.076392 115.885754 180.758148 
C 116.203998 180.439905 116.382811 180.008213 116.382811 179.558148 
C 116.382811 179.108084 116.203998 178.676392 115.885754 178.358148 
C 115.567511 178.039905 115.135819 177.861092 114.685754 177.861092 
C 114.23569 177.861092 113.803998 178.039905 113.485754 178.358148 
C 113.167511 178.676392 112.988698 179.108084 112.988698 179.558148 
C 112.988698 180.008213 113.167511 180.439905 113.485754 180.758148 
C 113.803998 181.076392 114.23569 181.255205 114.685754 181.255205 
z
" clip-path="url(#p4d3a161c89)" style="fill: #4c72b0; stroke: #ffffff; stroke-width: 0.271529"/>
    <path d="M 144.816745 154.538204 
C 145.26681 154.538204 145.698501 154.359391 146.016745 154.041147 
C 146.334989 153.722904 146.513801 153.291212 146.513801 152.841147 
C 146.513801 152.391083 146.334989 151.959391 146.016745 151.641147 
C 145.698501 151.322904 145.26681 151.144091 144.816745 151.144091 
C 144.36668 151.144091 143.934989 151.322904 143.616745 151.641147 
C 143.298501 151.959391 143.119689 152.391083 143.119689 152.841147 
C 143.119689 153.291212 143.298501 153.722904 143.616745 154.041147 
C 143.934989 154.359391 144.36668 154.538204 144.816745 154.538204 
z
" clip-path="url(#p4d3a161c89)" style="fill: #4c72b0; stroke: #ffffff; stroke-width: 0.271529"/>
    <path d="M 174.947736 127.821203 
C 175.3978 127.821203 175.829492 127.64239 176.147736 127.324147 
C 176.465979 127.005903 176.644792 126.574211 176.644792 126.124147 
C 176.644792 125.674082 176.465979 125.24239 176.147736 124.924147 
C 175.829492 124.605903 175.3978 124.42709 174.947736 124.42709 
C 174.497671 124.42709 174.065979 124.605903 173.747736 124.924147 
C 173.429492 125.24239 173.250679 125.674082 173.250679 126.124147 
C 173.250679 126.574211 173.429492 127.005903 173.747736 127.324147 
C 174.065979 127.64239 174.497671 127.821203 174.947736 127.821203 
z
" clip-path="url(#p4d3a161c89)" style="fill: #4c72b0; stroke: #ffffff; stroke-width: 0.271529"/>
    <path d="M 207.589801 98.877644 
C 208.039866 98.877644 208.471557 98.698832 208.789801 98.380588 
C 209.108045 98.062344 209.286857 97.630653 209.286857 97.180588 
C 209.286857 96.730523 209.108045 96.298832 208.789801 95.980588 
C 208.471557 95.662344 208.039866 95.483532 207.589801 95.483532 
C 207.139736 95.483532 206.708045 95.662344 206.389801 95.980588 
C 206.071557 96.298832 205.892745 96.730523 205.892745 97.180588 
C 205.892745 97.630653 206.071557 98.062344 206.389801 98.380588 
C 206.708045 98.698832 207.139736 98.877644 207.589801 98.877644 
z
" clip-path="url(#p4d3a161c89)" style="fill: #4c72b0; stroke: #ffffff; stroke-width: 0.271529"/>
    <path d="M 264.623595 48.30606 
C 265.07366 48.30606 265.505351 48.127248 265.823595 47.809004 
C 266.141839 47.49076 266.320651 47.059069 266.320651 46.609004 
C 266.320651 46.15894 266.141839 45.727248 265.823595 45.409004 
C 265.505351 45.09076 265.07366 44.911948 264.623595 44.911948 
C 264.17353 44.911948 263.741839 45.09076 263.423595 45.409004 
C 263.105351 45.727248 262.926539 46.15894 262.926539 46.609004 
C 262.926539 47.059069 263.105351 47.49076 263.423595 47.809004 
C 263.741839 48.127248 264.17353 48.30606 264.623595 48.30606 
z
" clip-path="url(#p4d3a161c89)" style="fill: #4c72b0; stroke: #ffffff; stroke-width: 0.271529"/>
   </g>
   <g id="PathCollection_2"/>
   <g id="PathCollection_3"/>
   <g id="PathCollection_4"/>
   <g id="PathCollection_5"/>
   <g id="PathCollection_6"/>
   <g id="PathCollection_7">
    <path d="M 81.792114 230.271623 
C 82.692243 230.271623 83.555626 229.913998 84.192114 229.27751 
C 84.828601 228.641023 85.186226 227.777639 85.186226 226.87751 
C 85.186226 225.977381 84.828601 225.113998 84.192114 224.47751 
C 83.555626 223.841023 82.692243 223.483398 81.792114 223.483398 
C 80.891984 223.483398 80.028601 223.841023 79.392114 224.47751 
C 78.755626 225.113998 78.398001 225.977381 78.398001 226.87751 
C 78.398001 227.777639 78.755626 228.641023 79.392114 229.27751 
C 80.028601 229.913998 80.891984 230.271623 81.792114 230.271623 
z
" clip-path="url(#p4d3a161c89)" style="stroke: #ffffff; stroke-width: 0.271529"/>
    <path d="M 114.685754 217.308396 
C 115.585884 217.308396 116.449267 216.950771 117.085754 216.314284 
C 117.722242 215.677796 118.079867 214.814413 118.079867 213.914284 
C 118.079867 213.014155 117.722242 212.150771 117.085754 211.514284 
C 116.449267 210.877796 115.585884 210.520171 114.685754 210.520171 
C 113.785625 210.520171 112.922242 210.877796 112.285754 211.514284 
C 111.649267 212.150771 111.291642 213.014155 111.291642 213.914284 
C 111.291642 214.814413 111.649267 215.677796 112.285754 216.314284 
C 112.922242 216.950771 113.785625 217.308396 114.685754 217.308396 
z
" clip-path="url(#p4d3a161c89)" style="fill: #3f2819; stroke: #ffffff; stroke-width: 0.271529"/>
    <path d="M 144.816745 205.433917 
C 145.716874 205.433917 146.580258 205.076292 147.216745 204.439805 
C 147.853232 203.803317 148.210858 202.939934 148.210858 202.039805 
C 148.210858 201.139675 147.853232 200.276292 147.216745 199.639805 
C 146.580258 199.003317 145.716874 198.645692 144.816745 198.645692 
C 143.916616 198.645692 143.053232 199.003317 142.416745 199.639805 
C 141.780258 200.276292 141.422632 201.139675 141.422632 202.039805 
C 141.422632 202.939934 141.780258 203.803317 142.416745 204.439805 
C 143.053232 205.076292 143.916616 205.433917 144.816745 205.433917 
z
" clip-path="url(#p4d3a161c89)" style="fill: #7e5033; stroke: #ffffff; stroke-width: 0.271529"/>
    <path d="M 174.947736 193.559438 
C 175.847865 193.559438 176.711248 193.201813 177.347736 192.565325 
C 177.984223 191.928838 178.341848 191.065454 178.341848 190.165325 
C 178.341848 189.265196 177.984223 188.401813 177.347736 187.765325 
C 176.711248 187.128838 175.847865 186.771213 174.947736 186.771213 
C 174.047607 186.771213 173.184223 187.128838 172.547736 187.765325 
C 171.911248 188.401813 171.553623 189.265196 171.553623 190.165325 
C 171.553623 191.065454 171.911248 191.928838 172.547736 192.565325 
C 173.184223 193.201813 174.047607 193.559438 174.947736 193.559438 
z
" clip-path="url(#p4d3a161c89)" style="fill: #bd784c; stroke: #ffffff; stroke-width: 0.271529"/>
    <path d="M 207.589801 180.695356 
C 208.48993 180.695356 209.353314 180.337731 209.989801 179.701243 
C 210.626289 179.064756 210.983914 178.201373 210.983914 177.301243 
C 210.983914 176.401114 210.626289 175.537731 209.989801 174.901243 
C 209.353314 174.264756 208.48993 173.907131 207.589801 173.907131 
C 206.689672 173.907131 205.826289 174.264756 205.189801 174.901243 
C 204.553314 175.537731 204.195689 176.401114 204.195689 177.301243 
C 204.195689 178.201373 204.553314 179.064756 205.189801 179.701243 
C 205.826289 180.337731 206.689672 180.695356 207.589801 180.695356 
z
" clip-path="url(#p4d3a161c89)" style="fill: #fc9f65; stroke: #ffffff; stroke-width: 0.271529"/>
    <path d="M 264.623595 158.218611 
C 265.523724 158.218611 266.387108 157.860986 267.023595 157.224498 
C 267.660082 156.588011 268.017708 155.724627 268.017708 154.824498 
C 268.017708 153.924369 267.660082 153.060986 267.023595 152.424498 
C 266.387108 151.788011 265.523724 151.430386 264.623595 151.430386 
C 263.723466 151.430386 262.860082 151.788011 262.223595 152.424498 
C 261.587108 153.060986 261.229482 153.924369 261.229482 154.824498 
C 261.229482 155.724627 261.587108 156.588011 262.223595 157.224498 
C 262.860082 157.860986 263.723466 158.218611 264.623595 158.218611 
z
" clip-path="url(#p4d3a161c89)" style="fill: #ffc77f; stroke: #ffffff; stroke-width: 0.271529"/>
    <path d="M 81.792114 225.881775 
C 82.603479 225.881775 83.381722 225.559416 83.955444 224.985694 
C 84.529166 224.411972 84.851525 223.633729 84.851525 222.822363 
C 84.851525 222.010998 84.529166 221.232755 83.955444 220.659033 
C 83.381722 220.085311 82.603479 219.762952 81.792114 219.762952 
C 80.980748 219.762952 80.202505 220.085311 79.628783 220.659033 
C 79.055061 221.232755 78.732702 222.010998 78.732702 222.822363 
C 78.732702 223.633729 79.055061 224.411972 79.628783 224.985694 
C 80.202505 225.559416 80.980748 225.881775 81.792114 225.881775 
z
" clip-path="url(#p4d3a161c89)" style="stroke: #ffffff; stroke-width: 0.271529"/>
    <path d="M 114.685754 208.554283 
C 115.49712 208.554283 116.275363 208.231924 116.849085 207.658202 
C 117.422807 207.08448 117.745166 206.306237 117.745166 205.494872 
C 117.745166 204.683506 117.422807 203.905263 116.849085 203.331541 
C 116.275363 202.757819 115.49712 202.43546 114.685754 202.43546 
C 113.874389 202.43546 113.096146 202.757819 112.522424 203.331541 
C 111.948702 203.905263 111.626343 204.683506 111.626343 205.494872 
C 111.626343 206.306237 111.948702 207.08448 112.522424 207.658202 
C 113.096146 208.231924 113.874389 208.554283 114.685754 208.554283 
z
" clip-path="url(#p4d3a161c89)" style="fill: #3f2819; stroke: #ffffff; stroke-width: 0.271529"/>
    <path d="M 144.816745 192.682082 
C 145.62811 192.682082 146.406354 192.359723 146.980076 191.786001 
C 147.553798 191.212279 147.876157 190.434036 147.876157 189.62267 
C 147.876157 188.811305 147.553798 188.033061 146.980076 187.459339 
C 146.406354 186.885617 145.62811 186.563258 144.816745 186.563258 
C 144.00538 186.563258 143.227136 186.885617 142.653414 187.459339 
C 142.079692 188.033061 141.757333 188.811305 141.757333 189.62267 
C 141.757333 190.434036 142.079692 191.212279 142.653414 191.786001 
C 143.227136 192.359723 144.00538 192.682082 144.816745 192.682082 
z
" clip-path="url(#p4d3a161c89)" style="fill: #7e5033; stroke: #ffffff; stroke-width: 0.271529"/>
    <path d="M 174.947736 176.809881 
C 175.759101 176.809881 176.537344 176.487522 177.111066 175.9138 
C 177.684788 175.340078 178.007147 174.561834 178.007147 173.750469 
C 178.007147 172.939103 177.684788 172.16086 177.111066 171.587138 
C 176.537344 171.013416 175.759101 170.691057 174.947736 170.691057 
C 174.13637 170.691057 173.358127 171.013416 172.784405 171.587138 
C 172.210683 172.16086 171.888324 172.939103 171.888324 173.750469 
C 171.888324 174.561834 172.210683 175.340078 172.784405 175.9138 
C 173.358127 176.487522 174.13637 176.809881 174.947736 176.809881 
z
" clip-path="url(#p4d3a161c89)" style="fill: #bd784c; stroke: #ffffff; stroke-width: 0.271529"/>
    <path d="M 207.589801 159.614912 
C 208.401167 159.614912 209.17941 159.292553 209.753132 158.718831 
C 210.326854 158.145109 210.649213 157.366866 210.649213 156.5555 
C 210.649213 155.744135 210.326854 154.965892 209.753132 154.39217 
C 209.17941 153.818448 208.401167 153.496089 207.589801 153.496089 
C 206.778436 153.496089 206.000192 153.818448 205.42647 154.39217 
C 204.852748 154.965892 204.530389 155.744135 204.530389 156.5555 
C 204.530389 157.366866 204.852748 158.145109 205.42647 158.718831 
C 206.000192 159.292553 206.778436 159.614912 207.589801 159.614912 
z
" clip-path="url(#p4d3a161c89)" style="fill: #fc9f65; stroke: #ffffff; stroke-width: 0.271529"/>
    <path d="M 264.623595 129.571032 
C 265.434961 129.571032 266.213204 129.248673 266.786926 128.674951 
C 267.360648 128.101229 267.683007 127.322986 267.683007 126.51162 
C 267.683007 125.700255 267.360648 124.922012 266.786926 124.34829 
C 266.213204 123.774568 265.434961 123.452209 264.623595 123.452209 
C 263.81223 123.452209 263.033986 123.774568 262.460264 124.34829 
C 261.886542 124.922012 261.564183 125.700255 261.564183 126.51162 
C 261.564183 127.322986 261.886542 128.101229 262.460264 128.674951 
C 263.033986 129.248673 263.81223 129.571032 264.623595 129.571032 
z
" clip-path="url(#p4d3a161c89)" style="fill: #ffc77f; stroke: #ffffff; stroke-width: 0.271529"/>
    <path d="M 81.792114 220.925526 
C 82.503728 220.925526 83.186293 220.642799 83.68948 220.139611 
C 84.192668 219.636424 84.475395 218.953859 84.475395 218.242245 
C 84.475395 217.53063 84.192668 216.848066 83.68948 216.344878 
C 83.186293 215.841691 82.503728 215.558963 81.792114 215.558963 
C 81.080499 215.558963 80.397934 215.841691 79.894747 216.344878 
C 79.391559 216.848066 79.108832 217.53063 79.108832 218.242245 
C 79.108832 218.953859 79.391559 219.636424 79.894747 220.139611 
C 80.397934 220.642799 81.080499 220.925526 81.792114 220.925526 
z
" clip-path="url(#p4d3a161c89)" style="stroke: #ffffff; stroke-width: 0.271529"/>
    <path d="M 114.685754 200.162292 
C 115.397369 200.162292 116.079933 199.879565 116.583121 199.376377 
C 117.086308 198.87319 117.369036 198.190625 117.369036 197.479011 
C 117.369036 196.767396 117.086308 196.084832 116.583121 195.581644 
C 116.079933 195.078457 115.397369 194.795729 114.685754 194.795729 
C 113.97414 194.795729 113.291575 195.078457 112.788388 195.581644 
C 112.2852 196.084832 112.002473 196.767396 112.002473 197.479011 
C 112.002473 198.190625 112.2852 198.87319 112.788388 199.376377 
C 113.291575 199.879565 113.97414 200.162292 114.685754 200.162292 
z
" clip-path="url(#p4d3a161c89)" style="fill: #3f2819; stroke: #ffffff; stroke-width: 0.271529"/>
    <path d="M 144.816745 181.142908 
C 145.52836 181.142908 146.210924 180.86018 146.714112 180.356993 
C 147.217299 179.853805 147.500027 179.171241 147.500027 178.459626 
C 147.500027 177.748012 147.217299 177.065447 146.714112 176.56226 
C 146.210924 176.059072 145.52836 175.776345 144.816745 175.776345 
C 144.10513 175.776345 143.422566 176.059072 142.919378 176.56226 
C 142.416191 177.065447 142.133463 177.748012 142.133463 178.459626 
C 142.133463 179.171241 142.416191 179.853805 142.919378 180.356993 
C 143.422566 180.86018 144.10513 181.142908 144.816745 181.142908 
z
" clip-path="url(#p4d3a161c89)" style="fill: #7e5033; stroke: #ffffff; stroke-width: 0.271529"/>
    <path d="M 174.947736 162.123523 
C 175.65935 162.123523 176.341915 161.840796 176.845102 161.337608 
C 177.34829 160.834421 177.631017 160.151856 177.631017 159.440242 
C 177.631017 158.728627 177.34829 158.046062 176.845102 157.542875 
C 176.341915 157.039687 175.65935 156.75696 174.947736 156.75696 
C 174.236121 156.75696 173.553557 157.039687 173.050369 157.542875 
C 172.547182 158.046062 172.264454 158.728627 172.264454 159.440242 
C 172.264454 160.151856 172.547182 160.834421 173.050369 161.337608 
C 173.553557 161.840796 174.236121 162.123523 174.947736 162.123523 
z
" clip-path="url(#p4d3a161c89)" style="fill: #bd784c; stroke: #ffffff; stroke-width: 0.271529"/>
    <path d="M 207.589801 141.519089 
C 208.301416 141.519089 208.98398 141.236362 209.487168 140.733174 
C 209.990355 140.229987 210.273083 139.547422 210.273083 138.835808 
C 210.273083 138.124193 209.990355 137.441629 209.487168 136.938441 
C 208.98398 136.435254 208.301416 136.152526 207.589801 136.152526 
C 206.878186 136.152526 206.195622 136.435254 205.692434 136.938441 
C 205.189247 137.441629 204.906519 138.124193 204.906519 138.835808 
C 204.906519 139.547422 205.189247 140.229987 205.692434 140.733174 
C 206.195622 141.236362 206.878186 141.519089 207.589801 141.519089 
z
" clip-path="url(#p4d3a161c89)" style="fill: #fc9f65; stroke: #ffffff; stroke-width: 0.271529"/>
    <path d="M 264.623595 105.518027 
C 265.33521 105.518027 266.017774 105.2353 266.520962 104.732112 
C 267.024149 104.228925 267.306877 103.54636 267.306877 102.834746 
C 267.306877 102.123131 267.024149 101.440567 266.520962 100.937379 
C 266.017774 100.434192 265.33521 100.151464 264.623595 100.151464 
C 263.91198 100.151464 263.229416 100.434192 262.726228 100.937379 
C 262.223041 101.440567 261.940313 102.123131 261.940313 102.834746 
C 261.940313 103.54636 262.223041 104.228925 262.726228 104.732112 
C 263.229416 105.2353 263.91198 105.518027 264.623595 105.518027 
z
" clip-path="url(#p4d3a161c89)" style="fill: #ffc77f; stroke: #ffffff; stroke-width: 0.271529"/>
    <path d="M 81.792114 216.934439 
C 82.387493 216.934439 82.958567 216.697893 83.379564 216.276896 
C 83.800561 215.855899 84.037108 215.284825 84.037108 214.689445 
C 84.037108 214.094066 83.800561 213.522991 83.379564 213.101994 
C 82.958567 212.680997 82.387493 212.444451 81.792114 212.444451 
C 81.196734 212.444451 80.62566 212.680997 80.204663 213.101994 
C 79.783666 213.522991 79.547119 214.094066 79.547119 214.689445 
C 79.547119 215.284825 79.783666 215.855899 80.204663 216.276896 
C 80.62566 216.697893 81.196734 216.934439 81.792114 216.934439 
z
" clip-path="url(#p4d3a161c89)" style="stroke: #ffffff; stroke-width: 0.271529"/>
    <path d="M 114.685754 192.968062 
C 115.281134 192.968062 115.852208 192.731515 116.273205 192.310518 
C 116.694202 191.889522 116.930749 191.318447 116.930749 190.723068 
C 116.930749 190.127688 116.694202 189.556614 116.273205 189.135617 
C 115.852208 188.71462 115.281134 188.478073 114.685754 188.478073 
C 114.090375 188.478073 113.5193 188.71462 113.098304 189.135617 
C 112.677307 189.556614 112.44076 190.127688 112.44076 190.723068 
C 112.44076 191.318447 112.677307 191.889522 113.098304 192.310518 
C 113.5193 192.731515 114.090375 192.968062 114.685754 192.968062 
z
" clip-path="url(#p4d3a161c89)" style="fill: #3f2819; stroke: #ffffff; stroke-width: 0.271529"/>
    <path d="M 144.816745 171.014557 
C 145.412125 171.014557 145.983199 170.778011 146.404196 170.357014 
C 146.825193 169.936017 147.061739 169.364942 147.061739 168.769563 
C 147.061739 168.174184 146.825193 167.603109 146.404196 167.182112 
C 145.983199 166.761115 145.412125 166.524569 144.816745 166.524569 
C 144.221366 166.524569 143.650291 166.761115 143.229294 167.182112 
C 142.808297 167.603109 142.571751 168.174184 142.571751 168.769563 
C 142.571751 169.364942 142.808297 169.936017 143.229294 170.357014 
C 143.650291 170.778011 144.221366 171.014557 144.816745 171.014557 
z
" clip-path="url(#p4d3a161c89)" style="fill: #7e5033; stroke: #ffffff; stroke-width: 0.271529"/>
    <path d="M 174.947736 149.061053 
C 175.543115 149.061053 176.11419 148.824506 176.535186 148.403509 
C 176.956183 147.982512 177.19273 147.411438 177.19273 146.816058 
C 177.19273 146.220679 176.956183 145.649604 176.535186 145.228608 
C 176.11419 144.807611 175.543115 144.571064 174.947736 144.571064 
C 174.352356 144.571064 173.781282 144.807611 173.360285 145.228608 
C 172.939288 145.649604 172.702741 146.220679 172.702741 146.816058 
C 172.702741 147.411438 172.939288 147.982512 173.360285 148.403509 
C 173.781282 148.824506 174.352356 149.061053 174.947736 149.061053 
z
" clip-path="url(#p4d3a161c89)" style="fill: #bd784c; stroke: #ffffff; stroke-width: 0.271529"/>
    <path d="M 207.589801 125.277974 
C 208.185181 125.277974 208.756255 125.041427 209.177252 124.62043 
C 209.598249 124.199433 209.834795 123.628359 209.834795 123.032979 
C 209.834795 122.4376 209.598249 121.866525 209.177252 121.445529 
C 208.756255 121.024532 208.185181 120.787985 207.589801 120.787985 
C 206.994422 120.787985 206.423347 121.024532 206.00235 121.445529 
C 205.581353 121.866525 205.344807 122.4376 205.344807 123.032979 
C 205.344807 123.628359 205.581353 124.199433 206.00235 124.62043 
C 206.423347 125.041427 206.994422 125.277974 207.589801 125.277974 
z
" clip-path="url(#p4d3a161c89)" style="fill: #fc9f65; stroke: #ffffff; stroke-width: 0.271529"/>
    <path d="M 264.623595 83.723029 
C 265.218975 83.723029 265.790049 83.486482 266.211046 83.065485 
C 266.632043 82.644488 266.868589 82.073414 266.868589 81.478034 
C 266.868589 80.882655 266.632043 80.31158 266.211046 79.890584 
C 265.790049 79.469587 265.218975 79.23304 264.623595 79.23304 
C 264.028216 79.23304 263.457141 79.469587 263.036144 79.890584 
C 262.615147 80.31158 262.378601 80.882655 262.378601 81.478034 
C 262.378601 82.073414 262.615147 82.644488 263.036144 83.065485 
C 263.457141 83.486482 264.028216 83.723029 264.623595 83.723029 
z
" clip-path="url(#p4d3a161c89)" style="fill: #ffc77f; stroke: #ffffff; stroke-width: 0.271529"/>
    <path d="M 81.792114 210.421834 
C 82.242178 210.421834 82.67387 210.243021 82.992114 209.924777 
C 83.310357 209.606534 83.48917 209.174842 83.48917 208.724777 
C 83.48917 208.274713 83.310357 207.843021 82.992114 207.524777 
C 82.67387 207.206534 82.242178 207.027721 81.792114 207.027721 
C 81.342049 207.027721 80.910357 207.206534 80.592114 207.524777 
C 80.27387 207.843021 80.095057 208.274713 80.095057 208.724777 
C 80.095057 209.174842 80.27387 209.606534 80.592114 209.924777 
C 80.910357 210.243021 81.342049 210.421834 81.792114 210.421834 
z
" clip-path="url(#p4d3a161c89)" style="stroke: #ffffff; stroke-width: 0.271529"/>
    <path d="M 114.685754 181.255205 
C 115.135819 181.255205 115.567511 181.076392 115.885754 180.758148 
C 116.203998 180.439905 116.382811 180.008213 116.382811 179.558148 
C 116.382811 179.108084 116.203998 178.676392 115.885754 178.358148 
C 115.567511 178.039905 115.135819 177.861092 114.685754 177.861092 
C 114.23569 177.861092 113.803998 178.039905 113.485754 178.358148 
C 113.167511 178.676392 112.988698 179.108084 112.988698 179.558148 
C 112.988698 180.008213 113.167511 180.439905 113.485754 180.758148 
C 113.803998 181.076392 114.23569 181.255205 114.685754 181.255205 
z
" clip-path="url(#p4d3a161c89)" style="fill: #3f2819; stroke: #ffffff; stroke-width: 0.271529"/>
    <path d="M 144.816745 154.538204 
C 145.26681 154.538204 145.698501 154.359391 146.016745 154.041147 
C 146.334989 153.722904 146.513801 153.291212 146.513801 152.841147 
C 146.513801 152.391083 146.334989 151.959391 146.016745 151.641147 
C 145.698501 151.322904 145.26681 151.144091 144.816745 151.144091 
C 144.36668 151.144091 143.934989 151.322904 143.616745 151.641147 
C 143.298501 151.959391 143.119689 152.391083 143.119689 152.841147 
C 143.119689 153.291212 143.298501 153.722904 143.616745 154.041147 
C 143.934989 154.359391 144.36668 154.538204 144.816745 154.538204 
z
" clip-path="url(#p4d3a161c89)" style="fill: #7e5033; stroke: #ffffff; stroke-width: 0.271529"/>
    <path d="M 174.947736 127.821203 
C 175.3978 127.821203 175.829492 127.64239 176.147736 127.324147 
C 176.465979 127.005903 176.644792 126.574211 176.644792 126.124147 
C 176.644792 125.674082 176.465979 125.24239 176.147736 124.924147 
C 175.829492 124.605903 175.3978 124.42709 174.947736 124.42709 
C 174.497671 124.42709 174.065979 124.605903 173.747736 124.924147 
C 173.429492 125.24239 173.250679 125.674082 173.250679 126.124147 
C 173.250679 126.574211 173.429492 127.005903 173.747736 127.324147 
C 174.065979 127.64239 174.497671 127.821203 174.947736 127.821203 
z
" clip-path="url(#p4d3a161c89)" style="fill: #bd784c; stroke: #ffffff; stroke-width: 0.271529"/>
    <path d="M 207.589801 98.877644 
C 208.039866 98.877644 208.471557 98.698832 208.789801 98.380588 
C 209.108045 98.062344 209.286857 97.630653 209.286857 97.180588 
C 209.286857 96.730523 209.108045 96.298832 208.789801 95.980588 
C 208.471557 95.662344 208.039866 95.483532 207.589801 95.483532 
C 207.139736 95.483532 206.708045 95.662344 206.389801 95.980588 
C 206.071557 96.298832 205.892745 96.730523 205.892745 97.180588 
C 205.892745 97.630653 206.071557 98.062344 206.389801 98.380588 
C 206.708045 98.698832 207.139736 98.877644 207.589801 98.877644 
z
" clip-path="url(#p4d3a161c89)" style="fill: #fc9f65; stroke: #ffffff; stroke-width: 0.271529"/>
    <path d="M 264.623595 48.30606 
C 265.07366 48.30606 265.505351 48.127248 265.823595 47.809004 
C 266.141839 47.49076 266.320651 47.059069 266.320651 46.609004 
C 266.320651 46.15894 266.141839 45.727248 265.823595 45.409004 
C 265.505351 45.09076 265.07366 44.911948 264.623595 44.911948 
C 264.17353 44.911948 263.741839 45.09076 263.423595 45.409004 
C 263.105351 45.727248 262.926539 46.15894 262.926539 46.609004 
C 262.926539 47.059069 263.105351 47.49076 263.423595 47.809004 
C 263.741839 48.127248 264.17353 48.30606 264.623595 48.30606 
z
" clip-path="url(#p4d3a161c89)" style="fill: #ffc77f; stroke: #ffffff; stroke-width: 0.271529"/>
   </g>
   <g id="patch_3">
    <path d="M 72 256.32 
L 72 49.344 
" style="fill: none; stroke: #262626; stroke-linejoin: miter; stroke-linecap: square"/>
   </g>
   <g id="patch_4">
    <path d="M 72 256.32 
L 261.381818 256.32 
" style="fill: none; stroke: #262626; stroke-linejoin: miter; stroke-linecap: square"/>
   </g>
   <g id="text_19">
    <!-- Carbon budgets -->
    <g style="fill: #262626" transform="translate(141.434233 28.56) scale(0.09 -0.09)">
     <defs>
      <path id="ArialMT-62" d="M 941 0 
L 419 0 
L 419 4581 
L 981 4581 
L 981 2947 
Q 1338 3394 1891 3394 
Q 2197 3394 2470 3270 
Q 2744 3147 2920 2923 
Q 3097 2700 3197 2384 
Q 3297 2069 3297 1709 
Q 3297 856 2875 390 
Q 2453 -75 1863 -75 
Q 1275 -75 941 416 
L 941 0 
z
M 934 1684 
Q 934 1088 1097 822 
Q 1363 388 1816 388 
Q 2184 388 2453 708 
Q 2722 1028 2722 1663 
Q 2722 2313 2464 2622 
Q 2206 2931 1841 2931 
Q 1472 2931 1203 2611 
Q 934 2291 934 1684 
z
" transform="scale(0.015625)"/>
      <path id="ArialMT-67" d="M 319 -275 
L 866 -356 
Q 900 -609 1056 -725 
Q 1266 -881 1628 -881 
Q 2019 -881 2231 -725 
Q 2444 -569 2519 -288 
Q 2563 -116 2559 434 
Q 2191 0 1641 0 
Q 956 0 581 494 
Q 206 988 206 1678 
Q 206 2153 378 2554 
Q 550 2956 876 3175 
Q 1203 3394 1644 3394 
Q 2231 3394 2613 2919 
L 2613 3319 
L 3131 3319 
L 3131 450 
Q 3131 -325 2973 -648 
Q 2816 -972 2473 -1159 
Q 2131 -1347 1631 -1347 
Q 1038 -1347 672 -1080 
Q 306 -813 319 -275 
z
M 784 1719 
Q 784 1066 1043 766 
Q 1303 466 1694 466 
Q 2081 466 2343 764 
Q 2606 1063 2606 1700 
Q 2606 2309 2336 2618 
Q 2066 2928 1684 2928 
Q 1309 2928 1046 2623 
Q 784 2319 784 1719 
z
" transform="scale(0.015625)"/>
     </defs>
     <use xlink:href="#ArialMT-43"/>
     <use xlink:href="#ArialMT-61" x="72.216797"/>
     <use xlink:href="#ArialMT-72" x="127.832031"/>
     <use xlink:href="#ArialMT-62" x="161.132812"/>
     <use xlink:href="#ArialMT-6f" x="216.748047"/>
     <use xlink:href="#ArialMT-6e" x="272.363281"/>
     <use xlink:href="#ArialMT-20" x="327.978516"/>
     <use xlink:href="#ArialMT-62" x="355.761719"/>
     <use xlink:href="#ArialMT-75" x="411.376953"/>
     <use xlink:href="#ArialMT-64" x="466.992188"/>
     <use xlink:href="#ArialMT-67" x="522.607422"/>
     <use xlink:href="#ArialMT-65" x="578.222656"/>
     <use xlink:href="#ArialMT-74" x="633.837891"/>
     <use xlink:href="#ArialMT-73" x="661.621094"/>
    </g>
   </g>
   <g id="legend_1">
    <g id="patch_5">
     <path d="M 295.709227 118.864 
L 349.912727 118.864 
Q 351.672727 118.864 351.672727 117.104 
L 351.672727 42.335625 
Q 351.672727 40.575625 349.912727 40.575625 
L 295.709227 40.575625 
Q 293.949227 40.575625 293.949227 42.335625 
L 293.949227 117.104 
Q 293.949227 118.864 295.709227 118.864 
z
" style="fill: #ffffff; opacity: 0.8; stroke: #cccccc; stroke-width: 0.8; stroke-linejoin: miter"/>
    </g>
    <g id="text_20">
     <!-- Chance (%) -->
     <g style="fill: #262626" transform="translate(297.469227 51.084125) scale(0.096 -0.096)">
      <defs>
       <path id="ArialMT-68" d="M 422 0 
L 422 4581 
L 984 4581 
L 984 2938 
Q 1378 3394 1978 3394 
Q 2347 3394 2619 3248 
Q 2891 3103 3008 2847 
Q 3125 2591 3125 2103 
L 3125 0 
L 2563 0 
L 2563 2103 
Q 2563 2525 2380 2717 
Q 2197 2909 1863 2909 
Q 1613 2909 1392 2779 
Q 1172 2650 1078 2428 
Q 984 2206 984 1816 
L 984 0 
L 422 0 
z
" transform="scale(0.015625)"/>
       <path id="ArialMT-25" d="M 372 3481 
Q 372 3972 619 4315 
Q 866 4659 1334 4659 
Q 1766 4659 2048 4351 
Q 2331 4044 2331 3447 
Q 2331 2866 2045 2552 
Q 1759 2238 1341 2238 
Q 925 2238 648 2547 
Q 372 2856 372 3481 
z
M 1350 4272 
Q 1141 4272 1002 4090 
Q 863 3909 863 3425 
Q 863 2984 1003 2804 
Q 1144 2625 1350 2625 
Q 1563 2625 1702 2806 
Q 1841 2988 1841 3469 
Q 1841 3913 1700 4092 
Q 1559 4272 1350 4272 
z
M 1353 -169 
L 3859 4659 
L 4316 4659 
L 1819 -169 
L 1353 -169 
z
M 3334 1075 
Q 3334 1569 3581 1911 
Q 3828 2253 4300 2253 
Q 4731 2253 5014 1945 
Q 5297 1638 5297 1041 
Q 5297 459 5011 145 
Q 4725 -169 4303 -169 
Q 3888 -169 3611 142 
Q 3334 453 3334 1075 
z
M 4316 1866 
Q 4103 1866 3964 1684 
Q 3825 1503 3825 1019 
Q 3825 581 3965 400 
Q 4106 219 4313 219 
Q 4528 219 4667 400 
Q 4806 581 4806 1063 
Q 4806 1506 4665 1686 
Q 4525 1866 4316 1866 
z
" transform="scale(0.015625)"/>
      </defs>
      <use xlink:href="#ArialMT-43"/>
      <use xlink:href="#ArialMT-68" x="72.216797"/>
      <use xlink:href="#ArialMT-61" x="127.832031"/>
      <use xlink:href="#ArialMT-6e" x="183.447266"/>
      <use xlink:href="#ArialMT-63" x="239.0625"/>
      <use xlink:href="#ArialMT-65" x="289.0625"/>
      <use xlink:href="#ArialMT-20" x="344.677734"/>
      <use xlink:href="#ArialMT-28" x="372.460938"/>
      <use xlink:href="#ArialMT-25" x="405.761719"/>
      <use xlink:href="#ArialMT-29" x="494.677734"/>
     </g>
    </g>
    <g id="PathCollection_8">
     <defs>
      <path id="m692601772a" d="M 0 1.697056 
C 0.450065 1.697056 0.881756 1.518244 1.2 1.2 
C 1.518244 0.881756 1.697056 0.450065 1.697056 0 
C 1.697056 -0.450065 1.518244 -0.881756 1.2 -1.2 
C 0.881756 -1.518244 0.450065 -1.697056 0 -1.697056 
C -0.450065 -1.697056 -0.881756 -1.518244 -1.2 -1.2 
C -1.518244 -0.881756 -1.697056 -0.450065 -1.697056 0 
C -1.697056 0.450065 -1.518244 0.881756 -1.2 1.2 
C -0.881756 1.518244 -0.450065 1.697056 0 1.697056 
z
" style="stroke: #333333; stroke-width: 0.8"/>
     </defs>
     <g>
      <use xlink:href="#m692601772a" x="314.397352" y="61.4935" style="fill: #333333; stroke: #333333; stroke-width: 0.8"/>
     </g>
    </g>
    <g id="text_21">
     <!-- 83 -->
     <g style="fill: #262626" transform="translate(330.237352 63.8035) scale(0.088 -0.088)">
      <defs>
       <path id="ArialMT-33" d="M 269 1209 
L 831 1284 
Q 928 806 1161 595 
Q 1394 384 1728 384 
Q 2125 384 2398 659 
Q 2672 934 2672 1341 
Q 2672 1728 2419 1979 
Q 2166 2231 1775 2231 
Q 1616 2231 1378 2169 
L 1441 2663 
Q 1497 2656 1531 2656 
Q 1891 2656 2178 2843 
Q 2466 3031 2466 3422 
Q 2466 3731 2256 3934 
Q 2047 4138 1716 4138 
Q 1388 4138 1169 3931 
Q 950 3725 888 3313 
L 325 3413 
Q 428 3978 793 4289 
Q 1159 4600 1703 4600 
Q 2078 4600 2393 4439 
Q 2709 4278 2876 4000 
Q 3044 3722 3044 3409 
Q 3044 3113 2884 2869 
Q 2725 2625 2413 2481 
Q 2819 2388 3044 2092 
Q 3269 1797 3269 1353 
Q 3269 753 2831 336 
Q 2394 -81 1725 -81 
Q 1122 -81 723 278 
Q 325 638 269 1209 
z
" transform="scale(0.015625)"/>
      </defs>
      <use xlink:href="#ArialMT-38"/>
      <use xlink:href="#ArialMT-33" x="55.615234"/>
     </g>
    </g>
    <g id="PathCollection_9">
     <defs>
      <path id="m7215a7785a" d="M 0 2.244994 
C 0.595379 2.244994 1.166454 2.008448 1.587451 1.587451 
C 2.008448 1.166454 2.244994 0.595379 2.244994 0 
C 2.244994 -0.595379 2.008448 -1.166454 1.587451 -1.587451 
C 1.166454 -2.008448 0.595379 -2.244994 0 -2.244994 
C -0.595379 -2.244994 -1.166454 -2.008448 -1.587451 -1.587451 
C -2.008448 -1.166454 -2.244994 -0.595379 -2.244994 0 
C -2.244994 0.595379 -2.008448 1.166454 -1.587451 1.587451 
C -1.166454 2.008448 -0.595379 2.244994 0 2.244994 
z
" style="stroke: #333333; stroke-width: 0.8"/>
     </defs>
     <g>
      <use xlink:href="#m7215a7785a" x="314.397352" y="73.941375" style="fill: #333333; stroke: #333333; stroke-width: 0.8"/>
     </g>
    </g>
    <g id="text_22">
     <!-- 67 -->
     <g style="fill: #262626" transform="translate(330.237352 76.251375) scale(0.088 -0.088)">
      <defs>
       <path id="ArialMT-37" d="M 303 3981 
L 303 4522 
L 3269 4522 
L 3269 4084 
Q 2831 3619 2401 2847 
Q 1972 2075 1738 1259 
Q 1569 684 1522 0 
L 944 0 
Q 953 541 1156 1306 
Q 1359 2072 1739 2783 
Q 2119 3494 2547 3981 
L 303 3981 
z
" transform="scale(0.015625)"/>
      </defs>
      <use xlink:href="#ArialMT-36"/>
      <use xlink:href="#ArialMT-37" x="55.615234"/>
     </g>
    </g>
    <g id="PathCollection_10">
     <defs>
      <path id="m2ca83224bc" d="M 0 2.683282 
C 0.711615 2.683282 1.394179 2.400554 1.897367 1.897367 
C 2.400554 1.394179 2.683282 0.711615 2.683282 0 
C 2.683282 -0.711615 2.400554 -1.394179 1.897367 -1.897367 
C 1.394179 -2.400554 0.711615 -2.683282 0 -2.683282 
C -0.711615 -2.683282 -1.394179 -2.400554 -1.897367 -1.897367 
C -2.400554 -1.394179 -2.683282 -0.711615 -2.683282 0 
C -2.683282 0.711615 -2.400554 1.394179 -1.897367 1.897367 
C -1.394179 2.400554 -0.711615 2.683282 0 2.683282 
z
" style="stroke: #333333; stroke-width: 0.8"/>
     </defs>
     <g>
      <use xlink:href="#m2ca83224bc" x="314.397352" y="86.38925" style="fill: #333333; stroke: #333333; stroke-width: 0.8"/>
     </g>
    </g>
    <g id="text_23">
     <!-- 50 -->
     <g style="fill: #262626" transform="translate(330.237352 88.69925) scale(0.088 -0.088)">
      <defs>
       <path id="ArialMT-35" d="M 266 1200 
L 856 1250 
Q 922 819 1161 601 
Q 1400 384 1738 384 
Q 2144 384 2425 690 
Q 2706 997 2706 1503 
Q 2706 1984 2436 2262 
Q 2166 2541 1728 2541 
Q 1456 2541 1237 2417 
Q 1019 2294 894 2097 
L 366 2166 
L 809 4519 
L 3088 4519 
L 3088 3981 
L 1259 3981 
L 1013 2750 
Q 1425 3038 1878 3038 
Q 2478 3038 2890 2622 
Q 3303 2206 3303 1553 
Q 3303 931 2941 478 
Q 2500 -78 1738 -78 
Q 1113 -78 717 272 
Q 322 622 266 1200 
z
" transform="scale(0.015625)"/>
      </defs>
      <use xlink:href="#ArialMT-35"/>
      <use xlink:href="#ArialMT-30" x="55.615234"/>
     </g>
    </g>
    <g id="PathCollection_11">
     <defs>
      <path id="m1056c6627e" d="M 0 3.059412 
C 0.811365 3.059412 1.589609 2.737053 2.163331 2.163331 
C 2.737053 1.589609 3.059412 0.811365 3.059412 0 
C 3.059412 -0.811365 2.737053 -1.589609 2.163331 -2.163331 
C 1.589609 -2.737053 0.811365 -3.059412 0 -3.059412 
C -0.811365 -3.059412 -1.589609 -2.737053 -2.163331 -2.163331 
C -2.737053 -1.589609 -3.059412 -0.811365 -3.059412 0 
C -3.059412 0.811365 -2.737053 1.589609 -2.163331 2.163331 
C -1.589609 2.737053 -0.811365 3.059412 0 3.059412 
z
" style="stroke: #333333; stroke-width: 0.8"/>
     </defs>
     <g>
      <use xlink:href="#m1056c6627e" x="314.397352" y="98.837125" style="fill: #333333; stroke: #333333; stroke-width: 0.8"/>
     </g>
    </g>
    <g id="text_24">
     <!-- 33 -->
     <g style="fill: #262626" transform="translate(330.237352 101.147125) scale(0.088 -0.088)">
      <use xlink:href="#ArialMT-33"/>
      <use xlink:href="#ArialMT-33" x="55.615234"/>
     </g>
    </g>
    <g id="PathCollection_12">
     <defs>
      <path id="m11ec2b5f1d" d="M 0 3.394113 
C 0.900129 3.394113 1.763513 3.036487 2.4 2.4 
C 3.036487 1.763513 3.394113 0.900129 3.394113 0 
C 3.394113 -0.900129 3.036487 -1.763513 2.4 -2.4 
C 1.763513 -3.036487 0.900129 -3.394113 0 -3.394113 
C -0.900129 -3.394113 -1.763513 -3.036487 -2.4 -2.4 
C -3.036487 -1.763513 -3.394113 -0.900129 -3.394113 0 
C -3.394113 0.900129 -3.036487 1.763513 -2.4 2.4 
C -1.763513 3.036487 -0.900129 3.394113 0 3.394113 
z
" style="stroke: #333333; stroke-width: 0.8"/>
     </defs>
     <g>
      <use xlink:href="#m11ec2b5f1d" x="314.397352" y="111.285" style="fill: #333333; stroke: #333333; stroke-width: 0.8"/>
     </g>
    </g>
    <g id="text_25">
     <!-- 17 -->
     <g style="fill: #262626" transform="translate(330.237352 113.595) scale(0.088 -0.088)">
      <use xlink:href="#ArialMT-31"/>
      <use xlink:href="#ArialMT-37" x="55.615234"/>
     </g>
    </g>
   </g>
  </g>
  <g id="axes_2"/>
  <g id="text_26">
   <!-- By Anne Urai | Data: IPCC -->
   <g style="fill: #d3d3d3" transform="translate(46.343812 300.126937) scale(0.108 -0.108)">
    <defs>
     <path id="ArialMT-42" d="M 469 0 
L 469 4581 
L 2188 4581 
Q 2713 4581 3030 4442 
Q 3347 4303 3526 4014 
Q 3706 3725 3706 3409 
Q 3706 3116 3547 2856 
Q 3388 2597 3066 2438 
Q 3481 2316 3704 2022 
Q 3928 1728 3928 1328 
Q 3928 1006 3792 729 
Q 3656 453 3456 303 
Q 3256 153 2954 76 
Q 2653 0 2216 0 
L 469 0 
z
M 1075 2656 
L 2066 2656 
Q 2469 2656 2644 2709 
Q 2875 2778 2992 2937 
Q 3109 3097 3109 3338 
Q 3109 3566 3000 3739 
Q 2891 3913 2687 3977 
Q 2484 4041 1991 4041 
L 1075 4041 
L 1075 2656 
z
M 1075 541 
L 2216 541 
Q 2509 541 2628 563 
Q 2838 600 2978 687 
Q 3119 775 3209 942 
Q 3300 1109 3300 1328 
Q 3300 1584 3169 1773 
Q 3038 1963 2805 2039 
Q 2572 2116 2134 2116 
L 1075 2116 
L 1075 541 
z
" transform="scale(0.015625)"/>
     <path id="ArialMT-79" d="M 397 -1278 
L 334 -750 
Q 519 -800 656 -800 
Q 844 -800 956 -737 
Q 1069 -675 1141 -563 
Q 1194 -478 1313 -144 
Q 1328 -97 1363 -6 
L 103 3319 
L 709 3319 
L 1400 1397 
Q 1534 1031 1641 628 
Q 1738 1016 1872 1384 
L 2581 3319 
L 3144 3319 
L 1881 -56 
Q 1678 -603 1566 -809 
Q 1416 -1088 1222 -1217 
Q 1028 -1347 759 -1347 
Q 597 -1347 397 -1278 
z
" transform="scale(0.015625)"/>
     <path id="ArialMT-55" d="M 3500 4581 
L 4106 4581 
L 4106 1934 
Q 4106 1244 3950 837 
Q 3794 431 3386 176 
Q 2978 -78 2316 -78 
Q 1672 -78 1262 144 
Q 853 366 678 786 
Q 503 1206 503 1934 
L 503 4581 
L 1109 4581 
L 1109 1938 
Q 1109 1341 1220 1058 
Q 1331 775 1601 622 
Q 1872 469 2263 469 
Q 2931 469 3215 772 
Q 3500 1075 3500 1938 
L 3500 4581 
z
" transform="scale(0.015625)"/>
     <path id="ArialMT-7c" d="M 588 -1347 
L 588 4659 
L 1078 4659 
L 1078 -1347 
L 588 -1347 
z
" transform="scale(0.015625)"/>
     <path id="ArialMT-44" d="M 494 0 
L 494 4581 
L 2072 4581 
Q 2606 4581 2888 4516 
Q 3281 4425 3559 4188 
Q 3922 3881 4101 3404 
Q 4281 2928 4281 2316 
Q 4281 1794 4159 1391 
Q 4038 988 3847 723 
Q 3656 459 3429 307 
Q 3203 156 2883 78 
Q 2563 0 2147 0 
L 494 0 
z
M 1100 541 
L 2078 541 
Q 2531 541 2789 625 
Q 3047 709 3200 863 
Q 3416 1078 3536 1442 
Q 3656 1806 3656 2325 
Q 3656 3044 3420 3430 
Q 3184 3816 2847 3947 
Q 2603 4041 2063 4041 
L 1100 4041 
L 1100 541 
z
" transform="scale(0.015625)"/>
     <path id="ArialMT-3a" d="M 578 2678 
L 578 3319 
L 1219 3319 
L 1219 2678 
L 578 2678 
z
M 578 0 
L 578 641 
L 1219 641 
L 1219 0 
L 578 0 
z
" transform="scale(0.015625)"/>
     <path id="ArialMT-49" d="M 597 0 
L 597 4581 
L 1203 4581 
L 1203 0 
L 597 0 
z
" transform="scale(0.015625)"/>
     <path id="ArialMT-50" d="M 494 0 
L 494 4581 
L 2222 4581 
Q 2678 4581 2919 4538 
Q 3256 4481 3484 4323 
Q 3713 4166 3852 3881 
Q 3991 3597 3991 3256 
Q 3991 2672 3619 2267 
Q 3247 1863 2275 1863 
L 1100 1863 
L 1100 0 
L 494 0 
z
M 1100 2403 
L 2284 2403 
Q 2872 2403 3119 2622 
Q 3366 2841 3366 3238 
Q 3366 3525 3220 3729 
Q 3075 3934 2838 4000 
Q 2684 4041 2272 4041 
L 1100 4041 
L 1100 2403 
z
" transform="scale(0.015625)"/>
    </defs>
    <use xlink:href="#ArialMT-42"/>
    <use xlink:href="#ArialMT-79" x="66.699219"/>
    <use xlink:href="#ArialMT-20" x="116.699219"/>
    <use xlink:href="#ArialMT-41" x="138.982422"/>
    <use xlink:href="#ArialMT-6e" x="205.681641"/>
    <use xlink:href="#ArialMT-6e" x="261.296875"/>
    <use xlink:href="#ArialMT-65" x="316.912109"/>
    <use xlink:href="#ArialMT-20" x="372.527344"/>
    <use xlink:href="#ArialMT-55" x="400.310547"/>
    <use xlink:href="#ArialMT-72" x="472.527344"/>
    <use xlink:href="#ArialMT-61" x="505.828125"/>
    <use xlink:href="#ArialMT-69" x="561.443359"/>
    <use xlink:href="#ArialMT-20" x="583.660156"/>
    <use xlink:href="#ArialMT-7c" x="611.443359"/>
    <use xlink:href="#ArialMT-20" x="637.419922"/>
    <use xlink:href="#ArialMT-44" x="665.203125"/>
    <use xlink:href="#ArialMT-61" x="737.419922"/>
    <use xlink:href="#ArialMT-74" x="793.035156"/>
    <use xlink:href="#ArialMT-61" x="820.818359"/>
    <use xlink:href="#ArialMT-3a" x="876.433594"/>
    <use xlink:href="#ArialMT-20" x="904.216797"/>
    <use xlink:href="#ArialMT-49" x="932"/>
    <use xlink:href="#ArialMT-50" x="959.783203"/>
    <use xlink:href="#ArialMT-43" x="1026.482422"/>
    <use xlink:href="#ArialMT-43" x="1098.699219"/>
   </g>
  </g>
 </g>
 <defs>
  <clipPath id="p4d3a161c89">
   <rect x="72" y="34.56" width="202.909091" height="221.76"/>
  </clipPath>
 </defs>
</svg>
