<?xml version="1.0" encoding="utf-8" standalone="no"?>
<!DOCTYPE svg PUBLIC "-//W3C//DTD SVG 1.1//EN"
  "http://www.w3.org/Graphics/SVG/1.1/DTD/svg11.dtd">
<svg xmlns:xlink="http://www.w3.org/1999/xlink" width="576pt" height="864pt" viewBox="0 0 576 864" xmlns="http://www.w3.org/2000/svg" version="1.1">
 <metadata>
  <rdf:RDF xmlns:dc="http://purl.org/dc/elements/1.1/" xmlns:cc="http://creativecommons.org/ns#" xmlns:rdf="http://www.w3.org/1999/02/22-rdf-syntax-ns#">
   <cc:Work>
    <dc:type rdf:resource="http://purl.org/dc/dcmitype/StillImage"/>
    <dc:date>2023-01-31T10:17:42.593881</dc:date>
    <dc:format>image/svg+xml</dc:format>
    <dc:creator>
     <cc:Agent>
      <dc:title>Matplotlib v3.6.2, https://matplotlib.org/</dc:title>
     </cc:Agent>
    </dc:creator>
   </cc:Work>
  </rdf:RDF>
 </metadata>
 <defs>
  <style type="text/css">*{stroke-linejoin: round; stroke-linecap: butt}</style>
 </defs>
 <g id="figure_1">
  <g id="patch_1">
   <path d="M 0 864 
L 576 864 
L 576 0 
L 0 0 
z
" style="fill: #ffffff"/>
  </g>
  <g id="axes_1">
   <g id="patch_2">
    <path d="M 72 248.306087 
L 518.4 248.306087 
L 518.4 103.68 
L 72 103.68 
z
" style="fill: #ffffff"/>
   </g>
   <g id="PolyCollection_1"/>
   <g id="PolyCollection_2">
    <defs>
     <path id="mdeffc9ef8c" d="M 406.8 -622.267826 
L 406.8 -622.267826 
L 406.8 -622.267826 
L 406.8 -622.267826 
z
" style="stroke: #31688e; stroke-opacity: 0.2"/>
    </defs>
    <g clip-path="url(#p72bffbd5cf)">
     <use xlink:href="#mdeffc9ef8c" x="0" y="864" style="fill: #31688e; fill-opacity: 0.2; stroke: #31688e; stroke-opacity: 0.2"/>
    </g>
   </g>
   <g id="PolyCollection_3">
    <defs>
     <path id="m4c56ddf3a1" d="M 406.8 -622.267826 
L 406.8 -622.267826 
L 406.8 -622.267826 
L 406.8 -622.267826 
z
" style="stroke: #35b779; stroke-opacity: 0.2"/>
    </defs>
    <g clip-path="url(#p72bffbd5cf)">
     <use xlink:href="#m4c56ddf3a1" x="0" y="864" style="fill: #35b779; fill-opacity: 0.2; stroke: #35b779; stroke-opacity: 0.2"/>
    </g>
   </g>
   <g id="PolyCollection_4">
    <defs>
     <path id="m791d8f1fea" d="M 406.8 -622.267826 
L 406.8 -622.267826 
L 406.8 -622.267826 
L 406.8 -622.267826 
z
" style="stroke: #fde725; stroke-opacity: 0.2"/>
    </defs>
    <g clip-path="url(#p72bffbd5cf)">
     <use xlink:href="#m791d8f1fea" x="0" y="864" style="fill: #fde725; fill-opacity: 0.2; stroke: #fde725; stroke-opacity: 0.2"/>
    </g>
   </g>
   <g id="matplotlib.axis_1">
    <g id="xtick_1">
     <g id="line2d_1">
      <defs>
       <path id="md0b63f8352" d="M 0 0 
L 0 3.5 
" style="stroke: #000000; stroke-width: 0.8"/>
      </defs>
      <g>
       <use xlink:href="#md0b63f8352" x="72" y="248.306087" style="stroke: #000000; stroke-width: 0.8"/>
      </g>
     </g>
    </g>
    <g id="xtick_2">
     <g id="line2d_2">
      <g>
       <use xlink:href="#md0b63f8352" x="127.8" y="248.306087" style="stroke: #000000; stroke-width: 0.8"/>
      </g>
     </g>
    </g>
    <g id="xtick_3">
     <g id="line2d_3">
      <g>
       <use xlink:href="#md0b63f8352" x="183.6" y="248.306087" style="stroke: #000000; stroke-width: 0.8"/>
      </g>
     </g>
    </g>
    <g id="xtick_4">
     <g id="line2d_4">
      <g>
       <use xlink:href="#md0b63f8352" x="239.4" y="248.306087" style="stroke: #000000; stroke-width: 0.8"/>
      </g>
     </g>
    </g>
    <g id="xtick_5">
     <g id="line2d_5">
      <g>
       <use xlink:href="#md0b63f8352" x="295.2" y="248.306087" style="stroke: #000000; stroke-width: 0.8"/>
      </g>
     </g>
    </g>
    <g id="xtick_6">
     <g id="line2d_6">
      <g>
       <use xlink:href="#md0b63f8352" x="351" y="248.306087" style="stroke: #000000; stroke-width: 0.8"/>
      </g>
     </g>
    </g>
    <g id="xtick_7">
     <g id="line2d_7">
      <g>
       <use xlink:href="#md0b63f8352" x="406.8" y="248.306087" style="stroke: #000000; stroke-width: 0.8"/>
      </g>
     </g>
    </g>
    <g id="xtick_8">
     <g id="line2d_8">
      <g>
       <use xlink:href="#md0b63f8352" x="462.6" y="248.306087" style="stroke: #000000; stroke-width: 0.8"/>
      </g>
     </g>
    </g>
    <g id="xtick_9">
     <g id="line2d_9">
      <g>
       <use xlink:href="#md0b63f8352" x="518.4" y="248.306087" style="stroke: #000000; stroke-width: 0.8"/>
      </g>
     </g>
    </g>
   </g>
   <g id="matplotlib.axis_2">
    <g id="ytick_1">
     <g id="line2d_10">
      <defs>
       <path id="m4931302c12" d="M 0 0 
L -3.5 0 
" style="stroke: #000000; stroke-width: 0.8"/>
      </defs>
      <g>
       <use xlink:href="#m4931302c12" x="72" y="241.732174" style="stroke: #000000; stroke-width: 0.8"/>
      </g>
     </g>
     <g id="text_1">
      <!-- 0 -->
      <g transform="translate(58.6375 245.531393) scale(0.1 -0.1)">
       <defs>
        <path id="DejaVuSans-30" d="M 2034 4250 
Q 1547 4250 1301 3770 
Q 1056 3291 1056 2328 
Q 1056 1369 1301 889 
Q 1547 409 2034 409 
Q 2525 409 2770 889 
Q 3016 1369 3016 2328 
Q 3016 3291 2770 3770 
Q 2525 4250 2034 4250 
z
M 2034 4750 
Q 2819 4750 3233 4129 
Q 3647 3509 3647 2328 
Q 3647 1150 3233 529 
Q 2819 -91 2034 -91 
Q 1250 -91 836 529 
Q 422 1150 422 2328 
Q 422 3509 836 4129 
Q 1250 4750 2034 4750 
z
" transform="scale(0.015625)"/>
       </defs>
       <use xlink:href="#DejaVuSans-30"/>
      </g>
     </g>
    </g>
    <g id="ytick_2">
     <g id="line2d_11">
      <g>
       <use xlink:href="#m4931302c12" x="72" y="206.316059" style="stroke: #000000; stroke-width: 0.8"/>
      </g>
     </g>
     <g id="text_2">
      <!-- 10 -->
      <g transform="translate(52.275 210.115278) scale(0.1 -0.1)">
       <defs>
        <path id="DejaVuSans-31" d="M 794 531 
L 1825 531 
L 1825 4091 
L 703 3866 
L 703 4441 
L 1819 4666 
L 2450 4666 
L 2450 531 
L 3481 531 
L 3481 0 
L 794 0 
L 794 531 
z
" transform="scale(0.015625)"/>
       </defs>
       <use xlink:href="#DejaVuSans-31"/>
       <use xlink:href="#DejaVuSans-30" x="63.623047"/>
      </g>
     </g>
    </g>
    <g id="ytick_3">
     <g id="line2d_12">
      <g>
       <use xlink:href="#m4931302c12" x="72" y="170.899944" style="stroke: #000000; stroke-width: 0.8"/>
      </g>
     </g>
     <g id="text_3">
      <!-- 20 -->
      <g transform="translate(52.275 174.699163) scale(0.1 -0.1)">
       <defs>
        <path id="DejaVuSans-32" d="M 1228 531 
L 3431 531 
L 3431 0 
L 469 0 
L 469 531 
Q 828 903 1448 1529 
Q 2069 2156 2228 2338 
Q 2531 2678 2651 2914 
Q 2772 3150 2772 3378 
Q 2772 3750 2511 3984 
Q 2250 4219 1831 4219 
Q 1534 4219 1204 4116 
Q 875 4013 500 3803 
L 500 4441 
Q 881 4594 1212 4672 
Q 1544 4750 1819 4750 
Q 2544 4750 2975 4387 
Q 3406 4025 3406 3419 
Q 3406 3131 3298 2873 
Q 3191 2616 2906 2266 
Q 2828 2175 2409 1742 
Q 1991 1309 1228 531 
z
" transform="scale(0.015625)"/>
       </defs>
       <use xlink:href="#DejaVuSans-32"/>
       <use xlink:href="#DejaVuSans-30" x="63.623047"/>
      </g>
     </g>
    </g>
    <g id="ytick_4">
     <g id="line2d_13">
      <g>
       <use xlink:href="#m4931302c12" x="72" y="135.483829" style="stroke: #000000; stroke-width: 0.8"/>
      </g>
     </g>
     <g id="text_4">
      <!-- 30 -->
      <g transform="translate(52.275 139.283048) scale(0.1 -0.1)">
       <defs>
        <path id="DejaVuSans-33" d="M 2597 2516 
Q 3050 2419 3304 2112 
Q 3559 1806 3559 1356 
Q 3559 666 3084 287 
Q 2609 -91 1734 -91 
Q 1441 -91 1130 -33 
Q 819 25 488 141 
L 488 750 
Q 750 597 1062 519 
Q 1375 441 1716 441 
Q 2309 441 2620 675 
Q 2931 909 2931 1356 
Q 2931 1769 2642 2001 
Q 2353 2234 1838 2234 
L 1294 2234 
L 1294 2753 
L 1863 2753 
Q 2328 2753 2575 2939 
Q 2822 3125 2822 3475 
Q 2822 3834 2567 4026 
Q 2313 4219 1838 4219 
Q 1578 4219 1281 4162 
Q 984 4106 628 3988 
L 628 4550 
Q 988 4650 1302 4700 
Q 1616 4750 1894 4750 
Q 2613 4750 3031 4423 
Q 3450 4097 3450 3541 
Q 3450 3153 3228 2886 
Q 3006 2619 2597 2516 
z
" transform="scale(0.015625)"/>
       </defs>
       <use xlink:href="#DejaVuSans-33"/>
       <use xlink:href="#DejaVuSans-30" x="63.623047"/>
      </g>
     </g>
    </g>
    <g id="text_5">
     <!-- Yearly CO2 emissions -->
     <g transform="translate(34.9975 229.482887) rotate(-90) scale(0.1 -0.1)">
      <defs>
       <path id="DejaVuSans-59" d="M -13 4666 
L 666 4666 
L 1959 2747 
L 3244 4666 
L 3922 4666 
L 2272 2222 
L 2272 0 
L 1638 0 
L 1638 2222 
L -13 4666 
z
" transform="scale(0.015625)"/>
       <path id="DejaVuSans-65" d="M 3597 1894 
L 3597 1613 
L 953 1613 
Q 991 1019 1311 708 
Q 1631 397 2203 397 
Q 2534 397 2845 478 
Q 3156 559 3463 722 
L 3463 178 
Q 3153 47 2828 -22 
Q 2503 -91 2169 -91 
Q 1331 -91 842 396 
Q 353 884 353 1716 
Q 353 2575 817 3079 
Q 1281 3584 2069 3584 
Q 2775 3584 3186 3129 
Q 3597 2675 3597 1894 
z
M 3022 2063 
Q 3016 2534 2758 2815 
Q 2500 3097 2075 3097 
Q 1594 3097 1305 2825 
Q 1016 2553 972 2059 
L 3022 2063 
z
" transform="scale(0.015625)"/>
       <path id="DejaVuSans-61" d="M 2194 1759 
Q 1497 1759 1228 1600 
Q 959 1441 959 1056 
Q 959 750 1161 570 
Q 1363 391 1709 391 
Q 2188 391 2477 730 
Q 2766 1069 2766 1631 
L 2766 1759 
L 2194 1759 
z
M 3341 1997 
L 3341 0 
L 2766 0 
L 2766 531 
Q 2569 213 2275 61 
Q 1981 -91 1556 -91 
Q 1019 -91 701 211 
Q 384 513 384 1019 
Q 384 1609 779 1909 
Q 1175 2209 1959 2209 
L 2766 2209 
L 2766 2266 
Q 2766 2663 2505 2880 
Q 2244 3097 1772 3097 
Q 1472 3097 1187 3025 
Q 903 2953 641 2809 
L 641 3341 
Q 956 3463 1253 3523 
Q 1550 3584 1831 3584 
Q 2591 3584 2966 3190 
Q 3341 2797 3341 1997 
z
" transform="scale(0.015625)"/>
       <path id="DejaVuSans-72" d="M 2631 2963 
Q 2534 3019 2420 3045 
Q 2306 3072 2169 3072 
Q 1681 3072 1420 2755 
Q 1159 2438 1159 1844 
L 1159 0 
L 581 0 
L 581 3500 
L 1159 3500 
L 1159 2956 
Q 1341 3275 1631 3429 
Q 1922 3584 2338 3584 
Q 2397 3584 2469 3576 
Q 2541 3569 2628 3553 
L 2631 2963 
z
" transform="scale(0.015625)"/>
       <path id="DejaVuSans-6c" d="M 603 4863 
L 1178 4863 
L 1178 0 
L 603 0 
L 603 4863 
z
" transform="scale(0.015625)"/>
       <path id="DejaVuSans-79" d="M 2059 -325 
Q 1816 -950 1584 -1140 
Q 1353 -1331 966 -1331 
L 506 -1331 
L 506 -850 
L 844 -850 
Q 1081 -850 1212 -737 
Q 1344 -625 1503 -206 
L 1606 56 
L 191 3500 
L 800 3500 
L 1894 763 
L 2988 3500 
L 3597 3500 
L 2059 -325 
z
" transform="scale(0.015625)"/>
       <path id="DejaVuSans-20" transform="scale(0.015625)"/>
       <path id="DejaVuSans-43" d="M 4122 4306 
L 4122 3641 
Q 3803 3938 3442 4084 
Q 3081 4231 2675 4231 
Q 1875 4231 1450 3742 
Q 1025 3253 1025 2328 
Q 1025 1406 1450 917 
Q 1875 428 2675 428 
Q 3081 428 3442 575 
Q 3803 722 4122 1019 
L 4122 359 
Q 3791 134 3420 21 
Q 3050 -91 2638 -91 
Q 1578 -91 968 557 
Q 359 1206 359 2328 
Q 359 3453 968 4101 
Q 1578 4750 2638 4750 
Q 3056 4750 3426 4639 
Q 3797 4528 4122 4306 
z
" transform="scale(0.015625)"/>
       <path id="DejaVuSans-4f" d="M 2522 4238 
Q 1834 4238 1429 3725 
Q 1025 3213 1025 2328 
Q 1025 1447 1429 934 
Q 1834 422 2522 422 
Q 3209 422 3611 934 
Q 4013 1447 4013 2328 
Q 4013 3213 3611 3725 
Q 3209 4238 2522 4238 
z
M 2522 4750 
Q 3503 4750 4090 4092 
Q 4678 3434 4678 2328 
Q 4678 1225 4090 567 
Q 3503 -91 2522 -91 
Q 1538 -91 948 565 
Q 359 1222 359 2328 
Q 359 3434 948 4092 
Q 1538 4750 2522 4750 
z
" transform="scale(0.015625)"/>
       <path id="DejaVuSans-6d" d="M 3328 2828 
Q 3544 3216 3844 3400 
Q 4144 3584 4550 3584 
Q 5097 3584 5394 3201 
Q 5691 2819 5691 2113 
L 5691 0 
L 5113 0 
L 5113 2094 
Q 5113 2597 4934 2840 
Q 4756 3084 4391 3084 
Q 3944 3084 3684 2787 
Q 3425 2491 3425 1978 
L 3425 0 
L 2847 0 
L 2847 2094 
Q 2847 2600 2669 2842 
Q 2491 3084 2119 3084 
Q 1678 3084 1418 2786 
Q 1159 2488 1159 1978 
L 1159 0 
L 581 0 
L 581 3500 
L 1159 3500 
L 1159 2956 
Q 1356 3278 1631 3431 
Q 1906 3584 2284 3584 
Q 2666 3584 2933 3390 
Q 3200 3197 3328 2828 
z
" transform="scale(0.015625)"/>
       <path id="DejaVuSans-69" d="M 603 3500 
L 1178 3500 
L 1178 0 
L 603 0 
L 603 3500 
z
M 603 4863 
L 1178 4863 
L 1178 4134 
L 603 4134 
L 603 4863 
z
" transform="scale(0.015625)"/>
       <path id="DejaVuSans-73" d="M 2834 3397 
L 2834 2853 
Q 2591 2978 2328 3040 
Q 2066 3103 1784 3103 
Q 1356 3103 1142 2972 
Q 928 2841 928 2578 
Q 928 2378 1081 2264 
Q 1234 2150 1697 2047 
L 1894 2003 
Q 2506 1872 2764 1633 
Q 3022 1394 3022 966 
Q 3022 478 2636 193 
Q 2250 -91 1575 -91 
Q 1294 -91 989 -36 
Q 684 19 347 128 
L 347 722 
Q 666 556 975 473 
Q 1284 391 1588 391 
Q 1994 391 2212 530 
Q 2431 669 2431 922 
Q 2431 1156 2273 1281 
Q 2116 1406 1581 1522 
L 1381 1569 
Q 847 1681 609 1914 
Q 372 2147 372 2553 
Q 372 3047 722 3315 
Q 1072 3584 1716 3584 
Q 2034 3584 2315 3537 
Q 2597 3491 2834 3397 
z
" transform="scale(0.015625)"/>
       <path id="DejaVuSans-6f" d="M 1959 3097 
Q 1497 3097 1228 2736 
Q 959 2375 959 1747 
Q 959 1119 1226 758 
Q 1494 397 1959 397 
Q 2419 397 2687 759 
Q 2956 1122 2956 1747 
Q 2956 2369 2687 2733 
Q 2419 3097 1959 3097 
z
M 1959 3584 
Q 2709 3584 3137 3096 
Q 3566 2609 3566 1747 
Q 3566 888 3137 398 
Q 2709 -91 1959 -91 
Q 1206 -91 779 398 
Q 353 888 353 1747 
Q 353 2609 779 3096 
Q 1206 3584 1959 3584 
z
" transform="scale(0.015625)"/>
       <path id="DejaVuSans-6e" d="M 3513 2113 
L 3513 0 
L 2938 0 
L 2938 2094 
Q 2938 2591 2744 2837 
Q 2550 3084 2163 3084 
Q 1697 3084 1428 2787 
Q 1159 2491 1159 1978 
L 1159 0 
L 581 0 
L 581 3500 
L 1159 3500 
L 1159 2956 
Q 1366 3272 1645 3428 
Q 1925 3584 2291 3584 
Q 2894 3584 3203 3211 
Q 3513 2838 3513 2113 
z
" transform="scale(0.015625)"/>
      </defs>
      <use xlink:href="#DejaVuSans-59"/>
      <use xlink:href="#DejaVuSans-65" x="47.833984"/>
      <use xlink:href="#DejaVuSans-61" x="109.357422"/>
      <use xlink:href="#DejaVuSans-72" x="170.636719"/>
      <use xlink:href="#DejaVuSans-6c" x="211.75"/>
      <use xlink:href="#DejaVuSans-79" x="239.533203"/>
      <use xlink:href="#DejaVuSans-20" x="298.712891"/>
      <use xlink:href="#DejaVuSans-43" x="330.5"/>
      <use xlink:href="#DejaVuSans-4f" x="400.324219"/>
      <use xlink:href="#DejaVuSans-32" x="479.035156"/>
      <use xlink:href="#DejaVuSans-20" x="542.658203"/>
      <use xlink:href="#DejaVuSans-65" x="574.445312"/>
      <use xlink:href="#DejaVuSans-6d" x="635.96875"/>
      <use xlink:href="#DejaVuSans-69" x="733.380859"/>
      <use xlink:href="#DejaVuSans-73" x="761.164062"/>
      <use xlink:href="#DejaVuSans-73" x="813.263672"/>
      <use xlink:href="#DejaVuSans-69" x="865.363281"/>
      <use xlink:href="#DejaVuSans-6f" x="893.146484"/>
      <use xlink:href="#DejaVuSans-6e" x="954.328125"/>
      <use xlink:href="#DejaVuSans-73" x="1017.707031"/>
     </g>
     <!-- $(GtCO_2)$ -->
     <g transform="translate(46.195312 195.543043) rotate(-90) scale(0.1 -0.1)">
      <defs>
       <path id="DejaVuSans-28" d="M 1984 4856 
Q 1566 4138 1362 3434 
Q 1159 2731 1159 2009 
Q 1159 1288 1364 580 
Q 1569 -128 1984 -844 
L 1484 -844 
Q 1016 -109 783 600 
Q 550 1309 550 2009 
Q 550 2706 781 3412 
Q 1013 4119 1484 4856 
L 1984 4856 
z
" transform="scale(0.015625)"/>
       <path id="DejaVuSans-Oblique-47" d="M 3494 697 
L 3738 1919 
L 2700 1919 
L 2797 2438 
L 4453 2438 
L 4050 384 
Q 3634 156 3143 32 
Q 2653 -91 2156 -91 
Q 1278 -91 783 396 
Q 288 884 288 1753 
Q 288 2475 589 3126 
Q 891 3778 1422 4213 
Q 1756 4484 2153 4617 
Q 2550 4750 3034 4750 
Q 3472 4750 3873 4639 
Q 4275 4528 4641 4306 
L 4513 3634 
Q 4231 3928 3853 4083 
Q 3475 4238 3047 4238 
Q 2550 4238 2172 4048 
Q 1794 3859 1497 3463 
Q 1244 3125 1098 2667 
Q 953 2209 953 1734 
Q 953 1081 1287 751 
Q 1622 422 2284 422 
Q 2616 422 2925 492 
Q 3234 563 3494 697 
z
" transform="scale(0.015625)"/>
       <path id="DejaVuSans-Oblique-74" d="M 2706 3500 
L 2619 3053 
L 1472 3053 
L 1100 1153 
Q 1081 1047 1072 975 
Q 1063 903 1063 863 
Q 1063 663 1183 572 
Q 1303 481 1569 481 
L 2150 481 
L 2053 0 
L 1503 0 
Q 991 0 739 200 
Q 488 400 488 806 
Q 488 878 497 964 
Q 506 1050 525 1153 
L 897 3053 
L 409 3053 
L 500 3500 
L 978 3500 
L 1172 4494 
L 1747 4494 
L 1556 3500 
L 2706 3500 
z
" transform="scale(0.015625)"/>
       <path id="DejaVuSans-Oblique-43" d="M 4447 4306 
L 4319 3641 
Q 4019 3944 3683 4091 
Q 3347 4238 2956 4238 
Q 2422 4238 2017 3981 
Q 1613 3725 1319 3200 
Q 1131 2863 1032 2486 
Q 934 2109 934 1728 
Q 934 1091 1264 756 
Q 1594 422 2222 422 
Q 2656 422 3056 561 
Q 3456 700 3834 978 
L 3688 231 
Q 3316 72 2936 -9 
Q 2556 -91 2175 -91 
Q 1278 -91 773 396 
Q 269 884 269 1753 
Q 269 2309 461 2846 
Q 653 3384 1013 3828 
Q 1394 4300 1883 4525 
Q 2372 4750 3022 4750 
Q 3422 4750 3780 4639 
Q 4138 4528 4447 4306 
z
" transform="scale(0.015625)"/>
       <path id="DejaVuSans-Oblique-4f" d="M 2919 4238 
Q 2400 4238 2003 3986 
Q 1606 3734 1313 3219 
Q 1125 2891 1026 2522 
Q 928 2153 928 1778 
Q 928 1128 1239 775 
Q 1550 422 2119 422 
Q 2631 422 3032 676 
Q 3434 931 3719 1434 
Q 3909 1772 4009 2142 
Q 4109 2513 4109 2881 
Q 4109 3528 3796 3883 
Q 3484 4238 2919 4238 
z
M 2100 -91 
Q 1241 -91 748 418 
Q 256 928 256 1813 
Q 256 2319 448 2847 
Q 641 3375 978 3788 
Q 1375 4272 1862 4511 
Q 2350 4750 2938 4750 
Q 3794 4750 4287 4245 
Q 4781 3741 4781 2869 
Q 4781 2331 4593 1812 
Q 4406 1294 4056 872 
Q 3656 384 3173 146 
Q 2691 -91 2100 -91 
z
" transform="scale(0.015625)"/>
       <path id="DejaVuSans-29" d="M 513 4856 
L 1013 4856 
Q 1481 4119 1714 3412 
Q 1947 2706 1947 2009 
Q 1947 1309 1714 600 
Q 1481 -109 1013 -844 
L 513 -844 
Q 928 -128 1133 580 
Q 1338 1288 1338 2009 
Q 1338 2731 1133 3434 
Q 928 4138 513 4856 
z
" transform="scale(0.015625)"/>
      </defs>
      <use xlink:href="#DejaVuSans-28" transform="translate(0 0.125)"/>
      <use xlink:href="#DejaVuSans-Oblique-47" transform="translate(39.013672 0.125)"/>
      <use xlink:href="#DejaVuSans-Oblique-74" transform="translate(116.503906 0.125)"/>
      <use xlink:href="#DejaVuSans-Oblique-43" transform="translate(155.712891 0.125)"/>
      <use xlink:href="#DejaVuSans-Oblique-4f" transform="translate(225.537109 0.125)"/>
      <use xlink:href="#DejaVuSans-32" transform="translate(304.248047 -16.28125) scale(0.7)"/>
      <use xlink:href="#DejaVuSans-29" transform="translate(351.518555 0.125)"/>
     </g>
    </g>
   </g>
   <g id="line2d_14">
    <path d="M -1 240.026472 
L 5.04 239.846135 
L 9.504 239.513808 
L 11.736 239.375518 
L 13.968 239.525761 
L 16.2 239.338756 
L 22.896 239.237537 
L 25.128 239.058728 
L 27.36 238.708682 
L 31.824 238.431668 
L 34.056 238.222324 
L 40.752 238.10034 
L 42.984 237.918715 
L 45.216 237.50961 
L 47.448 237.511281 
L 49.68 237.13354 
L 51.912 236.91957 
L 58.608 236.770879 
L 60.84 236.471914 
L 65.304 236.04328 
L 67.536 235.731742 
L 69.768 235.177366 
L 72 234.818208 
L 76.464 234.40924 
L 78.696 233.749045 
L 80.928 233.658189 
L 83.16 233.135574 
L 85.392 232.755131 
L 87.624 231.502909 
L 89.856 231.89923 
L 94.32 230.987562 
L 96.552 230.826791 
L 98.784 230.273155 
L 101.016 229.315762 
L 103.248 230.470161 
L 105.48 230.631425 
L 107.712 229.742838 
L 109.944 229.19539 
L 112.176 229.361892 
L 114.408 231.006191 
L 116.64 229.26194 
L 118.872 230.790493 
L 121.104 230.258288 
L 123.336 228.715342 
L 127.8 228.537415 
L 130.032 228.772366 
L 132.264 227.587849 
L 134.496 227.650475 
L 136.728 226.617791 
L 138.96 227.796889 
L 141.192 229.276539 
L 143.424 230.502429 
L 145.656 229.909039 
L 147.888 228.873415 
L 150.12 228.234696 
L 152.352 226.924385 
L 154.584 225.903405 
L 156.816 226.852872 
L 159.048 225.988142 
L 161.28 224.538861 
L 163.512 224.145774 
L 165.744 224.188362 
L 170.208 223.632216 
L 172.44 226.67939 
L 174.672 225.304979 
L 176.904 223.533639 
L 179.136 222.551837 
L 181.368 223.153415 
L 183.6 220.470917 
L 185.832 219.137415 
L 188.064 218.833081 
L 190.296 218.18838 
L 192.528 217.684742 
L 194.76 215.371095 
L 196.992 213.667548 
L 201.456 211.92022 
L 203.688 210.36688 
L 205.92 208.484701 
L 208.152 208.375648 
L 210.384 207.197708 
L 219.312 199.704104 
L 221.544 198.36858 
L 223.776 196.00681 
L 226.008 192.973399 
L 228.24 188.96671 
L 230.472 186.817731 
L 232.704 184.256321 
L 234.936 181.219516 
L 237.168 181.462882 
L 239.4 181.331311 
L 241.632 178.0119 
L 243.864 176.202282 
L 248.328 172.2512 
L 250.56 172.666273 
L 252.792 174.313643 
L 255.024 174.850661 
L 257.256 174.418397 
L 261.72 169.747199 
L 263.952 168.678082 
L 266.184 166.388271 
L 268.416 163.434953 
L 270.648 162.363237 
L 272.88 161.134021 
L 275.112 159.408098 
L 277.344 161.762505 
L 279.576 160.937745 
L 281.808 160.383136 
L 284.04 158.650526 
L 286.272 156.169025 
L 288.504 155.661863 
L 290.736 155.978214 
L 292.968 154.139661 
L 295.2 151.58533 
L 297.432 150.825917 
L 299.664 148.654951 
L 301.896 143.800964 
L 308.592 133.383239 
L 310.824 130.147368 
L 313.056 128.096608 
L 315.288 129.944639 
L 317.52 123.568616 
L 319.752 119.592576 
L 321.984 117.753566 
L 324.216 116.645279 
L 326.448 115.730367 
L 330.912 115.919291 
L 333.144 113.891552 
L 335.376 111.30699 
L 337.608 110.400157 
L 339.84 116.840482 
L 342.072 110.253913 
L 342.072 110.253913 
" clip-path="url(#p72bffbd5cf)" style="fill: none; stroke: #440154; stroke-width: 1.5; stroke-linecap: square"/>
   </g>
   <g id="line2d_15">
    <path d="M 346.536 110.253913 
L 348.768 112.70295 
L 351 119.108836 
L 353.232 128.237138 
L 355.464 139.070485 
L 357.696 150.785229 
L 359.928 162.729335 
L 362.16 174.401489 
L 364.392 185.431425 
L 366.624 195.561481 
L 368.856 204.629373 
L 371.088 212.552184 
L 373.32 219.31159 
L 375.552 224.940292 
L 377.784 229.509679 
L 380.016 233.118711 
L 382.248 235.884023 
L 384.48 237.931248 
L 386.712 239.387568 
L 388.944 240.375482 
L 391.176 241.007796 
L 393.408 241.383835 
L 395.64 241.586882 
L 397.872 241.682827 
L 400.104 241.720051 
L 402.336 241.730523 
L 404.568 241.732121 
L 406.8 241.732174 
L 409.032 241.732174 
L 411.264 241.732174 
L 413.496 241.732174 
L 415.728 241.732174 
L 417.96 241.732174 
L 420.192 241.732174 
L 422.424 241.732174 
L 424.656 241.732174 
L 426.888 241.732174 
L 429.12 241.732174 
L 431.352 241.732174 
L 433.584 241.732174 
L 435.816 241.732174 
L 438.048 241.732174 
L 440.28 241.732174 
L 442.512 241.732174 
L 444.744 241.732174 
L 446.976 241.732174 
L 449.208 241.732174 
L 451.44 241.732174 
L 453.672 241.732174 
L 455.904 241.732174 
L 458.136 241.732174 
L 460.368 241.732174 
L 462.6 241.732174 
L 464.832 241.732174 
L 467.064 241.732174 
L 469.296 241.732174 
L 471.528 241.732174 
L 473.76 241.732174 
L 475.992 241.732174 
L 478.224 241.732174 
L 480.456 241.732174 
L 482.688 241.732174 
L 484.92 241.732174 
L 487.152 241.732174 
L 489.384 241.732174 
L 491.616 241.732174 
L 493.848 241.732174 
L 496.08 241.732174 
L 498.312 241.732174 
L 500.544 241.732174 
L 502.776 241.732174 
L 505.008 241.732174 
L 507.24 241.732174 
L 509.472 241.732174 
L 511.704 241.732174 
L 513.936 241.732174 
L 516.168 241.732174 
L 518.4 241.732174 
" clip-path="url(#p72bffbd5cf)" style="fill: none; stroke: #31688e; stroke-width: 1.5; stroke-linecap: square"/>
   </g>
   <g id="line2d_16">
    <path d="M 346.536 110.253913 
L 348.768 110.317055 
L 351 110.730679 
L 353.232 111.770225 
L 355.464 113.63526 
L 357.696 116.456082 
L 359.928 120.300314 
L 362.16 125.1795 
L 364.392 131.055706 
L 366.624 137.848116 
L 368.856 145.439626 
L 371.088 153.683446 
L 373.32 162.409695 
L 375.552 171.431999 
L 377.784 180.554088 
L 380.016 189.576392 
L 382.248 198.302641 
L 384.48 206.546461 
L 386.712 214.137971 
L 388.944 220.93038 
L 391.176 226.806587 
L 393.408 231.685773 
L 395.64 235.530005 
L 397.872 238.350827 
L 400.104 240.215862 
L 402.336 241.255408 
L 404.568 241.669032 
L 406.8 241.732174 
L 409.032 241.732174 
L 411.264 241.732174 
L 413.496 241.732174 
L 415.728 241.732174 
L 417.96 241.732174 
L 420.192 241.732174 
L 422.424 241.732174 
L 424.656 241.732174 
L 426.888 241.732174 
L 429.12 241.732174 
L 431.352 241.732174 
L 433.584 241.732174 
L 435.816 241.732174 
L 438.048 241.732174 
L 440.28 241.732174 
L 442.512 241.732174 
L 444.744 241.732174 
L 446.976 241.732174 
L 449.208 241.732174 
L 451.44 241.732174 
L 453.672 241.732174 
L 455.904 241.732174 
L 458.136 241.732174 
L 460.368 241.732174 
L 462.6 241.732174 
L 464.832 241.732174 
L 467.064 241.732174 
L 469.296 241.732174 
L 471.528 241.732174 
L 473.76 241.732174 
L 475.992 241.732174 
L 478.224 241.732174 
L 480.456 241.732174 
L 482.688 241.732174 
L 484.92 241.732174 
L 487.152 241.732174 
L 489.384 241.732174 
L 491.616 241.732174 
L 493.848 241.732174 
L 496.08 241.732174 
L 498.312 241.732174 
L 500.544 241.732174 
L 502.776 241.732174 
L 505.008 241.732174 
L 507.24 241.732174 
L 509.472 241.732174 
L 511.704 241.732174 
L 513.936 241.732174 
L 516.168 241.732174 
L 518.4 241.732174 
" clip-path="url(#p72bffbd5cf)" style="fill: none; stroke: #35b779; stroke-width: 1.5; stroke-linecap: square"/>
   </g>
   <g id="line2d_17">
    <path d="M 346.536 110.253913 
L 348.768 110.253966 
L 351 110.255564 
L 353.232 110.266036 
L 355.464 110.30326 
L 357.696 110.399205 
L 359.928 110.602252 
L 362.16 110.978291 
L 364.392 111.610605 
L 366.624 112.598519 
L 368.856 114.054839 
L 371.088 116.102064 
L 373.32 118.867376 
L 375.552 122.476408 
L 377.784 127.045795 
L 380.016 132.674497 
L 382.248 139.433903 
L 384.48 147.356714 
L 386.712 156.424605 
L 388.944 166.554662 
L 391.176 177.584598 
L 393.408 189.256752 
L 395.64 201.200858 
L 397.872 212.915602 
L 400.104 223.748948 
L 402.336 232.877251 
L 404.568 239.283137 
L 406.8 241.732174 
L 409.032 241.732174 
L 411.264 241.732174 
L 413.496 241.732174 
L 415.728 241.732174 
L 417.96 241.732174 
L 420.192 241.732174 
L 422.424 241.732174 
L 424.656 241.732174 
L 426.888 241.732174 
L 429.12 241.732174 
L 431.352 241.732174 
L 433.584 241.732174 
L 435.816 241.732174 
L 438.048 241.732174 
L 440.28 241.732174 
L 442.512 241.732174 
L 444.744 241.732174 
L 446.976 241.732174 
L 449.208 241.732174 
L 451.44 241.732174 
L 453.672 241.732174 
L 455.904 241.732174 
L 458.136 241.732174 
L 460.368 241.732174 
L 462.6 241.732174 
L 464.832 241.732174 
L 467.064 241.732174 
L 469.296 241.732174 
L 471.528 241.732174 
L 473.76 241.732174 
L 475.992 241.732174 
L 478.224 241.732174 
L 480.456 241.732174 
L 482.688 241.732174 
L 484.92 241.732174 
L 487.152 241.732174 
L 489.384 241.732174 
L 491.616 241.732174 
L 493.848 241.732174 
L 496.08 241.732174 
L 498.312 241.732174 
L 500.544 241.732174 
L 502.776 241.732174 
L 505.008 241.732174 
L 507.24 241.732174 
L 509.472 241.732174 
L 511.704 241.732174 
L 513.936 241.732174 
L 516.168 241.732174 
L 518.4 241.732174 
" clip-path="url(#p72bffbd5cf)" style="fill: none; stroke: #fde725; stroke-width: 1.5; stroke-linecap: square"/>
   </g>
   <g id="patch_3">
    <path d="M 72 241.732174 
L 72 135.483829 
" style="fill: none; stroke: #000000; stroke-width: 0.8; stroke-linejoin: miter; stroke-linecap: square"/>
   </g>
   <g id="patch_4">
    <path d="M 72 248.306087 
L 518.4 248.306087 
" style="fill: none; stroke: #000000; stroke-width: 0.8; stroke-linejoin: miter; stroke-linecap: square"/>
   </g>
  </g>
  <g id="axes_2">
   <g id="patch_5">
    <path d="M 72 421.857391 
L 518.4 421.857391 
L 518.4 277.231304 
L 72 277.231304 
z
" style="fill: #ffffff"/>
   </g>
   <g id="PolyCollection_5"/>
   <g id="PolyCollection_6">
    <defs>
     <path id="m286a8e707e" d="M 406.8 -557.341832 
L 406.8 -557.341832 
L 406.8 -557.341832 
L 406.8 -557.341832 
z
" style="stroke: #31688e; stroke-opacity: 0.2"/>
    </defs>
    <g clip-path="url(#p33611f3c4f)">
     <use xlink:href="#m286a8e707e" x="0" y="864" style="fill: #31688e; fill-opacity: 0.2; stroke: #31688e; stroke-opacity: 0.2"/>
    </g>
   </g>
   <g id="PolyCollection_7">
    <defs>
     <path id="m8c052d36f4" d="M 406.8 -568.768308 
L 406.8 -568.768308 
L 406.8 -568.768308 
L 406.8 -568.768308 
z
" style="stroke: #35b779; stroke-opacity: 0.2"/>
    </defs>
    <g clip-path="url(#p33611f3c4f)">
     <use xlink:href="#m8c052d36f4" x="0" y="864" style="fill: #35b779; fill-opacity: 0.2; stroke: #35b779; stroke-opacity: 0.2"/>
    </g>
   </g>
   <g id="PolyCollection_8">
    <defs>
     <path id="mb5bbbe39f3" d="M 406.8 -580.194783 
L 406.8 -580.194783 
L 406.8 -580.194783 
L 406.8 -580.194783 
z
" style="stroke: #fde725; stroke-opacity: 0.2"/>
    </defs>
    <g clip-path="url(#p33611f3c4f)">
     <use xlink:href="#mb5bbbe39f3" x="0" y="864" style="fill: #fde725; fill-opacity: 0.2; stroke: #fde725; stroke-opacity: 0.2"/>
    </g>
   </g>
   <g id="matplotlib.axis_3">
    <g id="xtick_10">
     <g id="line2d_18">
      <g>
       <use xlink:href="#md0b63f8352" x="72" y="421.857391" style="stroke: #000000; stroke-width: 0.8"/>
      </g>
     </g>
    </g>
    <g id="xtick_11">
     <g id="line2d_19">
      <g>
       <use xlink:href="#md0b63f8352" x="127.8" y="421.857391" style="stroke: #000000; stroke-width: 0.8"/>
      </g>
     </g>
    </g>
    <g id="xtick_12">
     <g id="line2d_20">
      <g>
       <use xlink:href="#md0b63f8352" x="183.6" y="421.857391" style="stroke: #000000; stroke-width: 0.8"/>
      </g>
     </g>
    </g>
    <g id="xtick_13">
     <g id="line2d_21">
      <g>
       <use xlink:href="#md0b63f8352" x="239.4" y="421.857391" style="stroke: #000000; stroke-width: 0.8"/>
      </g>
     </g>
    </g>
    <g id="xtick_14">
     <g id="line2d_22">
      <g>
       <use xlink:href="#md0b63f8352" x="295.2" y="421.857391" style="stroke: #000000; stroke-width: 0.8"/>
      </g>
     </g>
    </g>
    <g id="xtick_15">
     <g id="line2d_23">
      <g>
       <use xlink:href="#md0b63f8352" x="351" y="421.857391" style="stroke: #000000; stroke-width: 0.8"/>
      </g>
     </g>
    </g>
    <g id="xtick_16">
     <g id="line2d_24">
      <g>
       <use xlink:href="#md0b63f8352" x="406.8" y="421.857391" style="stroke: #000000; stroke-width: 0.8"/>
      </g>
     </g>
    </g>
    <g id="xtick_17">
     <g id="line2d_25">
      <g>
       <use xlink:href="#md0b63f8352" x="462.6" y="421.857391" style="stroke: #000000; stroke-width: 0.8"/>
      </g>
     </g>
    </g>
    <g id="xtick_18">
     <g id="line2d_26">
      <g>
       <use xlink:href="#md0b63f8352" x="518.4" y="421.857391" style="stroke: #000000; stroke-width: 0.8"/>
      </g>
     </g>
    </g>
   </g>
   <g id="matplotlib.axis_4">
    <g id="ytick_5">
     <g id="line2d_27">
      <g>
       <use xlink:href="#m4931302c12" x="72" y="415.283976" style="stroke: #000000; stroke-width: 0.8"/>
      </g>
     </g>
     <g id="text_6">
      <!-- 0 -->
      <g transform="translate(58.6375 419.083194) scale(0.1 -0.1)">
       <use xlink:href="#DejaVuSans-30"/>
      </g>
     </g>
    </g>
    <g id="ytick_6">
     <g id="line2d_28">
      <g>
       <use xlink:href="#m4931302c12" x="72" y="388.684472" style="stroke: #000000; stroke-width: 0.8"/>
      </g>
     </g>
     <g id="text_7">
      <!-- 500 -->
      <g transform="translate(45.9125 392.483691) scale(0.1 -0.1)">
       <defs>
        <path id="DejaVuSans-35" d="M 691 4666 
L 3169 4666 
L 3169 4134 
L 1269 4134 
L 1269 2991 
Q 1406 3038 1543 3061 
Q 1681 3084 1819 3084 
Q 2600 3084 3056 2656 
Q 3513 2228 3513 1497 
Q 3513 744 3044 326 
Q 2575 -91 1722 -91 
Q 1428 -91 1123 -41 
Q 819 9 494 109 
L 494 744 
Q 775 591 1075 516 
Q 1375 441 1709 441 
Q 2250 441 2565 725 
Q 2881 1009 2881 1497 
Q 2881 1984 2565 2268 
Q 2250 2553 1709 2553 
Q 1456 2553 1204 2497 
Q 953 2441 691 2322 
L 691 4666 
z
" transform="scale(0.015625)"/>
       </defs>
       <use xlink:href="#DejaVuSans-35"/>
       <use xlink:href="#DejaVuSans-30" x="63.623047"/>
       <use xlink:href="#DejaVuSans-30" x="127.246094"/>
      </g>
     </g>
    </g>
    <g id="ytick_7">
     <g id="line2d_29">
      <g>
       <use xlink:href="#m4931302c12" x="72" y="362.084968" style="stroke: #000000; stroke-width: 0.8"/>
      </g>
     </g>
     <g id="text_8">
      <!-- 1000 -->
      <g transform="translate(39.55 365.884187) scale(0.1 -0.1)">
       <use xlink:href="#DejaVuSans-31"/>
       <use xlink:href="#DejaVuSans-30" x="63.623047"/>
       <use xlink:href="#DejaVuSans-30" x="127.246094"/>
       <use xlink:href="#DejaVuSans-30" x="190.869141"/>
      </g>
     </g>
    </g>
    <g id="ytick_8">
     <g id="line2d_30">
      <g>
       <use xlink:href="#m4931302c12" x="72" y="335.485464" style="stroke: #000000; stroke-width: 0.8"/>
      </g>
     </g>
     <g id="text_9">
      <!-- 1500 -->
      <g transform="translate(39.55 339.284683) scale(0.1 -0.1)">
       <use xlink:href="#DejaVuSans-31"/>
       <use xlink:href="#DejaVuSans-35" x="63.623047"/>
       <use xlink:href="#DejaVuSans-30" x="127.246094"/>
       <use xlink:href="#DejaVuSans-30" x="190.869141"/>
      </g>
     </g>
    </g>
    <g id="ytick_9">
     <g id="line2d_31">
      <g>
       <use xlink:href="#m4931302c12" x="72" y="308.88596" style="stroke: #000000; stroke-width: 0.8"/>
      </g>
     </g>
     <g id="text_10">
      <!-- 2000 -->
      <g transform="translate(39.55 312.685179) scale(0.1 -0.1)">
       <use xlink:href="#DejaVuSans-32"/>
       <use xlink:href="#DejaVuSans-30" x="63.623047"/>
       <use xlink:href="#DejaVuSans-30" x="127.246094"/>
       <use xlink:href="#DejaVuSans-30" x="190.869141"/>
      </g>
     </g>
    </g>
    <g id="ytick_10">
     <g id="line2d_32">
      <g>
       <use xlink:href="#m4931302c12" x="72" y="282.286457" style="stroke: #000000; stroke-width: 0.8"/>
      </g>
     </g>
     <g id="text_11">
      <!-- 2500 -->
      <g transform="translate(39.55 286.085675) scale(0.1 -0.1)">
       <use xlink:href="#DejaVuSans-32"/>
       <use xlink:href="#DejaVuSans-35" x="63.623047"/>
       <use xlink:href="#DejaVuSans-30" x="127.246094"/>
       <use xlink:href="#DejaVuSans-30" x="190.869141"/>
      </g>
     </g>
    </g>
    <g id="text_12">
     <!-- Total CO2 -->
     <g transform="translate(22.250312 373.418567) rotate(-90) scale(0.1 -0.1)">
      <defs>
       <path id="DejaVuSans-54" d="M -19 4666 
L 3928 4666 
L 3928 4134 
L 2272 4134 
L 2272 0 
L 1638 0 
L 1638 4134 
L -19 4134 
L -19 4666 
z
" transform="scale(0.015625)"/>
       <path id="DejaVuSans-74" d="M 1172 4494 
L 1172 3500 
L 2356 3500 
L 2356 3053 
L 1172 3053 
L 1172 1153 
Q 1172 725 1289 603 
Q 1406 481 1766 481 
L 2356 481 
L 2356 0 
L 1766 0 
Q 1100 0 847 248 
Q 594 497 594 1153 
L 594 3053 
L 172 3053 
L 172 3500 
L 594 3500 
L 594 4494 
L 1172 4494 
z
" transform="scale(0.015625)"/>
      </defs>
      <use xlink:href="#DejaVuSans-54"/>
      <use xlink:href="#DejaVuSans-6f" x="44.083984"/>
      <use xlink:href="#DejaVuSans-74" x="105.265625"/>
      <use xlink:href="#DejaVuSans-61" x="144.474609"/>
      <use xlink:href="#DejaVuSans-6c" x="205.753906"/>
      <use xlink:href="#DejaVuSans-20" x="233.537109"/>
      <use xlink:href="#DejaVuSans-43" x="265.324219"/>
      <use xlink:href="#DejaVuSans-4f" x="335.148438"/>
      <use xlink:href="#DejaVuSans-32" x="413.859375"/>
     </g>
     <!-- in atmosphere $(GtCO_2)$ -->
     <g transform="translate(33.45 406.944348) rotate(-90) scale(0.1 -0.1)">
      <defs>
       <path id="DejaVuSans-70" d="M 1159 525 
L 1159 -1331 
L 581 -1331 
L 581 3500 
L 1159 3500 
L 1159 2969 
Q 1341 3281 1617 3432 
Q 1894 3584 2278 3584 
Q 2916 3584 3314 3078 
Q 3713 2572 3713 1747 
Q 3713 922 3314 415 
Q 2916 -91 2278 -91 
Q 1894 -91 1617 61 
Q 1341 213 1159 525 
z
M 3116 1747 
Q 3116 2381 2855 2742 
Q 2594 3103 2138 3103 
Q 1681 3103 1420 2742 
Q 1159 2381 1159 1747 
Q 1159 1113 1420 752 
Q 1681 391 2138 391 
Q 2594 391 2855 752 
Q 3116 1113 3116 1747 
z
" transform="scale(0.015625)"/>
       <path id="DejaVuSans-68" d="M 3513 2113 
L 3513 0 
L 2938 0 
L 2938 2094 
Q 2938 2591 2744 2837 
Q 2550 3084 2163 3084 
Q 1697 3084 1428 2787 
Q 1159 2491 1159 1978 
L 1159 0 
L 581 0 
L 581 4863 
L 1159 4863 
L 1159 2956 
Q 1366 3272 1645 3428 
Q 1925 3584 2291 3584 
Q 2894 3584 3203 3211 
Q 3513 2838 3513 2113 
z
" transform="scale(0.015625)"/>
      </defs>
      <use xlink:href="#DejaVuSans-69" transform="translate(0 0.015625)"/>
      <use xlink:href="#DejaVuSans-6e" transform="translate(27.783203 0.015625)"/>
      <use xlink:href="#DejaVuSans-20" transform="translate(91.162109 0.015625)"/>
      <use xlink:href="#DejaVuSans-61" transform="translate(122.949219 0.015625)"/>
      <use xlink:href="#DejaVuSans-74" transform="translate(184.228516 0.015625)"/>
      <use xlink:href="#DejaVuSans-6d" transform="translate(223.4375 0.015625)"/>
      <use xlink:href="#DejaVuSans-6f" transform="translate(320.849609 0.015625)"/>
      <use xlink:href="#DejaVuSans-73" transform="translate(382.03125 0.015625)"/>
      <use xlink:href="#DejaVuSans-70" transform="translate(434.130859 0.015625)"/>
      <use xlink:href="#DejaVuSans-68" transform="translate(497.607422 0.015625)"/>
      <use xlink:href="#DejaVuSans-65" transform="translate(560.986328 0.015625)"/>
      <use xlink:href="#DejaVuSans-72" transform="translate(622.509766 0.015625)"/>
      <use xlink:href="#DejaVuSans-65" transform="translate(663.623047 0.015625)"/>
      <use xlink:href="#DejaVuSans-20" transform="translate(725.146484 0.015625)"/>
      <use xlink:href="#DejaVuSans-28" transform="translate(756.933594 0.015625)"/>
      <use xlink:href="#DejaVuSans-Oblique-47" transform="translate(795.947266 0.015625)"/>
      <use xlink:href="#DejaVuSans-Oblique-74" transform="translate(873.4375 0.015625)"/>
      <use xlink:href="#DejaVuSans-Oblique-43" transform="translate(912.646484 0.015625)"/>
      <use xlink:href="#DejaVuSans-Oblique-4f" transform="translate(982.470703 0.015625)"/>
      <use xlink:href="#DejaVuSans-32" transform="translate(1061.181641 -16.390625) scale(0.7)"/>
      <use xlink:href="#DejaVuSans-29" transform="translate(1108.452148 0.015625)"/>
     </g>
    </g>
   </g>
   <g id="line2d_33">
    <path d="M -1 414.732906 
L 27.36 414.293774 
L 49.68 413.729759 
L 72 412.899534 
L 85.392 412.177074 
L 105.48 410.70219 
L 134.496 408.254341 
L 141.192 407.630885 
L 150.12 406.888704 
L 163.512 405.446081 
L 183.6 403.01003 
L 194.76 401.215814 
L 203.688 399.439837 
L 212.616 397.374181 
L 219.312 395.564662 
L 223.776 394.226446 
L 228.24 392.701437 
L 232.704 391.013207 
L 243.864 386.350153 
L 259.488 379.179522 
L 266.184 375.869121 
L 275.112 371.053521 
L 284.04 366.168728 
L 295.2 359.632632 
L 299.664 356.868992 
L 304.128 353.874511 
L 308.592 350.67152 
L 317.52 343.83433 
L 326.448 336.36572 
L 335.376 328.704744 
L 342.072 322.881022 
L 342.072 322.881022 
" clip-path="url(#p33611f3c4f)" style="fill: none; stroke: #440154; stroke-width: 1.5; stroke-linecap: square"/>
   </g>
   <g id="line2d_34">
    <path d="M 346.536 320.90607 
L 348.768 318.967905 
L 351 317.125964 
L 353.232 315.42114 
L 355.464 313.879045 
L 357.696 312.512919 
L 359.928 311.326208 
L 362.16 310.314825 
L 364.392 309.469124 
L 366.624 308.775588 
L 368.856 308.218262 
L 371.088 307.779945 
L 373.32 307.443163 
L 375.552 307.19093 
L 377.784 307.007334 
L 380.016 306.87795 
L 382.248 306.790104 
L 384.48 306.73301 
L 386.712 306.697791 
L 388.944 306.677412 
L 391.176 306.666531 
L 393.408 306.661299 
L 395.64 306.659116 
L 397.872 306.658375 
L 400.104 306.658193 
L 402.336 306.658168 
L 404.568 306.658168 
L 406.8 306.658168 
L 409.032 306.658168 
L 411.264 306.658168 
L 413.496 306.658168 
L 415.728 306.658168 
L 417.96 306.658168 
L 420.192 306.658168 
L 422.424 306.658168 
L 424.656 306.658168 
L 426.888 306.658168 
L 429.12 306.658168 
L 431.352 306.658168 
L 433.584 306.658168 
L 435.816 306.658168 
L 438.048 306.658168 
L 440.28 306.658168 
L 442.512 306.658168 
L 444.744 306.658168 
L 446.976 306.658168 
L 449.208 306.658168 
L 451.44 306.658168 
L 453.672 306.658168 
L 455.904 306.658168 
L 458.136 306.658168 
L 460.368 306.658168 
L 462.6 306.658168 
L 464.832 306.658168 
L 467.064 306.658168 
L 469.296 306.658168 
L 471.528 306.658168 
L 473.76 306.658168 
L 475.992 306.658168 
L 478.224 306.658168 
L 480.456 306.658168 
L 482.688 306.658168 
L 484.92 306.658168 
L 487.152 306.658168 
L 489.384 306.658168 
L 491.616 306.658168 
L 493.848 306.658168 
L 496.08 306.658168 
L 498.312 306.658168 
L 500.544 306.658168 
L 502.776 306.658168 
L 505.008 306.658168 
L 507.24 306.658168 
L 509.472 306.658168 
L 511.704 306.658168 
L 513.936 306.658168 
L 516.168 306.658168 
L 518.4 306.658168 
" clip-path="url(#p33611f3c4f)" style="fill: none; stroke: #31688e; stroke-width: 1.5; stroke-linecap: square"/>
   </g>
   <g id="line2d_35">
    <path d="M 346.536 320.90607 
L 348.768 318.932066 
L 351 316.964275 
L 353.232 315.0121 
L 355.464 313.08794 
L 357.696 311.206151 
L 359.928 309.382107 
L 362.16 307.631354 
L 364.392 305.968869 
L 366.624 304.408413 
L 368.856 302.96199 
L 371.088 301.639399 
L 373.32 300.447885 
L 375.552 299.391897 
L 377.784 298.472933 
L 380.016 297.689494 
L 382.248 297.037134 
L 384.48 296.508605 
L 386.712 296.094108 
L 388.944 295.781642 
L 391.176 295.557443 
L 393.408 295.406534 
L 395.64 295.313371 
L 397.872 295.262579 
L 400.104 295.239803 
L 402.336 295.232641 
L 404.568 295.231692 
L 406.8 295.231692 
L 409.032 295.231692 
L 411.264 295.231692 
L 413.496 295.231692 
L 415.728 295.231692 
L 417.96 295.231692 
L 420.192 295.231692 
L 422.424 295.231692 
L 424.656 295.231692 
L 426.888 295.231692 
L 429.12 295.231692 
L 431.352 295.231692 
L 433.584 295.231692 
L 435.816 295.231692 
L 438.048 295.231692 
L 440.28 295.231692 
L 442.512 295.231692 
L 444.744 295.231692 
L 446.976 295.231692 
L 449.208 295.231692 
L 451.44 295.231692 
L 453.672 295.231692 
L 455.904 295.231692 
L 458.136 295.231692 
L 460.368 295.231692 
L 462.6 295.231692 
L 464.832 295.231692 
L 467.064 295.231692 
L 469.296 295.231692 
L 471.528 295.231692 
L 473.76 295.231692 
L 475.992 295.231692 
L 478.224 295.231692 
L 480.456 295.231692 
L 482.688 295.231692 
L 484.92 295.231692 
L 487.152 295.231692 
L 489.384 295.231692 
L 491.616 295.231692 
L 493.848 295.231692 
L 496.08 295.231692 
L 498.312 295.231692 
L 500.544 295.231692 
L 502.776 295.231692 
L 505.008 295.231692 
L 507.24 295.231692 
L 509.472 295.231692 
L 511.704 295.231692 
L 513.936 295.231692 
L 516.168 295.231692 
L 518.4 295.231692 
" clip-path="url(#p33611f3c4f)" style="fill: none; stroke: #35b779; stroke-width: 1.5; stroke-linecap: square"/>
   </g>
   <g id="line2d_36">
    <path d="M 346.536 320.90607 
L 348.768 318.931118 
L 351 316.956191 
L 353.232 314.981421 
L 355.464 313.00721 
L 357.696 311.034441 
L 359.928 309.064721 
L 362.16 307.10065 
L 364.392 305.146077 
L 366.624 303.206343 
L 368.856 301.288485 
L 371.088 299.401379 
L 373.32 297.555811 
L 375.552 295.764455 
L 377.784 294.041736 
L 380.016 292.403566 
L 382.248 290.86693 
L 384.48 289.449304 
L 386.712 288.167888 
L 388.944 287.038637 
L 391.176 286.075068 
L 393.408 285.286828 
L 395.64 284.678002 
L 397.872 284.245144 
L 400.104 283.975016 
L 402.336 283.842005 
L 404.568 283.805217 
L 406.8 283.805217 
L 409.032 283.805217 
L 411.264 283.805217 
L 413.496 283.805217 
L 415.728 283.805217 
L 417.96 283.805217 
L 420.192 283.805217 
L 422.424 283.805217 
L 424.656 283.805217 
L 426.888 283.805217 
L 429.12 283.805217 
L 431.352 283.805217 
L 433.584 283.805217 
L 435.816 283.805217 
L 438.048 283.805217 
L 440.28 283.805217 
L 442.512 283.805217 
L 444.744 283.805217 
L 446.976 283.805217 
L 449.208 283.805217 
L 451.44 283.805217 
L 453.672 283.805217 
L 455.904 283.805217 
L 458.136 283.805217 
L 460.368 283.805217 
L 462.6 283.805217 
L 464.832 283.805217 
L 467.064 283.805217 
L 469.296 283.805217 
L 471.528 283.805217 
L 473.76 283.805217 
L 475.992 283.805217 
L 478.224 283.805217 
L 480.456 283.805217 
L 482.688 283.805217 
L 484.92 283.805217 
L 487.152 283.805217 
L 489.384 283.805217 
L 491.616 283.805217 
L 493.848 283.805217 
L 496.08 283.805217 
L 498.312 283.805217 
L 500.544 283.805217 
L 502.776 283.805217 
L 505.008 283.805217 
L 507.24 283.805217 
L 509.472 283.805217 
L 511.704 283.805217 
L 513.936 283.805217 
L 516.168 283.805217 
L 518.4 283.805217 
" clip-path="url(#p33611f3c4f)" style="fill: none; stroke: #fde725; stroke-width: 1.5; stroke-linecap: square"/>
   </g>
   <g id="patch_6">
    <path d="M 72 415.283976 
L 72 282.286457 
" style="fill: none; stroke: #000000; stroke-width: 0.8; stroke-linejoin: miter; stroke-linecap: square"/>
   </g>
   <g id="patch_7">
    <path d="M 72 421.857391 
L 518.4 421.857391 
" style="fill: none; stroke: #000000; stroke-width: 0.8; stroke-linejoin: miter; stroke-linecap: square"/>
   </g>
  </g>
  <g id="axes_3">
   <g id="patch_8">
    <path d="M 72 595.408696 
L 518.4 595.408696 
L 518.4 450.782609 
L 72 450.782609 
z
" style="fill: #ffffff"/>
   </g>
   <g id="PolyCollection_9"/>
   <g id="PolyCollection_10">
    <defs>
     <path id="m823895cf3a" d="M 406.8 -383.790528 
L 406.8 -383.790528 
L 406.8 -383.790528 
L 406.8 -383.790528 
z
" style="stroke: #31688e; stroke-opacity: 0.2"/>
    </defs>
    <g clip-path="url(#p8cfd3c2a6d)">
     <use xlink:href="#m823895cf3a" x="0" y="864" style="fill: #31688e; fill-opacity: 0.2; stroke: #31688e; stroke-opacity: 0.2"/>
    </g>
   </g>
   <g id="PolyCollection_11">
    <defs>
     <path id="m85d90bf7f2" d="M 406.8 -395.217003 
L 406.8 -395.217003 
L 406.8 -395.217003 
L 406.8 -395.217003 
z
" style="stroke: #35b779; stroke-opacity: 0.2"/>
    </defs>
    <g clip-path="url(#p8cfd3c2a6d)">
     <use xlink:href="#m85d90bf7f2" x="0" y="864" style="fill: #35b779; fill-opacity: 0.2; stroke: #35b779; stroke-opacity: 0.2"/>
    </g>
   </g>
   <g id="PolyCollection_12">
    <defs>
     <path id="m08df23822c" d="M 406.8 -406.643478 
L 406.8 -406.643478 
L 406.8 -406.643478 
L 406.8 -406.643478 
z
" style="stroke: #fde725; stroke-opacity: 0.2"/>
    </defs>
    <g clip-path="url(#p8cfd3c2a6d)">
     <use xlink:href="#m08df23822c" x="0" y="864" style="fill: #fde725; fill-opacity: 0.2; stroke: #fde725; stroke-opacity: 0.2"/>
    </g>
   </g>
   <g id="PolyCollection_13">
    <path d="M 250.56 556.117092 
L 250.56 556.761332 
L 250.56 556.117092 
L 250.56 556.117092 
z
" clip-path="url(#p8cfd3c2a6d)" style="fill: #808080; fill-opacity: 0.2; stroke: #808080; stroke-opacity: 0.2"/>
    <path d="M 252.792 554.616934 
L 252.792 555.113919 
L 252.792 554.616934 
L 252.792 554.616934 
z
" clip-path="url(#p8cfd3c2a6d)" style="fill: #808080; fill-opacity: 0.2; stroke: #808080; stroke-opacity: 0.2"/>
    <path d="M 255.024 553.521726 
L 255.024 554.092338 
L 255.024 553.521726 
L 255.024 553.521726 
z
" clip-path="url(#p8cfd3c2a6d)" style="fill: #808080; fill-opacity: 0.2; stroke: #808080; stroke-opacity: 0.2"/>
    <path d="M 257.256 552.601383 
L 257.256 553.153588 
L 257.256 552.601383 
L 257.256 552.601383 
z
" clip-path="url(#p8cfd3c2a6d)" style="fill: #808080; fill-opacity: 0.2; stroke: #808080; stroke-opacity: 0.2"/>
    <path d="M 259.488 550.806714 
L 259.488 551.570599 
L 259.488 550.806714 
L 259.488 550.806714 
z
" clip-path="url(#p8cfd3c2a6d)" style="fill: #808080; fill-opacity: 0.2; stroke: #808080; stroke-opacity: 0.2"/>
    <path d="M 261.72 549.849558 
L 261.72 550.180881 
L 261.72 549.849558 
L 261.72 549.849558 
z
" clip-path="url(#p8cfd3c2a6d)" style="fill: #808080; fill-opacity: 0.2; stroke: #808080; stroke-opacity: 0.2"/>
    <path d="M 263.952 548.238958 
L 263.952 548.75435 
L 263.952 548.238958 
L 263.952 548.238958 
z
" clip-path="url(#p8cfd3c2a6d)" style="fill: #808080; fill-opacity: 0.2; stroke: #808080; stroke-opacity: 0.2"/>
    <path d="M 266.184 547.401446 
L 266.184 547.640735 
L 266.184 547.401446 
L 266.184 547.401446 
z
" clip-path="url(#p8cfd3c2a6d)" style="fill: #808080; fill-opacity: 0.2; stroke: #808080; stroke-opacity: 0.2"/>
    <path d="M 268.416 544.741655 
L 268.416 545.385895 
L 268.416 544.741655 
L 268.416 544.741655 
z
" clip-path="url(#p8cfd3c2a6d)" style="fill: #808080; fill-opacity: 0.2; stroke: #808080; stroke-opacity: 0.2"/>
    <path d="M 270.648 542.808935 
L 270.648 543.315124 
L 270.648 542.808935 
L 270.648 542.808935 
z
" clip-path="url(#p8cfd3c2a6d)" style="fill: #808080; fill-opacity: 0.2; stroke: #808080; stroke-opacity: 0.2"/>
    <path d="M 272.88 541.465234 
L 272.88 541.980626 
L 272.88 541.465234 
L 272.88 541.465234 
z
" clip-path="url(#p8cfd3c2a6d)" style="fill: #808080; fill-opacity: 0.2; stroke: #808080; stroke-opacity: 0.2"/>
    <path d="M 275.112 540.277992 
L 275.112 540.802588 
L 275.112 540.277992 
L 275.112 540.277992 
z
" clip-path="url(#p8cfd3c2a6d)" style="fill: #808080; fill-opacity: 0.2; stroke: #808080; stroke-opacity: 0.2"/>
    <path d="M 277.344 539.578532 
L 277.344 540.103127 
L 277.344 539.578532 
L 277.344 539.578532 
z
" clip-path="url(#p8cfd3c2a6d)" style="fill: #808080; fill-opacity: 0.2; stroke: #808080; stroke-opacity: 0.2"/>
    <path d="M 279.576 538.943495 
L 279.576 539.376056 
L 279.576 538.943495 
L 279.576 538.943495 
z
" clip-path="url(#p8cfd3c2a6d)" style="fill: #808080; fill-opacity: 0.2; stroke: #808080; stroke-opacity: 0.2"/>
    <path d="M 281.808 537.77466 
L 281.808 538.354476 
L 281.808 537.77466 
L 281.808 537.77466 
z
" clip-path="url(#p8cfd3c2a6d)" style="fill: #808080; fill-opacity: 0.2; stroke: #808080; stroke-opacity: 0.2"/>
    <path d="M 284.04 536.256094 
L 284.04 536.789893 
L 284.04 536.256094 
L 284.04 536.256094 
z
" clip-path="url(#p8cfd3c2a6d)" style="fill: #808080; fill-opacity: 0.2; stroke: #808080; stroke-opacity: 0.2"/>
    <path d="M 286.272 534.406205 
L 286.272 534.857173 
L 286.272 534.406205 
L 286.272 534.406205 
z
" clip-path="url(#p8cfd3c2a6d)" style="fill: #808080; fill-opacity: 0.2; stroke: #808080; stroke-opacity: 0.2"/>
    <path d="M 288.504 533.357014 
L 288.504 533.955237 
L 288.504 533.357014 
L 288.504 533.357014 
z
" clip-path="url(#p8cfd3c2a6d)" style="fill: #808080; fill-opacity: 0.2; stroke: #808080; stroke-opacity: 0.2"/>
    <path d="M 290.736 531.599159 
L 290.736 532.068534 
L 290.736 531.599159 
L 290.736 531.599159 
z
" clip-path="url(#p8cfd3c2a6d)" style="fill: #808080; fill-opacity: 0.2; stroke: #808080; stroke-opacity: 0.2"/>
    <path d="M 292.968 528.902555 
L 292.968 529.500778 
L 292.968 528.902555 
L 292.968 528.902555 
z
" clip-path="url(#p8cfd3c2a6d)" style="fill: #808080; fill-opacity: 0.2; stroke: #808080; stroke-opacity: 0.2"/>
    <path d="M 295.2 527.733719 
L 295.2 528.203094 
L 295.2 527.733719 
L 295.2 527.733719 
z
" clip-path="url(#p8cfd3c2a6d)" style="fill: #808080; fill-opacity: 0.2; stroke: #808080; stroke-opacity: 0.2"/>
    <path d="M 297.432 526.537274 
L 297.432 527.080276 
L 297.432 526.537274 
L 297.432 526.537274 
z
" clip-path="url(#p8cfd3c2a6d)" style="fill: #808080; fill-opacity: 0.2; stroke: #808080; stroke-opacity: 0.2"/>
    <path d="M 299.664 524.86225 
L 299.664 525.359235 
L 299.664 524.86225 
L 299.664 524.86225 
z
" clip-path="url(#p8cfd3c2a6d)" style="fill: #808080; fill-opacity: 0.2; stroke: #808080; stroke-opacity: 0.2"/>
    <path d="M 301.896 522.625817 
L 301.896 523.25165 
L 301.896 522.625817 
L 301.896 522.625817 
z
" clip-path="url(#p8cfd3c2a6d)" style="fill: #808080; fill-opacity: 0.2; stroke: #808080; stroke-opacity: 0.2"/>
    <path d="M 304.128 520.536638 
L 304.128 521.171675 
L 304.128 520.536638 
L 304.128 520.536638 
z
" clip-path="url(#p8cfd3c2a6d)" style="fill: #808080; fill-opacity: 0.2; stroke: #808080; stroke-opacity: 0.2"/>
    <path d="M 306.36 519.137717 
L 306.36 519.653109 
L 306.36 519.137717 
L 306.36 519.137717 
z
" clip-path="url(#p8cfd3c2a6d)" style="fill: #808080; fill-opacity: 0.2; stroke: #808080; stroke-opacity: 0.2"/>
    <path d="M 308.592 516.744826 
L 308.592 517.4811 
L 308.592 516.744826 
L 308.592 516.744826 
z
" clip-path="url(#p8cfd3c2a6d)" style="fill: #808080; fill-opacity: 0.2; stroke: #808080; stroke-opacity: 0.2"/>
    <path d="M 310.824 515.180243 
L 310.824 515.769263 
L 310.824 515.180243 
L 310.824 515.180243 
z
" clip-path="url(#p8cfd3c2a6d)" style="fill: #808080; fill-opacity: 0.2; stroke: #808080; stroke-opacity: 0.2"/>
    <path d="M 313.056 513.155489 
L 313.056 513.864153 
L 313.056 513.155489 
L 313.056 513.155489 
z
" clip-path="url(#p8cfd3c2a6d)" style="fill: #808080; fill-opacity: 0.2; stroke: #808080; stroke-opacity: 0.2"/>
    <path d="M 315.288 511.498872 
L 315.288 512.198332 
L 315.288 511.498872 
L 315.288 511.498872 
z
" clip-path="url(#p8cfd3c2a6d)" style="fill: #808080; fill-opacity: 0.2; stroke: #808080; stroke-opacity: 0.2"/>
    <path d="M 317.52 510.035527 
L 317.52 510.753394 
L 317.52 510.035527 
L 317.52 510.035527 
z
" clip-path="url(#p8cfd3c2a6d)" style="fill: #808080; fill-opacity: 0.2; stroke: #808080; stroke-opacity: 0.2"/>
    <path d="M 319.752 507.909535 
L 319.752 508.43413 
L 319.752 507.909535 
L 319.752 507.909535 
z
" clip-path="url(#p8cfd3c2a6d)" style="fill: #808080; fill-opacity: 0.2; stroke: #808080; stroke-opacity: 0.2"/>
    <path d="M 321.984 506.363359 
L 321.984 506.887954 
L 321.984 506.363359 
L 321.984 506.363359 
z
" clip-path="url(#p8cfd3c2a6d)" style="fill: #808080; fill-opacity: 0.2; stroke: #808080; stroke-opacity: 0.2"/>
    <path d="M 324.216 504.099315 
L 324.216 504.725149 
L 324.216 504.099315 
L 324.216 504.099315 
z
" clip-path="url(#p8cfd3c2a6d)" style="fill: #808080; fill-opacity: 0.2; stroke: #808080; stroke-opacity: 0.2"/>
    <path d="M 326.448 501.853679 
L 326.448 502.433495 
L 326.448 501.853679 
L 326.448 501.853679 
z
" clip-path="url(#p8cfd3c2a6d)" style="fill: #808080; fill-opacity: 0.2; stroke: #808080; stroke-opacity: 0.2"/>
    <path d="M 328.68 499.966976 
L 328.68 500.629623 
L 328.68 499.966976 
L 328.68 499.966976 
z
" clip-path="url(#p8cfd3c2a6d)" style="fill: #808080; fill-opacity: 0.2; stroke: #808080; stroke-opacity: 0.2"/>
    <path d="M 330.912 497.15993 
L 330.912 498.034256 
L 330.912 497.15993 
L 330.912 497.15993 
z
" clip-path="url(#p8cfd3c2a6d)" style="fill: #808080; fill-opacity: 0.2; stroke: #808080; stroke-opacity: 0.2"/>
    <path d="M 333.144 494.665801 
L 333.144 495.264024 
L 333.144 494.665801 
L 333.144 494.665801 
z
" clip-path="url(#p8cfd3c2a6d)" style="fill: #808080; fill-opacity: 0.2; stroke: #808080; stroke-opacity: 0.2"/>
    <path d="M 335.376 492.631844 
L 335.376 493.349711 
L 335.376 492.631844 
L 335.376 492.631844 
z
" clip-path="url(#p8cfd3c2a6d)" style="fill: #808080; fill-opacity: 0.2; stroke: #808080; stroke-opacity: 0.2"/>
    <path d="M 337.608 490.432224 
L 337.608 491.104075 
L 337.608 490.432224 
L 337.608 490.432224 
z
" clip-path="url(#p8cfd3c2a6d)" style="fill: #808080; fill-opacity: 0.2; stroke: #808080; stroke-opacity: 0.2"/>
    <path d="M 339.84 488.122164 
L 339.84 488.738794 
L 339.84 488.122164 
L 339.84 488.122164 
z
" clip-path="url(#p8cfd3c2a6d)" style="fill: #808080; fill-opacity: 0.2; stroke: #808080; stroke-opacity: 0.2"/>
    <path d="M 342.072 485.996172 
L 342.072 486.548378 
L 342.072 485.996172 
L 342.072 485.996172 
z
" clip-path="url(#p8cfd3c2a6d)" style="fill: #808080; fill-opacity: 0.2; stroke: #808080; stroke-opacity: 0.2"/>
    <path d="M 344.304 483.741332 
L 344.304 484.275131 
L 344.304 483.741332 
L 344.304 483.741332 
z
" clip-path="url(#p8cfd3c2a6d)" style="fill: #808080; fill-opacity: 0.2; stroke: #808080; stroke-opacity: 0.2"/>
   </g>
   <g id="matplotlib.axis_5">
    <g id="xtick_19">
     <g id="line2d_37">
      <g>
       <use xlink:href="#md0b63f8352" x="72" y="595.408696" style="stroke: #000000; stroke-width: 0.8"/>
      </g>
     </g>
    </g>
    <g id="xtick_20">
     <g id="line2d_38">
      <g>
       <use xlink:href="#md0b63f8352" x="127.8" y="595.408696" style="stroke: #000000; stroke-width: 0.8"/>
      </g>
     </g>
    </g>
    <g id="xtick_21">
     <g id="line2d_39">
      <g>
       <use xlink:href="#md0b63f8352" x="183.6" y="595.408696" style="stroke: #000000; stroke-width: 0.8"/>
      </g>
     </g>
    </g>
    <g id="xtick_22">
     <g id="line2d_40">
      <g>
       <use xlink:href="#md0b63f8352" x="239.4" y="595.408696" style="stroke: #000000; stroke-width: 0.8"/>
      </g>
     </g>
    </g>
    <g id="xtick_23">
     <g id="line2d_41">
      <g>
       <use xlink:href="#md0b63f8352" x="295.2" y="595.408696" style="stroke: #000000; stroke-width: 0.8"/>
      </g>
     </g>
    </g>
    <g id="xtick_24">
     <g id="line2d_42">
      <g>
       <use xlink:href="#md0b63f8352" x="351" y="595.408696" style="stroke: #000000; stroke-width: 0.8"/>
      </g>
     </g>
    </g>
    <g id="xtick_25">
     <g id="line2d_43">
      <g>
       <use xlink:href="#md0b63f8352" x="406.8" y="595.408696" style="stroke: #000000; stroke-width: 0.8"/>
      </g>
     </g>
    </g>
    <g id="xtick_26">
     <g id="line2d_44">
      <g>
       <use xlink:href="#md0b63f8352" x="462.6" y="595.408696" style="stroke: #000000; stroke-width: 0.8"/>
      </g>
     </g>
    </g>
    <g id="xtick_27">
     <g id="line2d_45">
      <g>
       <use xlink:href="#md0b63f8352" x="518.4" y="595.408696" style="stroke: #000000; stroke-width: 0.8"/>
      </g>
     </g>
    </g>
   </g>
   <g id="matplotlib.axis_6">
    <g id="ytick_11">
     <g id="line2d_46">
      <g>
       <use xlink:href="#m4931302c12" x="72" y="591.596309" style="stroke: #000000; stroke-width: 0.8"/>
      </g>
     </g>
     <g id="text_13">
      <!-- 300 -->
      <g transform="translate(45.9125 595.395527) scale(0.1 -0.1)">
       <use xlink:href="#DejaVuSans-33"/>
       <use xlink:href="#DejaVuSans-30" x="63.623047"/>
       <use xlink:href="#DejaVuSans-30" x="127.246094"/>
      </g>
     </g>
    </g>
    <g id="ytick_12">
     <g id="line2d_47">
      <g>
       <use xlink:href="#m4931302c12" x="72" y="568.587738" style="stroke: #000000; stroke-width: 0.8"/>
      </g>
     </g>
     <g id="text_14">
      <!-- 325 -->
      <g transform="translate(45.9125 572.386956) scale(0.1 -0.1)">
       <use xlink:href="#DejaVuSans-33"/>
       <use xlink:href="#DejaVuSans-32" x="63.623047"/>
       <use xlink:href="#DejaVuSans-35" x="127.246094"/>
      </g>
     </g>
    </g>
    <g id="ytick_13">
     <g id="line2d_48">
      <g>
       <use xlink:href="#m4931302c12" x="72" y="545.579167" style="stroke: #000000; stroke-width: 0.8"/>
      </g>
     </g>
     <g id="text_15">
      <!-- 350 -->
      <g transform="translate(45.9125 549.378386) scale(0.1 -0.1)">
       <use xlink:href="#DejaVuSans-33"/>
       <use xlink:href="#DejaVuSans-35" x="63.623047"/>
       <use xlink:href="#DejaVuSans-30" x="127.246094"/>
      </g>
     </g>
    </g>
    <g id="ytick_14">
     <g id="line2d_49">
      <g>
       <use xlink:href="#m4931302c12" x="72" y="522.570596" style="stroke: #000000; stroke-width: 0.8"/>
      </g>
     </g>
     <g id="text_16">
      <!-- 375 -->
      <g transform="translate(45.9125 526.369815) scale(0.1 -0.1)">
       <defs>
        <path id="DejaVuSans-37" d="M 525 4666 
L 3525 4666 
L 3525 4397 
L 1831 0 
L 1172 0 
L 2766 4134 
L 525 4134 
L 525 4666 
z
" transform="scale(0.015625)"/>
       </defs>
       <use xlink:href="#DejaVuSans-33"/>
       <use xlink:href="#DejaVuSans-37" x="63.623047"/>
       <use xlink:href="#DejaVuSans-35" x="127.246094"/>
      </g>
     </g>
    </g>
    <g id="ytick_15">
     <g id="line2d_50">
      <g>
       <use xlink:href="#m4931302c12" x="72" y="499.562025" style="stroke: #000000; stroke-width: 0.8"/>
      </g>
     </g>
     <g id="text_17">
      <!-- 400 -->
      <g transform="translate(45.9125 503.361244) scale(0.1 -0.1)">
       <defs>
        <path id="DejaVuSans-34" d="M 2419 4116 
L 825 1625 
L 2419 1625 
L 2419 4116 
z
M 2253 4666 
L 3047 4666 
L 3047 1625 
L 3713 1625 
L 3713 1100 
L 3047 1100 
L 3047 0 
L 2419 0 
L 2419 1100 
L 313 1100 
L 313 1709 
L 2253 4666 
z
" transform="scale(0.015625)"/>
       </defs>
       <use xlink:href="#DejaVuSans-34"/>
       <use xlink:href="#DejaVuSans-30" x="63.623047"/>
       <use xlink:href="#DejaVuSans-30" x="127.246094"/>
      </g>
     </g>
    </g>
    <g id="ytick_16">
     <g id="line2d_51">
      <g>
       <use xlink:href="#m4931302c12" x="72" y="476.553454" style="stroke: #000000; stroke-width: 0.8"/>
      </g>
     </g>
     <g id="text_18">
      <!-- 425 -->
      <g transform="translate(45.9125 480.352673) scale(0.1 -0.1)">
       <use xlink:href="#DejaVuSans-34"/>
       <use xlink:href="#DejaVuSans-32" x="63.623047"/>
       <use xlink:href="#DejaVuSans-35" x="127.246094"/>
      </g>
     </g>
    </g>
    <g id="ytick_17">
     <g id="line2d_52">
      <g>
       <use xlink:href="#m4931302c12" x="72" y="453.544884" style="stroke: #000000; stroke-width: 0.8"/>
      </g>
     </g>
     <g id="text_19">
      <!-- 450 -->
      <g transform="translate(45.9125 457.344102) scale(0.1 -0.1)">
       <use xlink:href="#DejaVuSans-34"/>
       <use xlink:href="#DejaVuSans-35" x="63.623047"/>
       <use xlink:href="#DejaVuSans-30" x="127.246094"/>
      </g>
     </g>
    </g>
    <g id="text_20">
     <!-- Concentration  -->
     <g transform="translate(28.612812 560.055808) rotate(-90) scale(0.1 -0.1)">
      <defs>
       <path id="DejaVuSans-63" d="M 3122 3366 
L 3122 2828 
Q 2878 2963 2633 3030 
Q 2388 3097 2138 3097 
Q 1578 3097 1268 2742 
Q 959 2388 959 1747 
Q 959 1106 1268 751 
Q 1578 397 2138 397 
Q 2388 397 2633 464 
Q 2878 531 3122 666 
L 3122 134 
Q 2881 22 2623 -34 
Q 2366 -91 2075 -91 
Q 1284 -91 818 406 
Q 353 903 353 1747 
Q 353 2603 823 3093 
Q 1294 3584 2113 3584 
Q 2378 3584 2631 3529 
Q 2884 3475 3122 3366 
z
" transform="scale(0.015625)"/>
      </defs>
      <use xlink:href="#DejaVuSans-43"/>
      <use xlink:href="#DejaVuSans-6f" x="69.824219"/>
      <use xlink:href="#DejaVuSans-6e" x="131.005859"/>
      <use xlink:href="#DejaVuSans-63" x="194.384766"/>
      <use xlink:href="#DejaVuSans-65" x="249.365234"/>
      <use xlink:href="#DejaVuSans-6e" x="310.888672"/>
      <use xlink:href="#DejaVuSans-74" x="374.267578"/>
      <use xlink:href="#DejaVuSans-72" x="413.476562"/>
      <use xlink:href="#DejaVuSans-61" x="454.589844"/>
      <use xlink:href="#DejaVuSans-74" x="515.869141"/>
      <use xlink:href="#DejaVuSans-69" x="555.078125"/>
      <use xlink:href="#DejaVuSans-6f" x="582.861328"/>
      <use xlink:href="#DejaVuSans-6e" x="644.042969"/>
      <use xlink:href="#DejaVuSans-20" x="707.421875"/>
     </g>
     <!-- atmospheric CO2 $(ppm)$ -->
     <g transform="translate(39.8125 583.195652) rotate(-90) scale(0.1 -0.1)">
      <defs>
       <path id="DejaVuSans-Oblique-70" d="M 3175 2156 
Q 3175 2616 2975 2859 
Q 2775 3103 2400 3103 
Q 2144 3103 1911 2972 
Q 1678 2841 1497 2591 
Q 1319 2344 1212 1994 
Q 1106 1644 1106 1300 
Q 1106 863 1306 627 
Q 1506 391 1875 391 
Q 2147 391 2380 519 
Q 2613 647 2778 891 
Q 2956 1147 3065 1494 
Q 3175 1841 3175 2156 
z
M 1394 2969 
Q 1625 3272 1939 3428 
Q 2253 3584 2638 3584 
Q 3175 3584 3472 3232 
Q 3769 2881 3769 2247 
Q 3769 1728 3584 1258 
Q 3400 788 3053 416 
Q 2822 169 2531 39 
Q 2241 -91 1919 -91 
Q 1547 -91 1294 64 
Q 1041 219 916 525 
L 556 -1331 
L -19 -1331 
L 922 3500 
L 1497 3500 
L 1394 2969 
z
" transform="scale(0.015625)"/>
       <path id="DejaVuSans-Oblique-6d" d="M 5747 2113 
L 5338 0 
L 4763 0 
L 5166 2094 
Q 5191 2228 5203 2325 
Q 5216 2422 5216 2491 
Q 5216 2772 5059 2928 
Q 4903 3084 4622 3084 
Q 4203 3084 3875 2770 
Q 3547 2456 3450 1953 
L 3066 0 
L 2491 0 
L 2900 2094 
Q 2925 2209 2937 2307 
Q 2950 2406 2950 2484 
Q 2950 2769 2794 2926 
Q 2638 3084 2363 3084 
Q 1938 3084 1609 2770 
Q 1281 2456 1184 1953 
L 800 0 
L 225 0 
L 909 3500 
L 1484 3500 
L 1375 2956 
Q 1609 3263 1923 3423 
Q 2238 3584 2597 3584 
Q 2978 3584 3223 3384 
Q 3469 3184 3519 2828 
Q 3781 3197 4126 3390 
Q 4472 3584 4856 3584 
Q 5306 3584 5551 3325 
Q 5797 3066 5797 2591 
Q 5797 2488 5784 2364 
Q 5772 2241 5747 2113 
z
" transform="scale(0.015625)"/>
      </defs>
      <use xlink:href="#DejaVuSans-61" transform="translate(0 0.015625)"/>
      <use xlink:href="#DejaVuSans-74" transform="translate(61.279297 0.015625)"/>
      <use xlink:href="#DejaVuSans-6d" transform="translate(100.488281 0.015625)"/>
      <use xlink:href="#DejaVuSans-6f" transform="translate(197.900391 0.015625)"/>
      <use xlink:href="#DejaVuSans-73" transform="translate(259.082031 0.015625)"/>
      <use xlink:href="#DejaVuSans-70" transform="translate(311.181641 0.015625)"/>
      <use xlink:href="#DejaVuSans-68" transform="translate(374.658203 0.015625)"/>
      <use xlink:href="#DejaVuSans-65" transform="translate(438.037109 0.015625)"/>
      <use xlink:href="#DejaVuSans-72" transform="translate(499.560547 0.015625)"/>
      <use xlink:href="#DejaVuSans-69" transform="translate(540.673828 0.015625)"/>
      <use xlink:href="#DejaVuSans-63" transform="translate(568.457031 0.015625)"/>
      <use xlink:href="#DejaVuSans-20" transform="translate(623.4375 0.015625)"/>
      <use xlink:href="#DejaVuSans-43" transform="translate(655.224609 0.015625)"/>
      <use xlink:href="#DejaVuSans-4f" transform="translate(725.048828 0.015625)"/>
      <use xlink:href="#DejaVuSans-32" transform="translate(803.759766 0.015625)"/>
      <use xlink:href="#DejaVuSans-20" transform="translate(867.382812 0.015625)"/>
      <use xlink:href="#DejaVuSans-28" transform="translate(899.169922 0.015625)"/>
      <use xlink:href="#DejaVuSans-Oblique-70" transform="translate(938.183594 0.015625)"/>
      <use xlink:href="#DejaVuSans-Oblique-70" transform="translate(1001.660156 0.015625)"/>
      <use xlink:href="#DejaVuSans-Oblique-6d" transform="translate(1065.136719 0.015625)"/>
      <use xlink:href="#DejaVuSans-29" transform="translate(1162.548828 0.015625)"/>
     </g>
    </g>
   </g>
   <g id="line2d_53">
    <path d="M -1 588.28421 
L 27.36 587.845078 
L 49.68 587.281064 
L 72 586.450838 
L 85.392 585.728379 
L 105.48 584.253494 
L 134.496 581.805646 
L 141.192 581.182189 
L 150.12 580.440008 
L 163.512 578.997385 
L 183.6 576.561334 
L 194.76 574.767118 
L 203.688 572.991141 
L 212.616 570.925485 
L 219.312 569.115967 
L 223.776 567.77775 
L 228.24 566.252741 
L 232.704 564.564512 
L 243.864 559.901458 
L 259.488 552.730826 
L 266.184 549.420425 
L 275.112 544.604825 
L 284.04 539.720032 
L 295.2 533.183936 
L 299.664 530.420296 
L 304.128 527.425815 
L 308.592 524.222824 
L 317.52 517.385634 
L 326.448 509.917024 
L 335.376 502.256048 
L 342.072 496.432326 
L 342.072 496.432326 
" clip-path="url(#p8cfd3c2a6d)" style="fill: none; stroke: #440154; stroke-width: 1.5; stroke-linecap: square"/>
   </g>
   <g id="line2d_54">
    <path d="M 346.536 494.457374 
L 348.768 492.519209 
L 351 490.677268 
L 353.232 488.972444 
L 355.464 487.43035 
L 357.696 486.064224 
L 359.928 484.877512 
L 362.16 483.866129 
L 364.392 483.020428 
L 366.624 482.326892 
L 368.856 481.769566 
L 371.088 481.33125 
L 373.32 480.994467 
L 375.552 480.742234 
L 377.784 480.558638 
L 380.016 480.429254 
L 382.248 480.341409 
L 384.48 480.284314 
L 386.712 480.249096 
L 388.944 480.228717 
L 391.176 480.217836 
L 393.408 480.212603 
L 395.64 480.210421 
L 397.872 480.20968 
L 400.104 480.209497 
L 402.336 480.209473 
L 404.568 480.209472 
L 406.8 480.209472 
L 409.032 480.209472 
L 411.264 480.209472 
L 413.496 480.209472 
L 415.728 480.209472 
L 417.96 480.209472 
L 420.192 480.209472 
L 422.424 480.209472 
L 424.656 480.209472 
L 426.888 480.209472 
L 429.12 480.209472 
L 431.352 480.209472 
L 433.584 480.209472 
L 435.816 480.209472 
L 438.048 480.209472 
L 440.28 480.209472 
L 442.512 480.209472 
L 444.744 480.209472 
L 446.976 480.209472 
L 449.208 480.209472 
L 451.44 480.209472 
L 453.672 480.209472 
L 455.904 480.209472 
L 458.136 480.209472 
L 460.368 480.209472 
L 462.6 480.209472 
L 464.832 480.209472 
L 467.064 480.209472 
L 469.296 480.209472 
L 471.528 480.209472 
L 473.76 480.209472 
L 475.992 480.209472 
L 478.224 480.209472 
L 480.456 480.209472 
L 482.688 480.209472 
L 484.92 480.209472 
L 487.152 480.209472 
L 489.384 480.209472 
L 491.616 480.209472 
L 493.848 480.209472 
L 496.08 480.209472 
L 498.312 480.209472 
L 500.544 480.209472 
L 502.776 480.209472 
L 505.008 480.209472 
L 507.24 480.209472 
L 509.472 480.209472 
L 511.704 480.209472 
L 513.936 480.209472 
L 516.168 480.209472 
L 518.4 480.209472 
" clip-path="url(#p8cfd3c2a6d)" style="fill: none; stroke: #31688e; stroke-width: 1.5; stroke-linecap: square"/>
   </g>
   <g id="line2d_55">
    <path d="M 346.536 494.457374 
L 348.768 492.48337 
L 351 490.51558 
L 353.232 488.563404 
L 355.464 486.639244 
L 357.696 484.757456 
L 359.928 482.933412 
L 362.16 481.182659 
L 364.392 479.520173 
L 366.624 477.959717 
L 368.856 476.513294 
L 371.088 475.190703 
L 373.32 473.99919 
L 375.552 472.943202 
L 377.784 472.024238 
L 380.016 471.240799 
L 382.248 470.588438 
L 384.48 470.059909 
L 386.712 469.645413 
L 388.944 469.332946 
L 391.176 469.108747 
L 393.408 468.957839 
L 395.64 468.864675 
L 397.872 468.813884 
L 400.104 468.791107 
L 402.336 468.783945 
L 404.568 468.782997 
L 406.8 468.782997 
L 409.032 468.782997 
L 411.264 468.782997 
L 413.496 468.782997 
L 415.728 468.782997 
L 417.96 468.782997 
L 420.192 468.782997 
L 422.424 468.782997 
L 424.656 468.782997 
L 426.888 468.782997 
L 429.12 468.782997 
L 431.352 468.782997 
L 433.584 468.782997 
L 435.816 468.782997 
L 438.048 468.782997 
L 440.28 468.782997 
L 442.512 468.782997 
L 444.744 468.782997 
L 446.976 468.782997 
L 449.208 468.782997 
L 451.44 468.782997 
L 453.672 468.782997 
L 455.904 468.782997 
L 458.136 468.782997 
L 460.368 468.782997 
L 462.6 468.782997 
L 464.832 468.782997 
L 467.064 468.782997 
L 469.296 468.782997 
L 471.528 468.782997 
L 473.76 468.782997 
L 475.992 468.782997 
L 478.224 468.782997 
L 480.456 468.782997 
L 482.688 468.782997 
L 484.92 468.782997 
L 487.152 468.782997 
L 489.384 468.782997 
L 491.616 468.782997 
L 493.848 468.782997 
L 496.08 468.782997 
L 498.312 468.782997 
L 500.544 468.782997 
L 502.776 468.782997 
L 505.008 468.782997 
L 507.24 468.782997 
L 509.472 468.782997 
L 511.704 468.782997 
L 513.936 468.782997 
L 516.168 468.782997 
L 518.4 468.782997 
" clip-path="url(#p8cfd3c2a6d)" style="fill: none; stroke: #35b779; stroke-width: 1.5; stroke-linecap: square"/>
   </g>
   <g id="line2d_56">
    <path d="M 346.536 494.457374 
L 348.768 492.482423 
L 351 490.507495 
L 353.232 488.532725 
L 355.464 486.558515 
L 357.696 484.585745 
L 359.928 482.616025 
L 362.16 480.651954 
L 364.392 478.697381 
L 366.624 476.757648 
L 368.856 474.83979 
L 371.088 472.952684 
L 373.32 471.107115 
L 375.552 469.315759 
L 377.784 467.59304 
L 380.016 465.95487 
L 382.248 464.418235 
L 384.48 463.000609 
L 386.712 461.719192 
L 388.944 460.589941 
L 391.176 459.626372 
L 393.408 458.838132 
L 395.64 458.229306 
L 397.872 457.796448 
L 400.104 457.52632 
L 402.336 457.393309 
L 404.568 457.356522 
L 406.8 457.356522 
L 409.032 457.356522 
L 411.264 457.356522 
L 413.496 457.356522 
L 415.728 457.356522 
L 417.96 457.356522 
L 420.192 457.356522 
L 422.424 457.356522 
L 424.656 457.356522 
L 426.888 457.356522 
L 429.12 457.356522 
L 431.352 457.356522 
L 433.584 457.356522 
L 435.816 457.356522 
L 438.048 457.356522 
L 440.28 457.356522 
L 442.512 457.356522 
L 444.744 457.356522 
L 446.976 457.356522 
L 449.208 457.356522 
L 451.44 457.356522 
L 453.672 457.356522 
L 455.904 457.356522 
L 458.136 457.356522 
L 460.368 457.356522 
L 462.6 457.356522 
L 464.832 457.356522 
L 467.064 457.356522 
L 469.296 457.356522 
L 471.528 457.356522 
L 473.76 457.356522 
L 475.992 457.356522 
L 478.224 457.356522 
L 480.456 457.356522 
L 482.688 457.356522 
L 484.92 457.356522 
L 487.152 457.356522 
L 489.384 457.356522 
L 491.616 457.356522 
L 493.848 457.356522 
L 496.08 457.356522 
L 498.312 457.356522 
L 500.544 457.356522 
L 502.776 457.356522 
L 505.008 457.356522 
L 507.24 457.356522 
L 509.472 457.356522 
L 511.704 457.356522 
L 513.936 457.356522 
L 516.168 457.356522 
L 518.4 457.356522 
" clip-path="url(#p8cfd3c2a6d)" style="fill: none; stroke: #fde725; stroke-width: 1.5; stroke-linecap: square"/>
   </g>
   <g id="line2d_57">
    <path d="M 248.328 557.948575 
L 248.733818 556.733722 
L 248.936727 556.328771 
L 249.139636 556.383992 
L 249.342545 557.193893 
L 249.748364 559.964125 
L 249.951273 559.365903 
L 250.357091 557.2123 
L 250.965818 555.150732 
L 251.371636 554.377644 
L 251.574545 554.791799 
L 251.980364 557.350352 
L 252.183273 557.497607 
L 252.589091 555.767362 
L 253.197818 553.512522 
L 253.400727 553.236419 
L 253.603636 553.466505 
L 253.806545 554.202779 
L 254.212364 556.549653 
L 254.415273 556.650891 
L 255.226909 552.987927 
L 255.632727 552.463331 
L 255.835636 552.610586 
L 256.038545 553.411284 
L 256.444364 556.522043 
L 256.647273 556.476026 
L 257.256 552.877486 
L 257.661818 551.984753 
L 258.067636 551.248479 
L 258.270545 551.561395 
L 258.676364 554.211983 
L 258.879273 554.294814 
L 259.690909 550.346543 
L 260.299636 549.877168 
L 260.502545 550.576629 
L 260.908364 552.748638 
L 261.111273 552.822265 
L 262.328727 548.395416 
L 262.531636 548.542671 
L 262.734545 549.021249 
L 263.140364 551.644226 
L 263.343273 551.68104 
L 263.952 548.496654 
L 264.560727 547.217377 
L 264.763636 547.125343 
L 264.966545 547.640735 
L 265.372364 550.254509 
L 265.575273 550.309729 
L 266.184 547.52109 
L 266.995636 545.339878 
L 267.198545 546.057745 
L 267.604364 548.699129 
L 267.807273 548.616298 
L 268.618909 544.226263 
L 269.227636 543.315124 
L 269.430545 543.959364 
L 269.836364 546.407475 
L 270.039273 546.251017 
L 270.850909 542.394781 
L 271.256727 541.548065 
L 271.459636 541.72293 
L 271.662545 542.569646 
L 272.068364 545.385895 
L 272.271273 545.063775 
L 272.88 541.72293 
L 273.285818 540.802588 
L 273.488727 540.517281 
L 273.691636 540.609316 
L 274.300364 544.125025 
L 274.503273 543.931753 
L 275.112 540.54029 
L 275.517818 539.431277 
L 275.720727 538.961902 
L 275.923636 539.035529 
L 276.126545 539.900652 
L 276.532364 542.772121 
L 276.735273 542.882562 
L 277.546909 539.247208 
L 278.155636 538.382086 
L 278.358545 539.256412 
L 278.764364 542.192305 
L 278.967273 542.28434 
L 279.576 539.159776 
L 280.184727 537.820677 
L 280.387636 537.866694 
L 280.793455 540.314806 
L 280.996364 541.492845 
L 281.199273 541.465234 
L 282.010909 537.286878 
L 282.416727 536.642638 
L 282.619636 536.615028 
L 282.822545 537.470947 
L 283.228364 540.001889 
L 283.431273 540.038703 
L 284.242909 535.814329 
L 284.648727 534.949207 
L 284.851636 535.022835 
L 285.054545 535.814329 
L 285.460364 538.464917 
L 285.663273 538.170407 
L 286.272 534.631689 
L 286.677818 533.780372 
L 287.083636 533.347811 
L 287.286545 533.725151 
L 287.692364 536.311315 
L 287.895273 536.651841 
L 288.909818 532.666757 
L 289.112727 532.224992 
L 289.315636 532.224992 
L 289.518545 533.062504 
L 289.924364 535.998398 
L 290.127273 535.998398 
L 290.736 531.833847 
L 291.547636 530.062187 
L 291.750545 530.605189 
L 292.156364 532.887639 
L 292.359273 532.657554 
L 293.170909 528.534418 
L 293.576727 527.81655 
L 293.779636 527.899381 
L 293.982545 528.681673 
L 294.388364 531.479515 
L 294.591273 531.369074 
L 295.2 527.968407 
L 295.605818 527.199921 
L 295.808727 526.85019 
L 296.011636 526.951428 
L 296.417455 529.095827 
L 296.620364 530.154221 
L 296.823273 530.200238 
L 297.634909 526.086306 
L 298.040727 525.423659 
L 298.243636 525.515693 
L 298.649455 527.669295 
L 298.852364 528.718486 
L 299.055273 528.681673 
L 299.664 525.110742 
L 300.069818 524.061551 
L 300.272727 523.739431 
L 300.475636 523.757838 
L 300.678545 524.558537 
L 301.084364 526.85019 
L 301.287273 526.555681 
L 302.098909 522.138035 
L 302.707636 521.144065 
L 302.910545 521.907949 
L 303.316364 524.475706 
L 303.519273 524.328451 
L 304.330909 520.05806 
L 304.736727 519.367803 
L 304.939636 519.44143 
L 305.142545 520.260536 
L 305.548364 523.039971 
L 305.751273 523.132005 
L 306.562909 518.640732 
L 306.968727 517.674372 
L 307.171636 517.582338 
L 307.374545 518.337019 
L 307.780364 520.978403 
L 307.983273 520.950793 
L 308.794909 516.16501 
L 309.200727 515.511567 
L 309.403636 515.54838 
L 309.606545 516.349079 
L 310.012364 519.3586 
L 310.215273 519.229752 
L 310.824 515.474753 
L 311.229818 514.269104 
L 311.432727 514.029815 
L 311.635636 514.167866 
L 311.838545 514.968564 
L 312.244364 517.701983 
L 312.447273 517.343049 
L 313.258909 512.686114 
L 313.664727 511.959043 
L 313.867636 511.995857 
L 314.070545 512.833369 
L 314.476364 515.419532 
L 314.679273 515.631211 
L 315.085091 513.201506 
L 315.490909 511.084718 
L 315.896727 510.615343 
L 316.099636 510.652156 
L 316.302545 511.563296 
L 316.708364 514.637241 
L 316.911273 514.351935 
L 317.52 510.39446 
L 317.722909 509.382083 
L 318.128727 508.78386 
L 318.331636 508.811471 
L 318.534545 509.676593 
L 318.940364 512.235146 
L 319.143273 511.802585 
L 319.752 508.171832 
L 320.157818 507.228481 
L 320.360727 506.878751 
L 320.563636 506.860344 
L 320.766545 507.725466 
L 321.172364 510.734987 
L 321.375273 510.36685 
L 321.984 506.625657 
L 322.389818 505.332575 
L 322.592727 505.093286 
L 322.795636 505.194523 
L 322.998545 506.15168 
L 323.404364 508.866691 
L 323.607273 508.259265 
L 324.216 504.412232 
L 324.621818 502.976497 
L 324.824727 502.562343 
L 325.027636 502.553139 
L 325.230545 503.28021 
L 325.636364 505.783543 
L 325.839273 505.811153 
L 326.650909 501.430321 
L 327.259636 500.767674 
L 327.462545 501.660407 
L 327.868364 504.145333 
L 328.071273 504.053298 
L 328.882909 499.451584 
L 329.288727 498.678496 
L 329.491636 498.724513 
L 329.694545 499.506805 
L 330.100364 502.267833 
L 330.303273 502.010137 
L 331.317818 496.027909 
L 331.520727 495.549331 
L 331.723636 495.512517 
L 331.926545 496.230384 
L 332.332364 498.844158 
L 332.535273 498.6877 
L 333.144 494.964913 
L 333.549818 493.745459 
L 333.752727 493.478559 
L 333.955636 493.441745 
L 334.158545 494.168816 
L 334.564364 497.196744 
L 334.767273 497.113913 
L 335.578909 491.987604 
L 335.984727 491.214516 
L 336.187636 491.343364 
L 336.390545 492.144062 
L 336.796364 494.859073 
L 336.999273 494.794649 
L 337.810909 490.04568 
L 338.216727 489.134541 
L 338.419636 489.125338 
L 338.622545 489.870815 
L 339.028364 492.521403 
L 339.231273 492.27291 
L 339.84 488.430479 
L 340.245818 487.192618 
L 340.448727 486.806074 
L 340.651636 486.852091 
L 340.854545 487.70801 
L 341.260364 490.60709 
L 341.463273 490.358597 
L 342.072 486.272275 
L 342.274909 485.563611 
L 342.883636 484.827337 
L 343.086545 485.572814 
L 343.492364 488.370656 
L 343.695273 488.168181 
L 344.506909 483.327178 
L 344.912727 482.572497 
L 345.115636 482.600107 
L 345.318545 483.474433 
L 345.724364 486.281478 
L 345.927273 486.069799 
L 346.130182 484.634065 
L 346.130182 484.634065 
" clip-path="url(#p8cfd3c2a6d)" style="fill: none; stroke: #808080; stroke-width: 1.5; stroke-linecap: square"/>
   </g>
   <g id="patch_9">
    <path d="M 72 591.596309 
L 72 453.544884 
" style="fill: none; stroke: #000000; stroke-width: 0.8; stroke-linejoin: miter; stroke-linecap: square"/>
   </g>
   <g id="patch_10">
    <path d="M 72 595.408696 
L 518.4 595.408696 
" style="fill: none; stroke: #000000; stroke-width: 0.8; stroke-linejoin: miter; stroke-linecap: square"/>
   </g>
  </g>
  <g id="axes_4">
   <g id="patch_11">
    <path d="M 72 768.96 
L 518.4 768.96 
L 518.4 624.333913 
L 72 624.333913 
z
" style="fill: #ffffff"/>
   </g>
   <g id="matplotlib.axis_7">
    <g id="xtick_28">
     <g id="line2d_58">
      <g>
       <use xlink:href="#md0b63f8352" x="72" y="768.96" style="stroke: #000000; stroke-width: 0.8"/>
      </g>
     </g>
     <g id="text_21">
      <!-- 1900 -->
      <g transform="translate(59.275 783.558437) scale(0.1 -0.1)">
       <defs>
        <path id="DejaVuSans-39" d="M 703 97 
L 703 672 
Q 941 559 1184 500 
Q 1428 441 1663 441 
Q 2288 441 2617 861 
Q 2947 1281 2994 2138 
Q 2813 1869 2534 1725 
Q 2256 1581 1919 1581 
Q 1219 1581 811 2004 
Q 403 2428 403 3163 
Q 403 3881 828 4315 
Q 1253 4750 1959 4750 
Q 2769 4750 3195 4129 
Q 3622 3509 3622 2328 
Q 3622 1225 3098 567 
Q 2575 -91 1691 -91 
Q 1453 -91 1209 -44 
Q 966 3 703 97 
z
M 1959 2075 
Q 2384 2075 2632 2365 
Q 2881 2656 2881 3163 
Q 2881 3666 2632 3958 
Q 2384 4250 1959 4250 
Q 1534 4250 1286 3958 
Q 1038 3666 1038 3163 
Q 1038 2656 1286 2365 
Q 1534 2075 1959 2075 
z
" transform="scale(0.015625)"/>
       </defs>
       <use xlink:href="#DejaVuSans-31"/>
       <use xlink:href="#DejaVuSans-39" x="63.623047"/>
       <use xlink:href="#DejaVuSans-30" x="127.246094"/>
       <use xlink:href="#DejaVuSans-30" x="190.869141"/>
      </g>
     </g>
    </g>
    <g id="xtick_29">
     <g id="line2d_59">
      <g>
       <use xlink:href="#md0b63f8352" x="127.8" y="768.96" style="stroke: #000000; stroke-width: 0.8"/>
      </g>
     </g>
     <g id="text_22">
      <!-- 1925 -->
      <g transform="translate(115.075 783.558437) scale(0.1 -0.1)">
       <use xlink:href="#DejaVuSans-31"/>
       <use xlink:href="#DejaVuSans-39" x="63.623047"/>
       <use xlink:href="#DejaVuSans-32" x="127.246094"/>
       <use xlink:href="#DejaVuSans-35" x="190.869141"/>
      </g>
     </g>
    </g>
    <g id="xtick_30">
     <g id="line2d_60">
      <g>
       <use xlink:href="#md0b63f8352" x="183.6" y="768.96" style="stroke: #000000; stroke-width: 0.8"/>
      </g>
     </g>
     <g id="text_23">
      <!-- 1950 -->
      <g transform="translate(170.875 783.558437) scale(0.1 -0.1)">
       <use xlink:href="#DejaVuSans-31"/>
       <use xlink:href="#DejaVuSans-39" x="63.623047"/>
       <use xlink:href="#DejaVuSans-35" x="127.246094"/>
       <use xlink:href="#DejaVuSans-30" x="190.869141"/>
      </g>
     </g>
    </g>
    <g id="xtick_31">
     <g id="line2d_61">
      <g>
       <use xlink:href="#md0b63f8352" x="239.4" y="768.96" style="stroke: #000000; stroke-width: 0.8"/>
      </g>
     </g>
     <g id="text_24">
      <!-- 1975 -->
      <g transform="translate(226.675 783.558437) scale(0.1 -0.1)">
       <use xlink:href="#DejaVuSans-31"/>
       <use xlink:href="#DejaVuSans-39" x="63.623047"/>
       <use xlink:href="#DejaVuSans-37" x="127.246094"/>
       <use xlink:href="#DejaVuSans-35" x="190.869141"/>
      </g>
     </g>
    </g>
    <g id="xtick_32">
     <g id="line2d_62">
      <g>
       <use xlink:href="#md0b63f8352" x="295.2" y="768.96" style="stroke: #000000; stroke-width: 0.8"/>
      </g>
     </g>
     <g id="text_25">
      <!-- 2000 -->
      <g transform="translate(282.475 783.558437) scale(0.1 -0.1)">
       <use xlink:href="#DejaVuSans-32"/>
       <use xlink:href="#DejaVuSans-30" x="63.623047"/>
       <use xlink:href="#DejaVuSans-30" x="127.246094"/>
       <use xlink:href="#DejaVuSans-30" x="190.869141"/>
      </g>
     </g>
    </g>
    <g id="xtick_33">
     <g id="line2d_63">
      <g>
       <use xlink:href="#md0b63f8352" x="351" y="768.96" style="stroke: #000000; stroke-width: 0.8"/>
      </g>
     </g>
     <g id="text_26">
      <!-- 2025 -->
      <g transform="translate(338.275 783.558437) scale(0.1 -0.1)">
       <use xlink:href="#DejaVuSans-32"/>
       <use xlink:href="#DejaVuSans-30" x="63.623047"/>
       <use xlink:href="#DejaVuSans-32" x="127.246094"/>
       <use xlink:href="#DejaVuSans-35" x="190.869141"/>
      </g>
     </g>
    </g>
    <g id="xtick_34">
     <g id="line2d_64">
      <g>
       <use xlink:href="#md0b63f8352" x="406.8" y="768.96" style="stroke: #000000; stroke-width: 0.8"/>
      </g>
     </g>
     <g id="text_27">
      <!-- 2050 -->
      <g transform="translate(394.075 783.558437) scale(0.1 -0.1)">
       <use xlink:href="#DejaVuSans-32"/>
       <use xlink:href="#DejaVuSans-30" x="63.623047"/>
       <use xlink:href="#DejaVuSans-35" x="127.246094"/>
       <use xlink:href="#DejaVuSans-30" x="190.869141"/>
      </g>
     </g>
    </g>
    <g id="xtick_35">
     <g id="line2d_65">
      <g>
       <use xlink:href="#md0b63f8352" x="462.6" y="768.96" style="stroke: #000000; stroke-width: 0.8"/>
      </g>
     </g>
     <g id="text_28">
      <!-- 2075 -->
      <g transform="translate(449.875 783.558437) scale(0.1 -0.1)">
       <use xlink:href="#DejaVuSans-32"/>
       <use xlink:href="#DejaVuSans-30" x="63.623047"/>
       <use xlink:href="#DejaVuSans-37" x="127.246094"/>
       <use xlink:href="#DejaVuSans-35" x="190.869141"/>
      </g>
     </g>
    </g>
    <g id="xtick_36">
     <g id="line2d_66">
      <g>
       <use xlink:href="#md0b63f8352" x="518.4" y="768.96" style="stroke: #000000; stroke-width: 0.8"/>
      </g>
     </g>
     <g id="text_29">
      <!-- 2100 -->
      <g transform="translate(505.675 783.558437) scale(0.1 -0.1)">
       <use xlink:href="#DejaVuSans-32"/>
       <use xlink:href="#DejaVuSans-31" x="63.623047"/>
       <use xlink:href="#DejaVuSans-30" x="127.246094"/>
       <use xlink:href="#DejaVuSans-30" x="190.869141"/>
      </g>
     </g>
    </g>
   </g>
   <g id="matplotlib.axis_8">
    <g id="ytick_18">
     <g id="line2d_67">
      <g>
       <use xlink:href="#m4931302c12" x="72" y="768.96" style="stroke: #000000; stroke-width: 0.8"/>
      </g>
     </g>
     <g id="text_30">
      <!-- 0.0 -->
      <g transform="translate(49.096875 772.759219) scale(0.1 -0.1)">
       <defs>
        <path id="DejaVuSans-2e" d="M 684 794 
L 1344 794 
L 1344 0 
L 684 0 
L 684 794 
z
" transform="scale(0.015625)"/>
       </defs>
       <use xlink:href="#DejaVuSans-30"/>
       <use xlink:href="#DejaVuSans-2e" x="63.623047"/>
       <use xlink:href="#DejaVuSans-30" x="95.410156"/>
      </g>
     </g>
    </g>
    <g id="ytick_19">
     <g id="line2d_68">
      <g>
       <use xlink:href="#m4931302c12" x="72" y="740.034783" style="stroke: #000000; stroke-width: 0.8"/>
      </g>
     </g>
     <g id="text_31">
      <!-- 0.2 -->
      <g transform="translate(49.096875 743.834001) scale(0.1 -0.1)">
       <use xlink:href="#DejaVuSans-30"/>
       <use xlink:href="#DejaVuSans-2e" x="63.623047"/>
       <use xlink:href="#DejaVuSans-32" x="95.410156"/>
      </g>
     </g>
    </g>
    <g id="ytick_20">
     <g id="line2d_69">
      <g>
       <use xlink:href="#m4931302c12" x="72" y="711.109565" style="stroke: #000000; stroke-width: 0.8"/>
      </g>
     </g>
     <g id="text_32">
      <!-- 0.4 -->
      <g transform="translate(49.096875 714.908784) scale(0.1 -0.1)">
       <use xlink:href="#DejaVuSans-30"/>
       <use xlink:href="#DejaVuSans-2e" x="63.623047"/>
       <use xlink:href="#DejaVuSans-34" x="95.410156"/>
      </g>
     </g>
    </g>
    <g id="ytick_21">
     <g id="line2d_70">
      <g>
       <use xlink:href="#m4931302c12" x="72" y="682.184348" style="stroke: #000000; stroke-width: 0.8"/>
      </g>
     </g>
     <g id="text_33">
      <!-- 0.6 -->
      <g transform="translate(49.096875 685.983567) scale(0.1 -0.1)">
       <defs>
        <path id="DejaVuSans-36" d="M 2113 2584 
Q 1688 2584 1439 2293 
Q 1191 2003 1191 1497 
Q 1191 994 1439 701 
Q 1688 409 2113 409 
Q 2538 409 2786 701 
Q 3034 994 3034 1497 
Q 3034 2003 2786 2293 
Q 2538 2584 2113 2584 
z
M 3366 4563 
L 3366 3988 
Q 3128 4100 2886 4159 
Q 2644 4219 2406 4219 
Q 1781 4219 1451 3797 
Q 1122 3375 1075 2522 
Q 1259 2794 1537 2939 
Q 1816 3084 2150 3084 
Q 2853 3084 3261 2657 
Q 3669 2231 3669 1497 
Q 3669 778 3244 343 
Q 2819 -91 2113 -91 
Q 1303 -91 875 529 
Q 447 1150 447 2328 
Q 447 3434 972 4092 
Q 1497 4750 2381 4750 
Q 2619 4750 2861 4703 
Q 3103 4656 3366 4563 
z
" transform="scale(0.015625)"/>
       </defs>
       <use xlink:href="#DejaVuSans-30"/>
       <use xlink:href="#DejaVuSans-2e" x="63.623047"/>
       <use xlink:href="#DejaVuSans-36" x="95.410156"/>
      </g>
     </g>
    </g>
    <g id="ytick_22">
     <g id="line2d_71">
      <g>
       <use xlink:href="#m4931302c12" x="72" y="653.25913" style="stroke: #000000; stroke-width: 0.8"/>
      </g>
     </g>
     <g id="text_34">
      <!-- 0.8 -->
      <g transform="translate(49.096875 657.058349) scale(0.1 -0.1)">
       <defs>
        <path id="DejaVuSans-38" d="M 2034 2216 
Q 1584 2216 1326 1975 
Q 1069 1734 1069 1313 
Q 1069 891 1326 650 
Q 1584 409 2034 409 
Q 2484 409 2743 651 
Q 3003 894 3003 1313 
Q 3003 1734 2745 1975 
Q 2488 2216 2034 2216 
z
M 1403 2484 
Q 997 2584 770 2862 
Q 544 3141 544 3541 
Q 544 4100 942 4425 
Q 1341 4750 2034 4750 
Q 2731 4750 3128 4425 
Q 3525 4100 3525 3541 
Q 3525 3141 3298 2862 
Q 3072 2584 2669 2484 
Q 3125 2378 3379 2068 
Q 3634 1759 3634 1313 
Q 3634 634 3220 271 
Q 2806 -91 2034 -91 
Q 1263 -91 848 271 
Q 434 634 434 1313 
Q 434 1759 690 2068 
Q 947 2378 1403 2484 
z
M 1172 3481 
Q 1172 3119 1398 2916 
Q 1625 2713 2034 2713 
Q 2441 2713 2670 2916 
Q 2900 3119 2900 3481 
Q 2900 3844 2670 4047 
Q 2441 4250 2034 4250 
Q 1625 4250 1398 4047 
Q 1172 3844 1172 3481 
z
" transform="scale(0.015625)"/>
       </defs>
       <use xlink:href="#DejaVuSans-30"/>
       <use xlink:href="#DejaVuSans-2e" x="63.623047"/>
       <use xlink:href="#DejaVuSans-38" x="95.410156"/>
      </g>
     </g>
    </g>
    <g id="ytick_23">
     <g id="line2d_72">
      <g>
       <use xlink:href="#m4931302c12" x="72" y="624.333913" style="stroke: #000000; stroke-width: 0.8"/>
      </g>
     </g>
     <g id="text_35">
      <!-- 1.0 -->
      <g transform="translate(49.096875 628.133132) scale(0.1 -0.1)">
       <use xlink:href="#DejaVuSans-31"/>
       <use xlink:href="#DejaVuSans-2e" x="63.623047"/>
       <use xlink:href="#DejaVuSans-30" x="95.410156"/>
      </g>
     </g>
    </g>
   </g>
   <g id="patch_12">
    <path d="M 72 768.96 
L 72 624.333913 
" style="fill: none; stroke: #000000; stroke-width: 0.8; stroke-linejoin: miter; stroke-linecap: square"/>
   </g>
   <g id="patch_13">
    <path d="M 72 768.96 
L 518.4 768.96 
" style="fill: none; stroke: #000000; stroke-width: 0.8; stroke-linejoin: miter; stroke-linecap: square"/>
   </g>
  </g>
  <g id="text_36">
   <!-- CO2 emissions in: World -->
   <g transform="translate(215.144063 26.398125) scale(0.12 -0.12)">
    <defs>
     <path id="DejaVuSans-3a" d="M 750 794 
L 1409 794 
L 1409 0 
L 750 0 
L 750 794 
z
M 750 3309 
L 1409 3309 
L 1409 2516 
L 750 2516 
L 750 3309 
z
" transform="scale(0.015625)"/>
     <path id="DejaVuSans-57" d="M 213 4666 
L 850 4666 
L 1831 722 
L 2809 4666 
L 3519 4666 
L 4500 722 
L 5478 4666 
L 6119 4666 
L 4947 0 
L 4153 0 
L 3169 4050 
L 2175 0 
L 1381 0 
L 213 4666 
z
" transform="scale(0.015625)"/>
     <path id="DejaVuSans-64" d="M 2906 2969 
L 2906 4863 
L 3481 4863 
L 3481 0 
L 2906 0 
L 2906 525 
Q 2725 213 2448 61 
Q 2172 -91 1784 -91 
Q 1150 -91 751 415 
Q 353 922 353 1747 
Q 353 2572 751 3078 
Q 1150 3584 1784 3584 
Q 2172 3584 2448 3432 
Q 2725 3281 2906 2969 
z
M 947 1747 
Q 947 1113 1208 752 
Q 1469 391 1925 391 
Q 2381 391 2643 752 
Q 2906 1113 2906 1747 
Q 2906 2381 2643 2742 
Q 2381 3103 1925 3103 
Q 1469 3103 1208 2742 
Q 947 2381 947 1747 
z
" transform="scale(0.015625)"/>
    </defs>
    <use xlink:href="#DejaVuSans-43"/>
    <use xlink:href="#DejaVuSans-4f" x="69.824219"/>
    <use xlink:href="#DejaVuSans-32" x="148.535156"/>
    <use xlink:href="#DejaVuSans-20" x="212.158203"/>
    <use xlink:href="#DejaVuSans-65" x="243.945312"/>
    <use xlink:href="#DejaVuSans-6d" x="305.46875"/>
    <use xlink:href="#DejaVuSans-69" x="402.880859"/>
    <use xlink:href="#DejaVuSans-73" x="430.664062"/>
    <use xlink:href="#DejaVuSans-73" x="482.763672"/>
    <use xlink:href="#DejaVuSans-69" x="534.863281"/>
    <use xlink:href="#DejaVuSans-6f" x="562.646484"/>
    <use xlink:href="#DejaVuSans-6e" x="623.828125"/>
    <use xlink:href="#DejaVuSans-73" x="687.207031"/>
    <use xlink:href="#DejaVuSans-20" x="739.306641"/>
    <use xlink:href="#DejaVuSans-69" x="771.09375"/>
    <use xlink:href="#DejaVuSans-6e" x="798.876953"/>
    <use xlink:href="#DejaVuSans-3a" x="862.255859"/>
    <use xlink:href="#DejaVuSans-20" x="895.947266"/>
    <use xlink:href="#DejaVuSans-57" x="927.734375"/>
    <use xlink:href="#DejaVuSans-6f" x="1020.736328"/>
    <use xlink:href="#DejaVuSans-72" x="1081.917969"/>
    <use xlink:href="#DejaVuSans-6c" x="1123.03125"/>
    <use xlink:href="#DejaVuSans-64" x="1150.814453"/>
   </g>
  </g>
 </g>
 <defs>
  <clipPath id="p72bffbd5cf">
   <rect x="72" y="103.68" width="446.4" height="144.626087"/>
  </clipPath>
  <clipPath id="p33611f3c4f">
   <rect x="72" y="277.231304" width="446.4" height="144.626087"/>
  </clipPath>
  <clipPath id="p8cfd3c2a6d">
   <rect x="72" y="450.782609" width="446.4" height="144.626087"/>
  </clipPath>
 </defs>
</svg>
